<?xml version="1.0" encoding="UTF-8"?>
<svg width="464px" height="207px" viewBox="0 0 464 207" version="1.1" xmlns="http://www.w3.org/2000/svg" xmlns:xlink="http://www.w3.org/1999/xlink">
    <!-- Generator: sketchtool 49.3 (51167) - http://www.bohemiancoding.com/sketch -->
    <title>BE0BE22D-51D9-4648-BB06-F74C5A729585</title>
    <desc>Created with sketchtool.</desc>
    <defs></defs>
    <g id="Page-1" stroke="none" stroke-width="1" fill="none" fill-rule="evenodd">
        <g id="Make_ing" transform="translate(-720.000000, -128.000000)">
            <g id="img_Talkbox" transform="translate(720.000000, 128.000000)">
                <polygon id="Fill-1" fill="#231F20" points="454.54 88.23 462.809 88.23 462.809 80.88 454.54 80.88"></polygon>
                <polygon id="Fill-2" fill="#231F20" points="454.54 80.88 462.809 80.88 462.809 73.53 454.54 73.53"></polygon>
                <polygon id="Fill-3" fill="#231F20" points="454.54 73.53 462.809 73.53 462.809 66.181 454.54 66.181"></polygon>
                <polygon id="Fill-4" fill="#231F20" points="454.54 66.18 462.809 66.18 462.809 58.82 454.54 58.82"></polygon>
                <polygon id="Fill-5" fill="#231F20" points="454.54 58.82 462.809 58.82 462.809 51.471 454.54 51.471"></polygon>
                <polygon id="Fill-6" fill="#231F20" points="454.54 51.471 462.809 51.471 462.809 44.12 454.54 44.12"></polygon>
                <polygon id="Fill-7" fill="#231F20" points="446.28 95.59 454.54 95.59 454.54 88.23 446.28 88.23"></polygon>
                <polygon id="Fill-8" fill="#231F20" points="446.28 44.12 454.54 44.12 454.54 36.761 446.28 36.761"></polygon>
                <polygon id="Fill-9" fill="#231F20" points="446.28 36.76 454.54 36.76 454.54 29.409 446.28 29.409"></polygon>
                <polygon id="Fill-10" fill="#231F20" points="438.009 102.94 446.28 102.94 446.28 95.59 438.009 95.59"></polygon>
                <polygon id="Fill-11" fill="#231F20" points="438.009 29.41 446.28 29.41 446.28 22.06 438.009 22.06"></polygon>
                <polygon id="Fill-12" fill="#231F20" points="429.75 110.29 438.01 110.29 438.01 102.939 429.75 102.939"></polygon>
                <polygon id="Fill-13" fill="#231F20" points="429.75 102.94 438.01 102.94 438.01 95.59 429.75 95.59"></polygon>
                <polygon id="Fill-14" fill="#231F20" points="429.75 29.41 438.01 29.41 438.01 22.06 429.75 22.06"></polygon>
                <polygon id="Fill-15" fill="#231F20" points="421.479 117.65 429.75 117.65 429.75 110.291 421.479 110.291"></polygon>
                <polygon id="Fill-16" fill="#231F20" points="421.479 110.29 429.75 110.29 429.75 102.939 421.479 102.939"></polygon>
                <polygon id="Fill-17" fill="#231F20" points="421.479 22.06 429.75 22.06 429.75 14.7 421.479 14.7"></polygon>
                <polygon id="Fill-18" fill="#231F20" points="413.22 117.65 421.48 117.65 421.48 110.291 413.22 110.291"></polygon>
                <polygon id="Fill-19" fill="#231F20" points="413.22 14.7 421.48 14.7 421.48 7.35 413.22 7.35"></polygon>
                <polygon id="Fill-20" fill="#231F20" points="404.95 125 413.22 125 413.22 117.649 404.95 117.649"></polygon>
                <polygon id="Fill-21" fill="#231F20" points="404.95 14.7 413.22 14.7 413.22 7.35 404.95 7.35"></polygon>
                <polygon id="Fill-22" fill="#231F20" points="396.689 125 404.95 125 404.95 117.649 396.689 117.649"></polygon>
                <polygon id="Fill-23" fill="#231F20" points="396.689 14.7 404.95 14.7 404.95 7.35 396.689 7.35"></polygon>
                <polygon id="Fill-24" fill="#231F20" points="388.43 132.35 396.69 132.35 396.69 125 388.43 125"></polygon>
                <polygon id="Fill-25" fill="#231F20" points="388.43 7.35 396.689 7.35 396.689 0.001 388.43 0.001"></polygon>
                <polygon id="Fill-26" fill="#231F20" points="380.16 132.35 388.43 132.35 388.43 125 380.16 125"></polygon>
                <polygon id="Fill-27" fill="#231F20" points="380.16 7.35 388.43 7.35 388.43 0.001 380.16 0.001"></polygon>
                <polygon id="Fill-28" fill="#231F20" points="371.899 132.35 380.16 132.35 380.16 125 371.899 125"></polygon>
                <polygon id="Fill-29" fill="#231F20" points="371.9 7.35 380.16 7.35 380.16 0.001 371.9 0.001"></polygon>
                <polygon id="Fill-30" fill="#231F20" points="363.63 132.35 371.9 132.35 371.9 125 363.63 125"></polygon>
                <polygon id="Fill-31" fill="#231F20" points="363.63 7.35 371.9 7.35 371.9 0.001 363.63 0.001"></polygon>
                <polygon id="Fill-32" fill="#231F20" points="355.37 132.35 363.63 132.35 363.63 125 355.37 125"></polygon>
                <polygon id="Fill-33" fill="#231F20" points="355.37 7.35 363.629 7.35 363.629 0.001 355.37 0.001"></polygon>
                <polygon id="Fill-34" fill="#231F20" points="347.099 132.35 355.37 132.35 355.37 125 347.099 125"></polygon>
                <polygon id="Fill-35" fill="#231F20" points="347.099 7.35 355.37 7.35 355.37 0.001 347.099 0.001"></polygon>
                <polygon id="Fill-36" fill="#231F20" points="338.84 132.35 347.1 132.35 347.1 125 338.84 125"></polygon>
                <polygon id="Fill-37" fill="#231F20" points="338.84 7.35 347.099 7.35 347.099 0.001 338.84 0.001"></polygon>
                <polygon id="Fill-38" fill="#231F20" points="330.57 139.7 338.84 139.7 338.84 132.35 330.57 132.35"></polygon>
                <polygon id="Fill-39" fill="#231F20" points="330.571 7.35 338.84 7.35 338.84 0.001 330.571 0.001"></polygon>
                <polygon id="Fill-40" fill="#231F20" points="322.309 139.7 330.57 139.7 330.57 132.35 322.309 132.35"></polygon>
                <polygon id="Fill-41" fill="#231F20" points="322.31 7.35 330.571 7.35 330.571 0.001 322.31 0.001"></polygon>
                <polygon id="Fill-42" fill="#231F20" points="314.05 139.7 322.31 139.7 322.31 132.35 314.05 132.35"></polygon>
                <polygon id="Fill-43" fill="#231F20" points="314.05 7.35 322.31 7.35 322.31 0.001 314.05 0.001"></polygon>
                <polygon id="Fill-44" fill="#231F20" points="305.78 139.7 314.05 139.7 314.05 132.35 305.78 132.35"></polygon>
                <polygon id="Fill-45" fill="#231F20" points="305.78 7.35 314.049 7.35 314.049 0.001 305.78 0.001"></polygon>
                <polygon id="Fill-46" fill="#231F20" points="297.519 139.7 305.78 139.7 305.78 132.35 297.519 132.35"></polygon>
                <polygon id="Fill-47" fill="#231F20" points="297.519 7.35 305.78 7.35 305.78 0.001 297.519 0.001"></polygon>
                <polygon id="Fill-48" fill="#231F20" points="289.25 139.7 297.52 139.7 297.52 132.35 289.25 132.35"></polygon>
                <polygon id="Fill-49" fill="#231F20" points="289.25 7.35 297.519 7.35 297.519 0.001 289.25 0.001"></polygon>
                <polygon id="Fill-50" fill="#231F20" points="280.99 139.7 289.25 139.7 289.25 132.35 280.99 132.35"></polygon>
                <polygon id="Fill-51" fill="#231F20" points="280.991 7.35 289.25 7.35 289.25 0.001 280.991 0.001"></polygon>
                <polygon id="Fill-52" fill="#231F20" points="272.719 139.7 280.99 139.7 280.99 132.35 272.719 132.35"></polygon>
                <polygon id="Fill-53" fill="#231F20" points="272.72 7.35 280.991 7.35 280.991 0.001 272.72 0.001"></polygon>
                <polygon id="Fill-54" fill="#231F20" points="264.46 139.7 272.72 139.7 272.72 132.35 264.46 132.35"></polygon>
                <polygon id="Fill-55" fill="#231F20" points="264.46 7.35 272.719 7.35 272.719 0.001 264.46 0.001"></polygon>
                <polygon id="Fill-56" fill="#231F20" points="256.189 139.7 264.46 139.7 264.46 132.35 256.189 132.35"></polygon>
                <polygon id="Fill-57" fill="#231F20" points="256.189 7.35 264.46 7.35 264.46 0.001 256.189 0.001"></polygon>
                <polygon id="Fill-58" fill="#231F20" points="247.93 139.7 256.19 139.7 256.19 132.35 247.93 132.35"></polygon>
                <polygon id="Fill-59" fill="#231F20" points="247.93 7.35 256.189 7.35 256.189 0.001 247.93 0.001"></polygon>
                <polygon id="Fill-60" fill="#231F20" points="239.66 139.7 247.93 139.7 247.93 132.35 239.66 132.35"></polygon>
                <polygon id="Fill-61" fill="#231F20" points="239.66 7.35 247.93 7.35 247.93 0.001 239.66 0.001"></polygon>
                <polygon id="Fill-62" fill="#231F20" points="231.399 139.7 239.66 139.7 239.66 132.35 231.399 132.35"></polygon>
                <polygon id="Fill-63" fill="#231F20" points="231.4 7.35 239.66 7.35 239.66 0.001 231.4 0.001"></polygon>
                <polygon id="Fill-64" fill="#231F20" points="223.14 139.7 231.4 139.7 231.4 132.35 223.14 132.35"></polygon>
                <polygon id="Fill-65" fill="#231F20" points="223.14 7.35 231.4 7.35 231.4 0.001 223.14 0.001"></polygon>
                <polygon id="Fill-66" fill="#231F20" points="214.87 139.7 223.14 139.7 223.14 132.35 214.87 132.35"></polygon>
                <polygon id="Fill-67" fill="#231F20" points="214.87 7.35 223.139 7.35 223.139 0.001 214.87 0.001"></polygon>
                <polygon id="Fill-68" fill="#231F20" points="206.609 139.7 214.87 139.7 214.87 132.35 206.609 132.35"></polygon>
                <polygon id="Fill-69" fill="#231F20" points="206.609 7.35 214.87 7.35 214.87 0.001 206.609 0.001"></polygon>
                <polygon id="Fill-70" fill="#231F20" points="198.34 139.7 206.61 139.7 206.61 132.35 198.34 132.35"></polygon>
                <polygon id="Fill-71" fill="#231F20" points="198.34 7.35 206.609 7.35 206.609 0.001 198.34 0.001"></polygon>
                <polygon id="Fill-72" fill="#231F20" points="190.08 139.7 198.34 139.7 198.34 132.35 190.08 132.35"></polygon>
                <polygon id="Fill-73" fill="#231F20" points="190.08 7.35 198.34 7.35 198.34 0.001 190.08 0.001"></polygon>
                <polygon id="Fill-74" fill="#231F20" points="181.809 132.35 190.08 132.35 190.08 125 181.809 125"></polygon>
                <polygon id="Fill-75" fill="#231F20" points="181.81 7.35 190.08 7.35 190.08 0.001 181.81 0.001"></polygon>
                <polygon id="Fill-76" fill="#231F20" points="173.55 132.35 181.81 132.35 181.81 125 173.55 125"></polygon>
                <polygon id="Fill-77" fill="#231F20" points="173.55 7.35 181.81 7.35 181.81 0.001 173.55 0.001"></polygon>
                <polygon id="Fill-78" fill="#231F20" points="165.28 132.35 173.55 132.35 173.55 125 165.28 125"></polygon>
                <polygon id="Fill-79" fill="#231F20" points="165.281 7.35 173.55 7.35 173.55 0.001 165.281 0.001"></polygon>
                <polygon id="Fill-80" fill="#231F20" points="157.019 132.35 165.28 132.35 165.28 125 157.019 125"></polygon>
                <polygon id="Fill-81" fill="#231F20" points="157.019 14.7 165.28 14.7 165.28 7.35 157.019 7.35"></polygon>
                <polygon id="Fill-82" fill="#231F20" points="148.76 132.35 157.02 132.35 157.02 125 148.76 125"></polygon>
                <polygon id="Fill-83" fill="#231F20" points="148.76 14.7 157.02 14.7 157.02 7.35 148.76 7.35"></polygon>
                <polygon id="Fill-84" fill="#231F20" points="140.49 132.35 148.76 132.35 148.76 125 140.49 125"></polygon>
                <polygon id="Fill-85" fill="#231F20" points="140.49 14.7 148.76 14.7 148.76 7.35 140.49 7.35"></polygon>
                <polygon id="Fill-86" fill="#231F20" points="132.229 132.35 140.49 132.35 140.49 125 132.229 125"></polygon>
                <polygon id="Fill-87" fill="#231F20" points="132.229 14.7 140.49 14.7 140.49 7.35 132.229 7.35"></polygon>
                <polygon id="Fill-88" fill="#231F20" points="123.96 132.35 132.23 132.35 132.23 125 123.96 125"></polygon>
                <polygon id="Fill-89" fill="#231F20" points="123.96 14.7 132.23 14.7 132.23 7.35 123.96 7.35"></polygon>
                <polygon id="Fill-90" fill="#231F20" points="115.7 132.35 123.96 132.35 123.96 125 115.7 125"></polygon>
                <polygon id="Fill-91" fill="#231F20" points="115.7 14.7 123.96 14.7 123.96 7.35 115.7 7.35"></polygon>
                <polygon id="Fill-92" fill="#231F20" points="107.429 132.35 115.7 132.35 115.7 125 107.429 125"></polygon>
                <polygon id="Fill-93" fill="#231F20" points="107.429 14.7 115.7 14.7 115.7 7.35 107.429 7.35"></polygon>
                <polygon id="Fill-94" fill="#231F20" points="99.17 132.35 107.43 132.35 107.43 125 99.17 125"></polygon>
                <polygon id="Fill-95" fill="#231F20" points="99.17 14.7 107.43 14.7 107.43 7.35 99.17 7.35"></polygon>
                <polygon id="Fill-96" fill="#231F20" points="90.899 125 99.17 125 99.17 117.649 90.899 117.649"></polygon>
                <polygon id="Fill-97" fill="#231F20" points="90.899 14.7 99.17 14.7 99.17 7.35 90.899 7.35"></polygon>
                <polygon id="Fill-98" fill="#231F20" points="82.64 125 90.9 125 90.9 117.649 82.64 117.649"></polygon>
                <polygon id="Fill-99" fill="#231F20" points="82.64 22.06 90.9 22.06 90.9 14.7 82.64 14.7"></polygon>
                <polygon id="Fill-100" fill="#231F20" points="74.38 117.65 82.64 117.65 82.64 110.291 74.38 110.291"></polygon>
                <polygon id="Fill-101" fill="#231F20" points="74.38 22.06 82.64 22.06 82.64 14.7 74.38 14.7"></polygon>
                <polygon id="Fill-102" fill="#231F20" points="66.109 117.65 74.38 117.65 74.38 110.291 66.109 110.291"></polygon>
                <polygon id="Fill-103" fill="#231F20" points="66.109 29.41 74.38 29.41 74.38 22.06 66.109 22.06"></polygon>
                <polygon id="Fill-104" fill="#231F20" points="57.85 117.65 66.11 117.65 66.11 110.291 57.85 110.291"></polygon>
                <polygon id="Fill-105" fill="#231F20" points="57.85 36.76 66.11 36.76 66.11 29.409 57.85 29.409"></polygon>
                <polygon id="Fill-106" fill="#231F20" points="57.85 29.41 66.11 29.41 66.11 22.06 57.85 22.06"></polygon>
                <polygon id="Fill-107" fill="#231F20" points="49.58 125 57.85 125 57.85 117.649 49.58 117.649"></polygon>
                <polygon id="Fill-108" fill="#231F20" points="49.58 36.76 57.85 36.76 57.85 29.409 49.58 29.409"></polygon>
                <polygon id="Fill-109" fill="#231F20" points="41.32 125 49.58 125 49.58 117.649 41.32 117.649"></polygon>
                <polygon id="Fill-110" fill="#231F20" points="41.32 58.82 49.58 58.82 49.58 51.47 41.32 51.47"></polygon>
                <polygon id="Fill-111" fill="#231F20" points="41.32 51.47 49.58 51.47 49.58 44.119 41.32 44.119"></polygon>
                <polygon id="Fill-112" fill="#231F20" points="41.32 44.12 49.58 44.12 49.58 36.761 41.32 36.761"></polygon>
                <polygon id="Fill-113" fill="#231F20" points="33.049 191.18 41.32 191.18 41.32 183.82 33.049 183.82"></polygon>
                <polygon id="Fill-114" fill="#231F20" points="33.049 183.82 41.32 183.82 41.32 176.47 33.049 176.47"></polygon>
                <polygon id="Fill-115" fill="#231F20" points="33.049 176.47 41.32 176.47 41.32 169.119 33.049 169.119"></polygon>
                <polygon id="Fill-116" fill="#231F20" points="33.049 169.12 41.32 169.12 41.32 161.761 33.049 161.761"></polygon>
                <polygon id="Fill-117" fill="#231F20" points="33.049 161.76 41.32 161.76 41.32 154.409 33.049 154.409"></polygon>
                <polygon id="Fill-118" fill="#231F20" points="33.049 139.7 41.32 139.7 41.32 132.35 33.049 132.35"></polygon>
                <polygon id="Fill-119" fill="#231F20" points="33.049 132.35 41.32 132.35 41.32 125 33.049 125"></polygon>
                <polygon id="Fill-120" fill="#231F20" points="33.049 88.23 41.32 88.23 41.32 80.88 33.049 80.88"></polygon>
                <polygon id="Fill-121" fill="#231F20" points="33.049 80.88 41.32 80.88 41.32 73.529 33.049 73.529"></polygon>
                <polygon id="Fill-122" fill="#231F20" points="33.049 73.53 41.32 73.53 41.32 66.18 33.049 66.18"></polygon>
                <polygon id="Fill-123" fill="#231F20" points="33.049 66.18 41.32 66.18 41.32 58.82 33.049 58.82"></polygon>
                <polygon id="Fill-124" fill="#231F20" points="24.79 198.53 33.05 198.53 33.05 191.18 24.79 191.18"></polygon>
                <polygon id="Fill-125" fill="#231F20" points="24.79 154.41 33.05 154.41 33.05 147.06 24.79 147.06"></polygon>
                <polygon id="Fill-126" fill="#231F20" points="24.79 147.06 33.05 147.06 33.05 139.7 24.79 139.7"></polygon>
                <polygon id="Fill-127" fill="#231F20" points="24.79 95.59 33.05 95.59 33.05 88.23 24.79 88.23"></polygon>
                <polygon id="Fill-128" fill="#231F20" points="16.52 205.88 24.791 205.88 24.791 198.53 16.52 198.53"></polygon>
                <polygon id="Fill-129" fill="#231F20" points="16.519 183.82 24.79 183.82 24.79 176.47 16.519 176.47"></polygon>
                <polygon id="Fill-130" fill="#231F20" points="16.519 176.47 24.79 176.47 24.79 169.119 16.519 169.119"></polygon>
                <polygon id="Fill-131" fill="#231F20" points="16.519 102.94 24.79 102.94 24.79 95.59 16.519 95.59"></polygon>
                <polygon id="Fill-132" fill="#231F20" points="8.26 205.88 16.519 205.88 16.519 198.53 8.26 198.53"></polygon>
                <polygon id="Fill-133" fill="#231F20" points="8.26 198.53 16.52 198.53 16.52 191.18 8.26 191.18"></polygon>
                <polygon id="Fill-134" fill="#231F20" points="8.26 191.18 16.52 191.18 16.52 183.82 8.26 183.82"></polygon>
                <polygon id="Fill-135" fill="#231F20" points="8.26 169.12 16.52 169.12 16.52 161.761 8.26 161.761"></polygon>
                <polygon id="Fill-136" fill="#FFFFFF" points="446.2804 44.1196 446.2804 36.7606 446.2804 29.4106 438.0094 29.4106 429.7504 29.4106 429.7504 22.0596 421.4794 22.0596 421.4794 14.6996 413.2194 14.6996 404.9504 14.6996 396.6904 14.6996 396.6904 7.3496 388.4294 7.3496 380.1594 7.3496 371.8994 7.3496 363.6304 7.3496 355.3704 7.3496 347.0994 7.3496 338.8404 7.3496 330.5694 7.3496 322.3094 7.3496 314.0504 7.3496 305.7804 7.3496 297.5204 7.3496 289.2504 7.3496 280.9894 7.3496 272.7194 7.3496 264.4604 7.3496 256.1904 7.3496 247.9294 7.3496 239.6594 7.3496 231.3994 7.3496 223.1394 7.3496 214.8704 7.3496 206.6104 7.3496 198.3404 7.3496 190.0804 7.3496 181.8094 7.3496 173.5504 7.3496 165.2804 7.3496 165.2804 14.6996 157.0204 14.6996 148.7594 14.6996 140.4894 14.6996 132.2294 14.6996 123.9604 14.6996 115.7004 14.6996 107.4294 14.6996 99.1704 14.6996 90.8994 14.6996 90.8994 22.0596 82.6394 22.0596 74.3804 22.0596 74.3804 29.4106 66.1104 29.4106 66.1104 36.7606 57.8494 36.7606 49.5804 36.7606 49.5804 44.1196 49.5804 51.4706 49.5804 58.8196 41.3194 58.8196 41.3194 66.1806 41.3194 73.5296 41.3194 80.8796 41.3194 88.2296 33.0504 88.2296 33.0504 95.5906 24.7904 95.5906 24.7904 102.9396 16.5204 102.9396 16.5204 110.2896 16.5204 117.6496 8.2594 117.6496 8.2594 125.0006 8.2594 132.3496 8.2594 139.6996 8.2594 147.0596 8.2594 154.4106 8.2594 161.7606 16.5204 161.7606 16.5204 169.1196 24.7904 169.1196 24.7904 176.4706 24.7904 183.8196 16.5204 183.8196 16.5204 191.1806 16.5204 198.5296 24.7904 198.5296 24.7904 191.1806 33.0504 191.1806 33.0504 183.8196 33.0504 176.4706 33.0504 169.1196 33.0504 161.7606 33.0504 154.4106 24.7904 154.4106 24.7904 147.0596 24.7904 139.6996 33.0504 139.6996 33.0504 132.3496 33.0504 125.0006 41.3194 125.0006 41.3194 117.6496 49.5804 117.6496 57.8494 117.6496 57.8494 110.2896 66.1104 110.2896 74.3804 110.2896 82.6394 110.2896 82.6394 117.6496 90.8994 117.6496 99.1704 117.6496 99.1704 125.0006 107.4294 125.0006 115.7004 125.0006 123.9604 125.0006 132.2294 125.0006 140.4894 125.0006 148.7594 125.0006 157.0204 125.0006 165.2804 125.0006 173.5504 125.0006 181.8094 125.0006 190.0804 125.0006 190.0804 132.3496 198.3404 132.3496 206.6104 132.3496 214.8704 132.3496 223.1394 132.3496 231.3994 132.3496 239.6594 132.3496 247.9294 132.3496 256.1904 132.3496 264.4604 132.3496 272.7194 132.3496 280.9894 132.3496 289.2504 132.3496 297.5204 132.3496 305.7804 132.3496 314.0504 132.3496 322.3094 132.3496 330.5694 132.3496 338.8404 132.3496 338.8404 125.0006 347.0994 125.0006 355.3704 125.0006 363.6304 125.0006 371.8994 125.0006 380.1594 125.0006 388.4294 125.0006 396.6904 125.0006 396.6904 117.6496 404.9504 117.6496 413.2194 117.6496 413.2194 110.2896 421.4794 110.2896 421.4794 102.9396 429.7504 102.9396 429.7504 95.5906 438.0094 95.5906 446.2804 95.5906 446.2804 88.2296 454.5404 88.2296 454.5404 80.8796 454.5404 73.5296 454.5404 66.1806 454.5404 58.8196 454.5404 51.4706 454.5404 44.1196"></polygon>
                <polygon id="Fill-137" fill="#231F20" points="8.26 117.65 16.52 117.65 16.52 110.291 8.26 110.291"></polygon>
                <polygon id="Fill-138" fill="#231F20" points="8.26 110.29 16.52 110.29 16.52 102.939 8.26 102.939"></polygon>
                <polygon id="Fill-139" fill="#231F20" points="0 205.88 8.26 205.88 8.26 198.53 0 198.53"></polygon>
                <polygon id="Fill-140" fill="#231F20" points="0 161.76 8.26 161.76 8.26 154.41 0 154.41"></polygon>
                <polygon id="Fill-141" fill="#231F20" points="0 154.41 8.26 154.41 8.26 147.06 0 147.06"></polygon>
                <polygon id="Fill-142" fill="#231F20" points="0 147.06 8.26 147.06 8.26 139.7 0 139.7"></polygon>
                <polygon id="Fill-143" fill="#231F20" points="0 139.699 8.26 139.699 8.26 132.35 0 132.35"></polygon>
                <polygon id="Fill-144" fill="#231F20" points="0 132.35 8.26 132.35 8.26 125.001 0 125.001"></polygon>
                <polygon id="Fill-145" fill="#231F20" points="0 125.001 8.26 125.001 8.26 117.651 0 117.651"></polygon>
            </g>
        </g>
    </g>
</svg>