<?xml version="1.0" encoding="UTF-8"?>
<svg width="563px" height="369px" viewBox="0 0 563 369" version="1.1" xmlns="http://www.w3.org/2000/svg" xmlns:xlink="http://www.w3.org/1999/xlink">
    <!-- Generator: sketchtool 49.3 (51167) - http://www.bohemiancoding.com/sketch -->
    <title>29B28DA4-7FCE-4DAC-8800-8623B8C562BA</title>
    <desc>Created with sketchtool.</desc>
    <defs></defs>
    <g id="Page-1" stroke="none" stroke-width="1" fill="none" fill-rule="evenodd">
        <g id="Make_ing" transform="translate(-223.000000, -336.000000)">
            <g id="img_Cat" transform="translate(223.000000, 336.000000)">
                <polygon id="Fill-1" fill="#D000BF" points="553.72 242.65 561.979 242.65 561.979 235.29 553.72 235.29"></polygon>
                <polygon id="Fill-2" fill="#D000BF" points="553.72 227.94 561.979 227.94 561.979 220.59 553.72 220.59"></polygon>
                <polygon id="Fill-3" fill="#D000BF" points="553.72 213.23 561.979 213.23 561.979 205.881 553.72 205.881"></polygon>
                <polygon id="Fill-4" fill="#D000BF" points="553.72 198.53 561.979 198.53 561.979 191.18 553.72 191.18"></polygon>
                <polygon id="Fill-5" fill="#D000BF" points="545.449 191.18 553.72 191.18 553.72 183.82 545.449 183.82"></polygon>
                <polygon id="Fill-6" fill="#D000BF" points="545.449 183.82 553.72 183.82 553.72 176.47 545.449 176.47"></polygon>
                <polygon id="Fill-7" fill="#231F20" points="537.19 191.18 545.45 191.18 545.45 183.82 537.19 183.82"></polygon>
                <polygon id="Fill-8" fill="#D000BF" points="537.19 183.82 545.45 183.82 545.45 176.47 537.19 176.47"></polygon>
                <polygon id="Fill-9" fill="#231F20" points="528.919 191.18 537.19 191.18 537.19 183.82 528.919 183.82"></polygon>
                <polygon id="Fill-10" fill="#D000BF" points="528.919 183.82 537.19 183.82 537.19 176.47 528.919 176.47"></polygon>
                <polygon id="Fill-11" fill="#231F20" points="528.919 176.47 537.19 176.47 537.19 169.119 528.919 169.119"></polygon>
                <polygon id="Fill-12" fill="#231F20" points="520.659 191.18 528.919 191.18 528.919 183.82 520.659 183.82"></polygon>
                <polygon id="Fill-13" fill="#D000BF" points="520.659 183.82 528.919 183.82 528.919 176.47 520.659 176.47"></polygon>
                <polygon id="Fill-14" fill="#231F20" points="520.659 176.47 528.919 176.47 528.919 169.119 520.659 169.119"></polygon>
                <polygon id="Fill-15" fill="#231F20" points="512.39 198.53 520.66 198.53 520.66 191.18 512.39 191.18"></polygon>
                <polygon id="Fill-16" fill="#231F20" points="512.39 191.18 520.66 191.18 520.66 183.82 512.39 183.82"></polygon>
                <polygon id="Fill-17" fill="#D000BF" points="512.39 183.82 520.66 183.82 520.66 176.47 512.39 176.47"></polygon>
                <polygon id="Fill-18" fill="#231F20" points="512.39 169.12 520.66 169.12 520.66 161.761 512.39 161.761"></polygon>
                <polygon id="Fill-19" fill="#231F20" points="504.13 205.88 512.39 205.88 512.39 198.529 504.13 198.529"></polygon>
                <polygon id="Fill-20" fill="#D000BF" points="504.13 198.53 512.39 198.53 512.39 191.18 504.13 191.18"></polygon>
                <polygon id="Fill-21" fill="#D000BF" points="504.13 191.18 512.39 191.18 512.39 183.82 504.13 183.82"></polygon>
                <polygon id="Fill-22" fill="#D000BF" points="504.13 183.82 512.39 183.82 512.39 176.47 504.13 176.47"></polygon>
                <polygon id="Fill-23" fill="#231F20" points="504.13 161.76 512.39 161.76 512.39 154.409 504.13 154.409"></polygon>
                <polygon id="Fill-24" fill="#231F20" points="495.869 220.59 504.13 220.59 504.13 213.23 495.869 213.23"></polygon>
                <polygon id="Fill-25" fill="#231F20" points="495.869 213.23 504.13 213.23 504.13 205.88 495.869 205.88"></polygon>
                <polygon id="Fill-26" fill="#D000BF" points="495.869 205.88 504.13 205.88 504.13 198.529 495.869 198.529"></polygon>
                <polygon id="Fill-27" fill="#D000BF" points="495.869 198.53 504.13 198.53 504.13 191.18 495.869 191.18"></polygon>
                <polygon id="Fill-28" fill="#D000BF" points="495.869 191.18 504.13 191.18 504.13 183.82 495.869 183.82"></polygon>
                <polygon id="Fill-29" fill="#D000BF" points="495.869 183.82 504.13 183.82 504.13 176.47 495.869 176.47"></polygon>
                <polygon id="Fill-30" fill="#D000BF" points="495.869 176.47 504.13 176.47 504.13 169.119 495.869 169.119"></polygon>
                <polygon id="Fill-31" fill="#231F20" points="495.869 154.41 504.13 154.41 504.13 147.06 495.869 147.06"></polygon>
                <polygon id="Fill-32" fill="#231F20" points="487.6 227.94 495.87 227.94 495.87 220.59 487.6 220.59"></polygon>
                <polygon id="Fill-33" fill="#D000BF" points="487.6 220.59 495.87 220.59 495.87 213.23 487.6 213.23"></polygon>
                <polygon id="Fill-34" fill="#D000BF" points="487.6 213.23 495.87 213.23 495.87 205.88 487.6 205.88"></polygon>
                <polygon id="Fill-35" fill="#D000BF" points="487.6 205.88 495.87 205.88 495.87 198.529 487.6 198.529"></polygon>
                <polygon id="Fill-36" fill="#D000BF" points="487.6 198.53 495.87 198.53 495.87 191.18 487.6 191.18"></polygon>
                <polygon id="Fill-37" fill="#D000BF" points="487.6 191.18 495.87 191.18 495.87 183.82 487.6 183.82"></polygon>
                <polygon id="Fill-38" fill="#D000BF" points="487.6 183.82 495.87 183.82 495.87 176.47 487.6 176.47"></polygon>
                <polygon id="Fill-39" fill="#D000BF" points="487.6 176.47 495.87 176.47 495.87 169.119 487.6 169.119"></polygon>
                <polygon id="Fill-40" fill="#231F20" points="487.6 147.06 495.87 147.06 495.87 139.71 487.6 139.71"></polygon>
                <polygon id="Fill-41" fill="#231F20" points="479.34 235.29 487.6 235.29 487.6 227.94 479.34 227.94"></polygon>
                <polygon id="Fill-42" fill="#D000BF" points="479.34 227.94 487.6 227.94 487.6 220.59 479.34 220.59"></polygon>
                <polygon id="Fill-43" fill="#D000BF" points="479.34 220.59 487.6 220.59 487.6 213.23 479.34 213.23"></polygon>
                <polygon id="Fill-44" fill="#D000BF" points="479.34 213.23 487.6 213.23 487.6 205.88 479.34 205.88"></polygon>
                <polygon id="Fill-45" fill="#D000BF" points="479.34 205.88 487.6 205.88 487.6 198.529 479.34 198.529"></polygon>
                <polygon id="Fill-46" fill="#D000BF" points="479.34 198.53 487.6 198.53 487.6 191.18 479.34 191.18"></polygon>
                <polygon id="Fill-47" fill="#D000BF" points="479.34 191.18 487.6 191.18 487.6 183.82 479.34 183.82"></polygon>
                <polygon id="Fill-48" fill="#D000BF" points="479.34 183.82 487.6 183.82 487.6 176.47 479.34 176.47"></polygon>
                <polygon id="Fill-49" fill="#D000BF" points="479.34 176.47 487.6 176.47 487.6 169.119 479.34 169.119"></polygon>
                <polygon id="Fill-50" fill="#231F20" points="479.34 147.06 487.6 147.06 487.6 139.71 479.34 139.71"></polygon>
                <polygon id="Fill-51" fill="#231F20" points="471.069 235.29 479.34 235.29 479.34 227.94 471.069 227.94"></polygon>
                <polygon id="Fill-52" fill="#D000BF" points="471.069 227.94 479.34 227.94 479.34 220.59 471.069 220.59"></polygon>
                <polygon id="Fill-53" fill="#231F20" points="471.069 220.59 479.34 220.59 479.34 213.23 471.069 213.23"></polygon>
                <polygon id="Fill-54" fill="#231F20" points="471.069 213.23 479.34 213.23 479.34 205.88 471.069 205.88"></polygon>
                <polygon id="Fill-55" fill="#231F20" points="471.069 205.88 479.34 205.88 479.34 198.529 471.069 198.529"></polygon>
                <polygon id="Fill-56" fill="#231F20" points="471.069 198.53 479.34 198.53 479.34 191.18 471.069 191.18"></polygon>
                <polygon id="Fill-57" fill="#D000BF" points="471.069 191.18 479.34 191.18 479.34 183.82 471.069 183.82"></polygon>
                <polygon id="Fill-58" fill="#D000BF" points="471.069 183.82 479.34 183.82 479.34 176.47 471.069 176.47"></polygon>
                <polygon id="Fill-59" fill="#D000BF" points="471.069 176.47 479.34 176.47 479.34 169.119 471.069 169.119"></polygon>
                <polygon id="Fill-60" fill="#231F20" points="471.069 139.71 479.34 139.71 479.34 132.35 471.069 132.35"></polygon>
                <polygon id="Fill-61" fill="#231F20" points="462.81 235.29 471.07 235.29 471.07 227.94 462.81 227.94"></polygon>
                <polygon id="Fill-62" fill="#231F20" points="462.81 227.94 471.07 227.94 471.07 220.59 462.81 220.59"></polygon>
                <polygon id="Fill-63" fill="#231F20" points="462.81 191.18 471.07 191.18 471.07 183.82 462.81 183.82"></polygon>
                <polygon id="Fill-64" fill="#D000BF" points="462.81 183.82 471.07 183.82 471.07 176.47 462.81 176.47"></polygon>
                <polygon id="Fill-65" fill="#D000BF" points="462.81 176.47 471.07 176.47 471.07 169.119 462.81 169.119"></polygon>
                <polygon id="Fill-66" fill="#D000BF" points="462.81 169.12 471.07 169.12 471.07 161.761 462.81 161.761"></polygon>
                <polygon id="Fill-67" fill="#231F20" points="462.81 139.71 471.07 139.71 471.07 132.35 462.81 132.35"></polygon>
                <polygon id="Fill-68" fill="#231F20" points="454.539 242.65 462.81 242.65 462.81 235.29 454.539 235.29"></polygon>
                <polygon id="Fill-69" fill="#FB9497" points="454.539 213.23 462.81 213.23 462.81 205.88 454.539 205.88"></polygon>
                <polygon id="Fill-70" fill="#231F20" points="454.539 191.18 462.81 191.18 462.81 183.82 454.539 183.82"></polygon>
                <polygon id="Fill-71" fill="#D000BF" points="454.539 183.82 462.81 183.82 462.81 176.47 454.539 176.47"></polygon>
                <polygon id="Fill-72" fill="#D000BF" points="454.539 176.47 462.81 176.47 462.81 169.119 454.539 169.119"></polygon>
                <polygon id="Fill-73" fill="#D000BF" points="454.539 169.12 462.81 169.12 462.81 161.761 454.539 161.761"></polygon>
                <polygon id="Fill-74" fill="#231F20" points="454.539 154.41 462.81 154.41 462.81 147.06 454.539 147.06"></polygon>
                <polygon id="Fill-75" fill="#231F20" points="454.539 147.06 462.81 147.06 462.81 139.71 454.539 139.71"></polygon>
                <polygon id="Fill-76" fill="#231F20" points="446.28 250 454.54 250 454.54 242.649 446.28 242.649"></polygon>
                <polygon id="Fill-77" fill="#FB9497" points="446.28 220.59 454.54 220.59 454.54 213.23 446.28 213.23"></polygon>
                <polygon id="Fill-78" fill="#FB9497" points="446.28 205.88 454.54 205.88 454.54 198.529 446.28 198.529"></polygon>
                <polygon id="Fill-79" fill="#231F20" points="446.28 191.18 454.54 191.18 454.54 183.82 446.28 183.82"></polygon>
                <polygon id="Fill-80" fill="#D000BF" points="446.28 183.82 454.54 183.82 454.54 176.47 446.28 176.47"></polygon>
                <polygon id="Fill-81" fill="#D000BF" points="446.28 176.47 454.54 176.47 454.54 169.119 446.28 169.119"></polygon>
                <polygon id="Fill-82" fill="#231F20" points="446.28 169.12 454.54 169.12 454.54 161.761 446.28 161.761"></polygon>
                <polygon id="Fill-83" fill="#231F20" points="446.28 161.76 454.54 161.76 454.54 154.409 446.28 154.409"></polygon>
                <polygon id="Fill-84" fill="#231F20" points="438.01 257.35 446.28 257.35 446.28 250 438.01 250"></polygon>
                <polygon id="Fill-85" fill="#FB9497" points="438.01 213.23 446.28 213.23 446.28 205.88 438.01 205.88"></polygon>
                <polygon id="Fill-86" fill="#231F20" points="438.01 191.18 446.28 191.18 446.28 183.82 438.01 183.82"></polygon>
                <polygon id="Fill-87" fill="#231F20" points="438.01 183.82 446.28 183.82 446.28 176.47 438.01 176.47"></polygon>
                <polygon id="Fill-88" fill="#231F20" points="438.01 176.47 446.28 176.47 446.28 169.119 438.01 169.119"></polygon>
                <polygon id="Fill-89" fill="#231F20" points="438.01 154.41 446.28 154.41 446.28 147.06 438.01 147.06"></polygon>
                <polygon id="Fill-90" fill="#231F20" points="438.01 147.06 446.28 147.06 446.28 139.71 438.01 139.71"></polygon>
                <polygon id="Fill-91" fill="#231F20" points="438.01 139.71 446.28 139.71 446.28 132.35 438.01 132.35"></polygon>
                <polygon id="Fill-92" fill="#231F20" points="438.01 132.35 446.28 132.35 446.28 125 438.01 125"></polygon>
                <polygon id="Fill-93" fill="#231F20" points="438.01 125 446.28 125 446.28 117.649 438.01 117.649"></polygon>
                <polygon id="Fill-94" fill="#231F20" points="429.749 264.71 438.01 264.71 438.01 257.35 429.749 257.35"></polygon>
                <polygon id="Fill-95" fill="#231F20" points="429.749 257.35 438.01 257.35 438.01 250 429.749 250"></polygon>
                <polygon id="Fill-96" fill="#231F20" points="429.749 198.53 438.01 198.53 438.01 191.18 429.749 191.18"></polygon>
                <polygon id="Fill-97" fill="#231F20" points="429.749 169.12 438.01 169.12 438.01 161.761 429.749 161.761"></polygon>
                <polygon id="Fill-98" fill="#231F20" points="429.749 161.76 438.01 161.76 438.01 154.409 429.749 154.409"></polygon>
                <polygon id="Fill-99" fill="#231F20" points="429.749 125 438.01 125 438.01 117.649 429.749 117.649"></polygon>
                <polygon id="Fill-100" fill="#231F20" points="429.749 117.65 438.01 117.65 438.01 110.29 429.749 110.29"></polygon>
                <polygon id="Fill-101" fill="#231F20" points="429.749 110.29 438.01 110.29 438.01 102.94 429.749 102.94"></polygon>
                <polygon id="Fill-102" fill="#231F20" points="429.749 102.94 438.01 102.94 438.01 95.59 429.749 95.59"></polygon>
                <polygon id="Fill-103" fill="#231F20" points="429.749 95.59 438.01 95.59 438.01 88.23 429.749 88.23"></polygon>
                <polygon id="Fill-104" fill="#231F20" points="421.48 338.23 429.75 338.23 429.75 330.88 421.48 330.88"></polygon>
                <polygon id="Fill-105" fill="#231F20" points="421.48 330.88 429.75 330.88 429.75 323.529 421.48 323.529"></polygon>
                <polygon id="Fill-106" fill="#231F20" points="421.48 323.53 429.75 323.53 429.75 316.18 421.48 316.18"></polygon>
                <polygon id="Fill-107" fill="#231F20" points="421.48 316.18 429.75 316.18 429.75 308.82 421.48 308.82"></polygon>
                <polygon id="Fill-108" fill="#231F20" points="421.48 308.82 429.75 308.82 429.75 301.47 421.48 301.47"></polygon>
                <polygon id="Fill-109" fill="#231F20" points="421.48 301.47 429.75 301.47 429.75 294.119 421.48 294.119"></polygon>
                <polygon id="Fill-110" fill="#231F20" points="421.48 294.12 429.75 294.12 429.75 286.761 421.48 286.761"></polygon>
                <polygon id="Fill-111" fill="#231F20" points="421.48 286.76 429.75 286.76 429.75 279.409 421.48 279.409"></polygon>
                <polygon id="Fill-112" fill="#231F20" points="421.48 272.06 429.75 272.06 429.75 264.71 421.48 264.71"></polygon>
                <polygon id="Fill-113" fill="#231F20" points="421.48 198.53 429.75 198.53 429.75 191.18 421.48 191.18"></polygon>
                <polygon id="Fill-114" fill="#231F20" points="421.48 176.47 429.75 176.47 429.75 169.119 421.48 169.119"></polygon>
                <polygon id="Fill-115" fill="#231F20" points="421.48 88.23 429.75 88.23 429.75 80.88 421.48 80.88"></polygon>
                <polygon id="Fill-116" fill="#231F20" points="421.48 80.88 429.75 80.88 429.75 73.529 421.48 73.529"></polygon>
                <polygon id="Fill-117" fill="#231F20" points="413.221 367.65 421.48 367.65 421.48 360.29 413.221 360.29"></polygon>
                <polygon id="Fill-118" fill="#231F20" points="413.22 360.29 421.48 360.29 421.48 352.94 413.22 352.94"></polygon>
                <polygon id="Fill-119" fill="#231F20" points="413.22 352.94 421.48 352.94 421.48 345.59 413.22 345.59"></polygon>
                <polygon id="Fill-120" fill="#231F20" points="413.22 345.59 421.48 345.59 421.48 338.23 413.22 338.23"></polygon>
                <polygon id="Fill-121" fill="#231F20" points="413.22 338.23 421.48 338.23 421.48 330.88 413.22 330.88"></polygon>
                <polygon id="Fill-122" fill="#231F20" points="413.22 279.41 421.48 279.41 421.48 272.06 413.22 272.06"></polygon>
                <polygon id="Fill-123" fill="#231F20" points="413.22 272.06 421.48 272.06 421.48 264.71 413.22 264.71"></polygon>
                <polygon id="Fill-124" fill="#231F20" points="413.22 205.88 421.48 205.88 421.48 198.529 413.22 198.529"></polygon>
                <polygon id="Fill-125" fill="#231F20" points="413.22 183.82 421.48 183.82 421.48 176.47 413.22 176.47"></polygon>
                <polygon id="Fill-126" fill="#231F20" points="413.22 176.47 421.48 176.47 421.48 169.119 413.22 169.119"></polygon>
                <polygon id="Fill-127" fill="#231F20" points="413.22 73.53 421.48 73.53 421.48 66.18 413.22 66.18"></polygon>
                <polygon id="Fill-128" fill="#231F20" points="413.22 66.18 421.48 66.18 421.48 58.82 413.22 58.82"></polygon>
                <polygon id="Fill-129" fill="#231F20" points="413.22 58.82 421.48 58.82 421.48 51.47 413.22 51.47"></polygon>
                <polygon id="Fill-130" fill="#231F20" points="413.22 51.47 421.48 51.47 421.48 44.119 413.22 44.119"></polygon>
                <polygon id="Fill-131" fill="#231F20" points="413.22 44.12 421.48 44.12 421.48 36.761 413.22 36.761"></polygon>
                <polygon id="Fill-132" fill="#231F20" points="413.22 36.76 421.48 36.76 421.48 29.409 413.22 29.409"></polygon>
                <polygon id="Fill-133" fill="#231F20" points="413.22 29.41 421.48 29.41 421.48 22.06 413.22 22.06"></polygon>
                <polygon id="Fill-134" fill="#231F20" points="404.959 279.41 413.22 279.41 413.22 272.06 404.959 272.06"></polygon>
                <polygon id="Fill-135" fill="#231F20" points="404.959 213.23 413.22 213.23 413.22 205.88 404.959 205.88"></polygon>
                <polygon id="Fill-136" fill="#231F20" points="404.959 205.88 413.22 205.88 413.22 198.529 404.959 198.529"></polygon>
                <polygon id="Fill-137" fill="#231F20" points="404.959 198.53 413.22 198.53 413.22 191.18 404.959 191.18"></polygon>
                <polygon id="Fill-138" fill="#231F20" points="404.959 191.18 413.22 191.18 413.22 183.82 404.959 183.82"></polygon>
                <polygon id="Fill-139" fill="#231F20" points="404.959 22.06 413.22 22.06 413.22 14.71 404.959 14.71"></polygon>
                <polygon id="Fill-140" fill="#231F20" points="404.959 14.71 413.22 14.71 413.22 7.35 404.959 7.35"></polygon>
                <polygon id="Fill-141" fill="#231F20" points="396.69 220.59 404.96 220.59 404.96 213.23 396.69 213.23"></polygon>
                <polygon id="Fill-142" fill="#231F20" points="396.69 213.23 404.96 213.23 404.96 205.88 396.69 205.88"></polygon>
                <polygon id="Fill-143" fill="#231F20" points="396.69 7.35 404.959 7.35 404.959 0.001 396.69 0.001"></polygon>
                <polygon id="Fill-144" fill="#231F20" points="388.43 7.35 396.69 7.35 396.69 0.001 388.43 0.001"></polygon>
                <polygon id="Fill-145" fill="#231F20" points="380.159 14.71 388.43 14.71 388.43 7.35 380.159 7.35"></polygon>
                <polygon id="Fill-146" fill="#231F20" points="371.9 22.06 380.16 22.06 380.16 14.71 371.9 14.71"></polygon>
                <polygon id="Fill-147" fill="#231F20" points="363.63 117.65 371.9 117.65 371.9 110.29 363.63 110.29"></polygon>
                <polygon id="Fill-148" fill="#231F20" points="363.63 110.29 371.9 110.29 371.9 102.94 363.63 102.94"></polygon>
                <polygon id="Fill-149" fill="#231F20" points="363.63 29.41 371.9 29.41 371.9 22.06 363.63 22.06"></polygon>
                <polygon id="Fill-150" fill="#231F20" points="355.369 125 363.63 125 363.63 117.649 355.369 117.649"></polygon>
                <polygon id="Fill-151" fill="#231F20" points="355.369 117.65 363.63 117.65 363.63 110.29 355.369 110.29"></polygon>
                <polygon id="Fill-152" fill="#231F20" points="355.369 110.29 363.63 110.29 363.63 102.94 355.369 102.94"></polygon>
                <polygon id="Fill-153" fill="#231F20" points="355.369 102.94 363.63 102.94 363.63 95.59 355.369 95.59"></polygon>
                <polygon id="Fill-154" fill="#231F20" points="355.369 36.76 363.63 36.76 363.63 29.409 355.369 29.409"></polygon>
                <polygon id="Fill-155" fill="#231F20" points="347.1 117.65 355.37 117.65 355.37 110.29 347.1 110.29"></polygon>
                <polygon id="Fill-156" fill="#231F20" points="347.1 110.29 355.37 110.29 355.37 102.94 347.1 102.94"></polygon>
                <polygon id="Fill-157" fill="#231F20" points="347.1 102.94 355.37 102.94 355.37 95.59 347.1 95.59"></polygon>
                <polygon id="Fill-158" fill="#231F20" points="347.1 95.59 355.37 95.59 355.37 88.23 347.1 88.23"></polygon>
                <polygon id="Fill-159" fill="#231F20" points="347.1 44.12 355.37 44.12 355.37 36.761 347.1 36.761"></polygon>
                <polygon id="Fill-160" fill="#231F20" points="338.84 110.29 347.1 110.29 347.1 102.94 338.84 102.94"></polygon>
                <polygon id="Fill-161" fill="#231F20" points="338.84 102.94 347.1 102.94 347.1 95.59 338.84 95.59"></polygon>
                <polygon id="Fill-162" fill="#231F20" points="338.84 95.59 347.1 95.59 347.1 88.23 338.84 88.23"></polygon>
                <polygon id="Fill-163" fill="#231F20" points="338.84 44.12 347.1 44.12 347.1 36.761 338.84 36.761"></polygon>
                <polygon id="Fill-164" fill="#231F20" points="330.579 161.76 338.84 161.76 338.84 154.409 330.579 154.409"></polygon>
                <polygon id="Fill-165" fill="#231F20" points="330.579 154.41 338.84 154.41 338.84 147.06 330.579 147.06"></polygon>
                <polygon id="Fill-166" fill="#231F20" points="330.579 44.12 338.84 44.12 338.84 36.761 330.579 36.761"></polygon>
                <polygon id="Fill-167" fill="#231F20" points="322.31 161.76 330.58 161.76 330.58 154.409 322.31 154.409"></polygon>
                <polygon id="Fill-168" fill="#231F20" points="322.31 44.12 330.58 44.12 330.58 36.761 322.31 36.761"></polygon>
                <polygon id="Fill-169" fill="#FB9497" points="314.05 176.47 322.31 176.47 322.31 169.119 314.05 169.119"></polygon>
                <polygon id="Fill-170" fill="#FB9497" points="314.05 169.12 322.31 169.12 322.31 161.761 314.05 161.761"></polygon>
                <polygon id="Fill-171" fill="#231F20" points="314.05 161.76 322.31 161.76 322.31 154.409 314.05 154.409"></polygon>
                <polygon id="Fill-172" fill="#231F20" points="314.05 44.12 322.31 44.12 322.31 36.761 314.05 36.761"></polygon>
                <polygon id="Fill-173" fill="#231F20" points="305.779 257.35 314.05 257.35 314.05 250 305.779 250"></polygon>
                <polygon id="Fill-174" fill="#231F20" points="305.779 250 314.05 250 314.05 242.649 305.779 242.649"></polygon>
                <polygon id="Fill-175" fill="#FB9497" points="305.779 183.82 314.05 183.82 314.05 176.47 305.779 176.47"></polygon>
                <polygon id="Fill-176" fill="#FB9497" points="305.779 176.47 314.05 176.47 314.05 169.119 305.779 169.119"></polygon>
                <polygon id="Fill-177" fill="#FB9497" points="305.779 169.12 314.05 169.12 314.05 161.761 305.779 161.761"></polygon>
                <polygon id="Fill-178" fill="#FB9497" points="305.779 161.76 314.05 161.76 314.05 154.409 305.779 154.409"></polygon>
                <polygon id="Fill-179" fill="#231F20" points="305.779 154.41 314.05 154.41 314.05 147.06 305.779 147.06"></polygon>
                <polygon id="Fill-180" fill="#231F20" points="305.779 147.06 314.05 147.06 314.05 139.71 305.779 139.71"></polygon>
                <polygon id="Fill-181" fill="#231F20" points="305.779 44.12 314.05 44.12 314.05 36.761 305.779 36.761"></polygon>
                <polygon id="Fill-182" fill="#231F20" points="297.52 301.47 305.78 301.47 305.78 294.119 297.52 294.119"></polygon>
                <polygon id="Fill-183" fill="#231F20" points="297.52 294.12 305.78 294.12 305.78 286.761 297.52 286.761"></polygon>
                <polygon id="Fill-184" fill="#231F20" points="297.52 286.76 305.78 286.76 305.78 279.409 297.52 279.409"></polygon>
                <polygon id="Fill-185" fill="#231F20" points="297.52 272.06 305.78 272.06 305.78 264.71 297.52 264.71"></polygon>
                <polygon id="Fill-186" fill="#231F20" points="297.52 264.71 305.78 264.71 305.78 257.35 297.52 257.35"></polygon>
                <polygon id="Fill-187" fill="#D7DF23" points="297.52 257.35 305.78 257.35 305.78 250 297.52 250"></polygon>
                <polygon id="Fill-188" fill="#D7DF23" points="297.52 250 305.78 250 305.78 242.649 297.52 242.649"></polygon>
                <polygon id="Fill-189" fill="#231F20" points="297.52 242.65 305.78 242.65 305.78 235.29 297.52 235.29"></polygon>
                <polygon id="Fill-190" fill="#FB9497" points="297.52 183.82 305.78 183.82 305.78 176.47 297.52 176.47"></polygon>
                <polygon id="Fill-191" fill="#FB9497" points="297.52 176.47 305.78 176.47 305.78 169.119 297.52 169.119"></polygon>
                <polygon id="Fill-192" fill="#FB9497" points="297.52 169.12 305.78 169.12 305.78 161.761 297.52 161.761"></polygon>
                <polygon id="Fill-193" fill="#FB9497" points="297.52 161.76 305.78 161.76 305.78 154.409 297.52 154.409"></polygon>
                <polygon id="Fill-194" fill="#FB9497" points="297.52 154.41 305.78 154.41 305.78 147.06 297.52 147.06"></polygon>
                <polygon id="Fill-195" fill="#231F20" points="297.52 147.06 305.78 147.06 305.78 139.71 297.52 139.71"></polygon>
                <polygon id="Fill-196" fill="#231F20" points="297.52 139.71 305.78 139.71 305.78 132.35 297.52 132.35"></polygon>
                <polygon id="Fill-197" fill="#231F20" points="297.52 44.12 305.78 44.12 305.78 36.761 297.52 36.761"></polygon>
                <polygon id="Fill-198" fill="#231F20" points="289.249 308.82 297.52 308.82 297.52 301.47 289.249 301.47"></polygon>
                <polygon id="Fill-199" fill="#231F20" points="289.249 279.41 297.52 279.41 297.52 272.06 289.249 272.06"></polygon>
                <polygon id="Fill-200" fill="#231F20" points="289.249 272.06 297.52 272.06 297.52 264.71 289.249 264.71"></polygon>
                <polygon id="Fill-201" fill="#D7DF23" points="289.249 264.71 297.52 264.71 297.52 257.35 289.249 257.35"></polygon>
                <polygon id="Fill-202" fill="#231F20" points="289.249 257.35 297.52 257.35 297.52 250 289.249 250"></polygon>
                <polygon id="Fill-203" fill="#D7DF23" points="289.249 250 297.52 250 297.52 242.649 289.249 242.649"></polygon>
                <polygon id="Fill-204" fill="#231F20" points="289.249 235.29 297.52 235.29 297.52 227.94 289.249 227.94"></polygon>
                <polygon id="Fill-205" fill="#FB9497" points="289.249 169.12 297.52 169.12 297.52 161.761 289.249 161.761"></polygon>
                <polygon id="Fill-206" fill="#FB9497" points="289.249 161.76 297.52 161.76 297.52 154.409 289.249 154.409"></polygon>
                <polygon id="Fill-207" fill="#231F20" points="289.249 154.41 297.52 154.41 297.52 147.06 289.249 147.06"></polygon>
                <polygon id="Fill-208" fill="#231F20" points="289.249 44.12 297.52 44.12 297.52 36.761 289.249 36.761"></polygon>
                <polygon id="Fill-209" fill="#231F20" points="280.99 308.82 289.25 308.82 289.25 301.47 280.99 301.47"></polygon>
                <polygon id="Fill-210" fill="#231F20" points="280.99 272.06 289.25 272.06 289.25 264.71 280.99 264.71"></polygon>
                <polygon id="Fill-211" fill="#D7DF23" points="280.99 264.71 289.25 264.71 289.25 257.35 280.99 257.35"></polygon>
                <polygon id="Fill-212" fill="#D7DF23" points="280.99 257.35 289.25 257.35 289.25 250 280.99 250"></polygon>
                <polygon id="Fill-213" fill="#231F20" points="280.99 250 289.25 250 289.25 242.649 280.99 242.649"></polygon>
                <polygon id="Fill-214" fill="#231F20" points="280.99 235.29 289.25 235.29 289.25 227.94 280.99 227.94"></polygon>
                <polygon id="Fill-215" fill="#231F20" points="280.99 161.76 289.25 161.76 289.25 154.409 280.99 154.409"></polygon>
                <polygon id="Fill-216" fill="#231F20" points="280.99 44.12 289.25 44.12 289.25 36.761 280.99 36.761"></polygon>
                <polygon id="Fill-217" fill="#231F20" points="272.72 352.94 280.99 352.94 280.99 345.59 272.72 345.59"></polygon>
                <polygon id="Fill-218" fill="#231F20" points="272.72 345.59 280.99 345.59 280.99 338.23 272.72 338.23"></polygon>
                <polygon id="Fill-219" fill="#231F20" points="272.72 338.23 280.99 338.23 280.99 330.88 272.72 330.88"></polygon>
                <polygon id="Fill-220" fill="#231F20" points="272.72 330.88 280.99 330.88 280.99 323.529 272.72 323.529"></polygon>
                <polygon id="Fill-221" fill="#231F20" points="272.72 323.53 280.99 323.53 280.99 316.18 272.72 316.18"></polygon>
                <polygon id="Fill-222" fill="#231F20" points="272.72 316.18 280.99 316.18 280.99 308.82 272.72 308.82"></polygon>
                <polygon id="Fill-223" fill="#231F20" points="272.72 264.71 280.99 264.71 280.99 257.35 272.72 257.35"></polygon>
                <polygon id="Fill-224" fill="#D7DF23" points="272.72 257.35 280.99 257.35 280.99 250 272.72 250"></polygon>
                <polygon id="Fill-225" fill="#D7DF23" points="272.72 250 280.99 250 280.99 242.649 272.72 242.649"></polygon>
                <polygon id="Fill-226" fill="#231F20" points="272.72 242.65 280.99 242.65 280.99 235.29 272.72 235.29"></polygon>
                <polygon id="Fill-227" fill="#231F20" points="272.72 235.29 280.99 235.29 280.99 227.94 272.72 227.94"></polygon>
                <polygon id="Fill-228" fill="#231F20" points="272.72 161.76 280.99 161.76 280.99 154.409 272.72 154.409"></polygon>
                <polygon id="Fill-229" fill="#231F20" points="272.72 44.12 280.99 44.12 280.99 36.761 272.72 36.761"></polygon>
                <polygon id="Fill-230" fill="#231F20" points="264.459 352.94 272.72 352.94 272.72 345.59 264.459 345.59"></polygon>
                <polygon id="Fill-231" fill="#D7DF23" points="264.459 345.59 272.72 345.59 272.72 338.23 264.459 338.23"></polygon>
                <polygon id="Fill-232" fill="#D7DF23" points="264.459 338.23 272.72 338.23 272.72 330.88 264.459 330.88"></polygon>
                <polygon id="Fill-233" fill="#D7DF23" points="264.459 330.88 272.72 330.88 272.72 323.529 264.459 323.529"></polygon>
                <polygon id="Fill-234" fill="#D7DF23" points="264.459 323.53 272.72 323.53 272.72 316.18 264.459 316.18"></polygon>
                <polygon id="Fill-235" fill="#231F20" points="264.459 316.18 272.72 316.18 272.72 308.82 264.459 308.82"></polygon>
                <polygon id="Fill-236" fill="#231F20" points="264.459 264.71 272.72 264.71 272.72 257.35 264.459 257.35"></polygon>
                <polygon id="Fill-237" fill="#D7DF23" points="264.459 257.35 272.72 257.35 272.72 250 264.459 250"></polygon>
                <polygon id="Fill-238" fill="#231F20" points="264.459 250 272.72 250 272.72 242.649 264.459 242.649"></polygon>
                <polygon id="Fill-239" fill="#231F20" points="264.459 161.76 272.72 161.76 272.72 154.409 264.459 154.409"></polygon>
                <polygon id="Fill-240" fill="#231F20" points="264.459 51.47 272.72 51.47 272.72 44.119 264.459 44.119"></polygon>
                <polygon id="Fill-241" fill="#231F20" points="256.2 352.94 264.46 352.94 264.46 345.59 256.2 345.59"></polygon>
                <polygon id="Fill-242" fill="#D7DF23" points="256.2 345.59 264.46 345.59 264.46 338.23 256.2 338.23"></polygon>
                <polygon id="Fill-243" fill="#D7DF23" points="256.2 338.23 264.46 338.23 264.46 330.88 256.2 330.88"></polygon>
                <polygon id="Fill-244" fill="#D7DF23" points="256.2 330.88 264.46 330.88 264.46 323.529 256.2 323.529"></polygon>
                <polygon id="Fill-245" fill="#D7DF23" points="256.2 323.53 264.46 323.53 264.46 316.18 256.2 316.18"></polygon>
                <polygon id="Fill-246" fill="#231F20" points="256.2 316.18 264.46 316.18 264.46 308.82 256.2 308.82"></polygon>
                <polygon id="Fill-247" fill="#231F20" points="256.2 264.71 264.46 264.71 264.46 257.35 256.2 257.35"></polygon>
                <polygon id="Fill-248" fill="#231F20" points="256.2 257.35 264.46 257.35 264.46 250 256.2 250"></polygon>
                <polygon id="Fill-249" fill="#231F20" points="256.2 154.41 264.46 154.41 264.46 147.06 256.2 147.06"></polygon>
                <polygon id="Fill-250" fill="#231F20" points="256.2 51.47 264.46 51.47 264.46 44.119 256.2 44.119"></polygon>
                <polygon id="Fill-251" fill="#231F20" points="247.93 352.94 256.2 352.94 256.2 345.59 247.93 345.59"></polygon>
                <polygon id="Fill-252" fill="#D7DF23" points="247.93 345.59 256.2 345.59 256.2 338.23 247.93 338.23"></polygon>
                <polygon id="Fill-253" fill="#D7DF23" points="247.93 338.23 256.2 338.23 256.2 330.88 247.93 330.88"></polygon>
                <polygon id="Fill-254" fill="#D7DF23" points="247.93 330.88 256.2 330.88 256.2 323.529 247.93 323.529"></polygon>
                <polygon id="Fill-255" fill="#D7DF23" points="247.93 323.53 256.2 323.53 256.2 316.18 247.93 316.18"></polygon>
                <polygon id="Fill-256" fill="#D7DF23" points="247.93 316.18 256.2 316.18 256.2 308.82 247.93 308.82"></polygon>
                <polygon id="Fill-257" fill="#231F20" points="247.93 308.82 256.2 308.82 256.2 301.47 247.93 301.47"></polygon>
                <polygon id="Fill-258" fill="#231F20" points="247.93 257.35 256.2 257.35 256.2 250 247.93 250"></polygon>
                <polygon id="Fill-259" fill="#231F20" points="247.93 125 256.2 125 256.2 117.649 247.93 117.649"></polygon>
                <polygon id="Fill-260" fill="#231F20" points="247.93 117.65 256.2 117.65 256.2 110.29 247.93 110.29"></polygon>
                <polygon id="Fill-261" fill="#231F20" points="247.93 110.29 256.2 110.29 256.2 102.94 247.93 102.94"></polygon>
                <polygon id="Fill-262" fill="#231F20" points="247.93 51.47 256.2 51.47 256.2 44.119 247.93 44.119"></polygon>
                <polygon id="Fill-263" fill="#231F20" points="239.669 352.94 247.93 352.94 247.93 345.59 239.669 345.59"></polygon>
                <polygon id="Fill-264" fill="#D7DF23" points="239.669 345.59 247.93 345.59 247.93 338.23 239.669 338.23"></polygon>
                <polygon id="Fill-265" fill="#D7DF23" points="239.669 338.23 247.93 338.23 247.93 330.88 239.669 330.88"></polygon>
                <polygon id="Fill-266" fill="#D7DF23" points="239.669 330.88 247.93 330.88 247.93 323.529 239.669 323.529"></polygon>
                <polygon id="Fill-267" fill="#D7DF23" points="239.669 323.53 247.93 323.53 247.93 316.18 239.669 316.18"></polygon>
                <polygon id="Fill-268" fill="#D7DF23" points="239.669 316.18 247.93 316.18 247.93 308.82 239.669 308.82"></polygon>
                <polygon id="Fill-269" fill="#231F20" points="239.669 308.82 247.93 308.82 247.93 301.47 239.669 301.47"></polygon>
                <polygon id="Fill-270" fill="#231F20" points="239.669 257.35 247.93 257.35 247.93 250 239.669 250"></polygon>
                <polygon id="Fill-271" fill="#231F20" points="239.669 132.35 247.93 132.35 247.93 125 239.669 125"></polygon>
                <polygon id="Fill-272" fill="#231F20" points="239.669 125 247.93 125 247.93 117.649 239.669 117.649"></polygon>
                <polygon id="Fill-273" fill="#231F20" points="239.669 117.65 247.93 117.65 247.93 110.29 239.669 110.29"></polygon>
                <polygon id="Fill-274" fill="#231F20" points="239.669 110.29 247.93 110.29 247.93 102.94 239.669 102.94"></polygon>
                <polygon id="Fill-275" fill="#231F20" points="239.669 51.47 247.93 51.47 247.93 44.119 239.669 44.119"></polygon>
                <polygon id="Fill-276" fill="#231F20" points="231.4 352.94 239.67 352.94 239.67 345.59 231.4 345.59"></polygon>
                <polygon id="Fill-277" fill="#231F20" points="231.4 345.59 239.67 345.59 239.67 338.23 231.4 338.23"></polygon>
                <polygon id="Fill-278" fill="#D7DF23" points="231.4 338.23 239.67 338.23 239.67 330.88 231.4 330.88"></polygon>
                <polygon id="Fill-279" fill="#D7DF23" points="231.4 330.88 239.67 330.88 239.67 323.529 231.4 323.529"></polygon>
                <polygon id="Fill-280" fill="#D7DF23" points="231.4 323.53 239.67 323.53 239.67 316.18 231.4 316.18"></polygon>
                <polygon id="Fill-281" fill="#D7DF23" points="231.4 316.18 239.67 316.18 239.67 308.82 231.4 308.82"></polygon>
                <polygon id="Fill-282" fill="#231F20" points="231.4 308.82 239.67 308.82 239.67 301.47 231.4 301.47"></polygon>
                <polygon id="Fill-283" fill="#231F20" points="231.4 257.35 239.67 257.35 239.67 250 231.4 250"></polygon>
                <polygon id="Fill-284" fill="#231F20" points="231.4 132.35 239.67 132.35 239.67 125 231.4 125"></polygon>
                <polygon id="Fill-285" fill="#231F20" points="231.4 125 239.67 125 239.67 117.649 231.4 117.649"></polygon>
                <polygon id="Fill-286" fill="#231F20" points="231.4 117.65 239.67 117.65 239.67 110.29 231.4 110.29"></polygon>
                <polygon id="Fill-287" fill="#231F20" points="231.4 51.47 239.67 51.47 239.67 44.119 231.4 44.119"></polygon>
                <polygon id="Fill-288" fill="#231F20" points="223.14 345.59 231.4 345.59 231.4 338.23 223.14 338.23"></polygon>
                <polygon id="Fill-289" fill="#D7DF23" points="223.14 338.23 231.4 338.23 231.4 330.88 223.14 330.88"></polygon>
                <polygon id="Fill-290" fill="#D7DF23" points="223.14 330.88 231.4 330.88 231.4 323.529 223.14 323.529"></polygon>
                <polygon id="Fill-291" fill="#D7DF23" points="223.14 323.53 231.4 323.53 231.4 316.18 223.14 316.18"></polygon>
                <polygon id="Fill-292" fill="#D7DF23" points="223.14 316.18 231.4 316.18 231.4 308.82 223.14 308.82"></polygon>
                <polygon id="Fill-293" fill="#D7DF23" points="223.14 308.82 231.4 308.82 231.4 301.47 223.14 301.47"></polygon>
                <polygon id="Fill-294" fill="#231F20" points="223.14 301.47 231.4 301.47 231.4 294.119 223.14 294.119"></polygon>
                <polygon id="Fill-295" fill="#231F20" points="223.14 250 231.4 250 231.4 242.649 223.14 242.649"></polygon>
                <polygon id="Fill-296" fill="#231F20" points="223.14 132.35 231.4 132.35 231.4 125 223.14 125"></polygon>
                <polygon id="Fill-297" fill="#231F20" points="223.14 125 231.4 125 231.4 117.649 223.14 117.649"></polygon>
                <polygon id="Fill-298" fill="#231F20" points="223.14 44.12 231.4 44.12 231.4 36.761 223.14 36.761"></polygon>
                <polygon id="Fill-299" fill="#231F20" points="214.869 345.59 223.14 345.59 223.14 338.23 214.869 338.23"></polygon>
                <polygon id="Fill-300" fill="#231F20" points="214.869 338.23 223.14 338.23 223.14 330.88 214.869 330.88"></polygon>
                <polygon id="Fill-301" fill="#D7DF23" points="214.869 330.88 223.14 330.88 223.14 323.529 214.869 323.529"></polygon>
                <polygon id="Fill-302" fill="#D7DF23" points="214.869 323.53 223.14 323.53 223.14 316.18 214.869 316.18"></polygon>
                <polygon id="Fill-303" fill="#D7DF23" points="214.869 316.18 223.14 316.18 223.14 308.82 214.869 308.82"></polygon>
                <polygon id="Fill-304" fill="#D7DF23" points="214.869 308.82 223.14 308.82 223.14 301.47 214.869 301.47"></polygon>
                <polygon id="Fill-305" fill="#231F20" points="214.869 301.47 223.14 301.47 223.14 294.119 214.869 294.119"></polygon>
                <polygon id="Fill-306" fill="#231F20" points="214.869 250 223.14 250 223.14 242.649 214.869 242.649"></polygon>
                <polygon id="Fill-307" fill="#231F20" points="214.869 36.76 223.14 36.76 223.14 29.409 214.869 29.409"></polygon>
                <polygon id="Fill-308" fill="#231F20" points="206.61 338.23 214.87 338.23 214.87 330.88 206.61 330.88"></polygon>
                <polygon id="Fill-309" fill="#231F20" points="206.61 330.88 214.87 330.88 214.87 323.529 206.61 323.529"></polygon>
                <polygon id="Fill-310" fill="#231F20" points="206.61 323.53 214.87 323.53 214.87 316.18 206.61 316.18"></polygon>
                <polygon id="Fill-311" fill="#D7DF23" points="206.61 316.18 214.87 316.18 214.87 308.82 206.61 308.82"></polygon>
                <polygon id="Fill-312" fill="#231F20" points="206.61 308.82 214.87 308.82 214.87 301.47 206.61 301.47"></polygon>
                <polygon id="Fill-313" fill="#231F20" points="206.61 301.47 214.87 301.47 214.87 294.119 206.61 294.119"></polygon>
                <polygon id="Fill-314" fill="#231F20" points="206.61 29.41 214.87 29.41 214.87 22.06 206.61 22.06"></polygon>
                <polygon id="Fill-315" fill="#231F20" points="198.34 323.53 206.61 323.53 206.61 316.18 198.34 316.18"></polygon>
                <polygon id="Fill-316" fill="#231F20" points="198.34 316.18 206.61 316.18 206.61 308.82 198.34 308.82"></polygon>
                <polygon id="Fill-317" fill="#231F20" points="198.34 308.82 206.61 308.82 206.61 301.47 198.34 301.47"></polygon>
                <polygon id="Fill-318" fill="#231F20" points="198.34 294.12 206.61 294.12 206.61 286.761 198.34 286.761"></polygon>
                <polygon id="Fill-319" fill="#231F20" points="198.34 29.41 206.61 29.41 206.61 22.06 198.34 22.06"></polygon>
                <polygon id="Fill-320" fill="#231F20" points="190.079 22.06 198.34 22.06 198.34 14.71 190.079 14.71"></polygon>
                <polygon id="Fill-321" fill="#231F20" points="190.079 14.71 198.34 14.71 198.34 7.35 190.079 7.35"></polygon>
                <polygon id="Fill-322" fill="#231F20" points="181.82 7.35 190.08 7.35 190.08 0.001 181.82 0.001"></polygon>
                <polygon id="Fill-323" fill="#231F20" points="173.55 205.88 181.82 205.88 181.82 198.529 173.55 198.529"></polygon>
                <polygon id="Fill-324" fill="#231F20" points="173.55 198.53 181.82 198.53 181.82 191.18 173.55 191.18"></polygon>
                <polygon id="Fill-325" fill="#231F20" points="173.551 7.35 181.82 7.35 181.82 0.001 173.551 0.001"></polygon>
                <polygon id="Fill-326" fill="#231F20" points="165.289 235.29 173.55 235.29 173.55 227.94 165.289 227.94"></polygon>
                <polygon id="Fill-327" fill="#231F20" points="165.289 227.94 173.55 227.94 173.55 220.59 165.289 220.59"></polygon>
                <polygon id="Fill-328" fill="#231F20" points="165.289 220.59 173.55 220.59 173.55 213.23 165.289 213.23"></polygon>
                <polygon id="Fill-329" fill="#231F20" points="165.289 213.23 173.55 213.23 173.55 205.88 165.289 205.88"></polygon>
                <polygon id="Fill-330" fill="#231F20" points="165.289 198.53 173.55 198.53 173.55 191.18 165.289 191.18"></polygon>
                <polygon id="Fill-331" fill="#231F20" points="165.289 191.18 173.55 191.18 173.55 183.82 165.289 183.82"></polygon>
                <polygon id="Fill-332" fill="#231F20" points="165.289 22.06 173.55 22.06 173.55 14.71 165.289 14.71"></polygon>
                <polygon id="Fill-333" fill="#231F20" points="165.289 14.71 173.55 14.71 173.55 7.35 165.289 7.35"></polygon>
                <polygon id="Fill-334" fill="#231F20" points="157.02 257.35 165.29 257.35 165.29 250 157.02 250"></polygon>
                <polygon id="Fill-335" fill="#231F20" points="157.02 250 165.29 250 165.29 242.649 157.02 242.649"></polygon>
                <polygon id="Fill-336" fill="#231F20" points="157.02 242.65 165.29 242.65 165.29 235.29 157.02 235.29"></polygon>
                <polygon id="Fill-337" fill="#231F20" points="157.02 235.29 165.29 235.29 165.29 227.94 157.02 227.94"></polygon>
                <polygon id="Fill-338" fill="#231F20" points="157.02 183.82 165.29 183.82 165.29 176.47 157.02 176.47"></polygon>
                <polygon id="Fill-339" fill="#231F20" points="157.02 176.47 165.29 176.47 165.29 169.119 157.02 169.119"></polygon>
                <polygon id="Fill-340" fill="#231F20" points="157.02 51.47 165.29 51.47 165.29 44.119 157.02 44.119"></polygon>
                <polygon id="Fill-341" fill="#231F20" points="157.02 44.12 165.29 44.12 165.29 36.761 157.02 36.761"></polygon>
                <polygon id="Fill-342" fill="#231F20" points="157.02 36.76 165.29 36.76 165.29 29.409 157.02 29.409"></polygon>
                <polygon id="Fill-343" fill="#231F20" points="157.02 29.41 165.29 29.41 165.29 22.06 157.02 22.06"></polygon>
                <polygon id="Fill-344" fill="#231F20" points="148.76 294.12 157.02 294.12 157.02 286.761 148.76 286.761"></polygon>
                <polygon id="Fill-345" fill="#231F20" points="148.76 286.76 157.02 286.76 157.02 279.409 148.76 279.409"></polygon>
                <polygon id="Fill-346" fill="#231F20" points="148.76 279.41 157.02 279.41 157.02 272.06 148.76 272.06"></polygon>
                <polygon id="Fill-347" fill="#231F20" points="148.76 272.06 157.02 272.06 157.02 264.71 148.76 264.71"></polygon>
                <polygon id="Fill-348" fill="#231F20" points="148.76 264.71 157.02 264.71 157.02 257.35 148.76 257.35"></polygon>
                <polygon id="Fill-349" fill="#231F20" points="148.76 257.35 157.02 257.35 157.02 250 148.76 250"></polygon>
                <polygon id="Fill-350" fill="#231F20" points="148.76 169.12 157.02 169.12 157.02 161.761 148.76 161.761"></polygon>
                <polygon id="Fill-351" fill="#231F20" points="148.76 161.76 157.02 161.76 157.02 154.409 148.76 154.409"></polygon>
                <polygon id="Fill-352" fill="#231F20" points="148.76 154.41 157.02 154.41 157.02 147.06 148.76 147.06"></polygon>
                <polygon id="Fill-353" fill="#231F20" points="148.76 80.88 157.02 80.88 157.02 73.529 148.76 73.529"></polygon>
                <polygon id="Fill-354" fill="#231F20" points="148.76 73.53 157.02 73.53 157.02 66.18 148.76 66.18"></polygon>
                <polygon id="Fill-355" fill="#231F20" points="148.76 66.18 157.02 66.18 157.02 58.82 148.76 58.82"></polygon>
                <polygon id="Fill-356" fill="#231F20" points="148.76 58.82 157.02 58.82 157.02 51.47 148.76 51.47"></polygon>
                <polygon id="Fill-357" fill="#231F20" points="140.49 367.65 148.76 367.65 148.76 360.29 140.49 360.29"></polygon>
                <polygon id="Fill-358" fill="#231F20" points="140.489 338.23 148.76 338.23 148.76 330.88 140.489 330.88"></polygon>
                <polygon id="Fill-359" fill="#231F20" points="140.489 330.88 148.76 330.88 148.76 323.529 140.489 323.529"></polygon>
                <polygon id="Fill-360" fill="#231F20" points="140.489 323.53 148.76 323.53 148.76 316.18 140.489 316.18"></polygon>
                <polygon id="Fill-361" fill="#231F20" points="140.489 316.18 148.76 316.18 148.76 308.82 140.489 308.82"></polygon>
                <polygon id="Fill-362" fill="#231F20" points="140.489 308.82 148.76 308.82 148.76 301.47 140.489 301.47"></polygon>
                <polygon id="Fill-363" fill="#231F20" points="140.489 301.47 148.76 301.47 148.76 294.119 140.489 294.119"></polygon>
                <polygon id="Fill-364" fill="#231F20" points="140.489 294.12 148.76 294.12 148.76 286.761 140.489 286.761"></polygon>
                <polygon id="Fill-365" fill="#231F20" points="140.489 154.41 148.76 154.41 148.76 147.06 140.489 147.06"></polygon>
                <polygon id="Fill-366" fill="#231F20" points="140.489 147.06 148.76 147.06 148.76 139.71 140.489 139.71"></polygon>
                <polygon id="Fill-367" fill="#231F20" points="140.489 139.71 148.76 139.71 148.76 132.35 140.489 132.35"></polygon>
                <polygon id="Fill-368" fill="#231F20" points="140.489 132.35 148.76 132.35 148.76 125 140.489 125"></polygon>
                <polygon id="Fill-369" fill="#231F20" points="140.489 125 148.76 125 148.76 117.649 140.489 117.649"></polygon>
                <polygon id="Fill-370" fill="#231F20" points="140.489 117.65 148.76 117.65 148.76 110.29 140.489 110.29"></polygon>
                <polygon id="Fill-371" fill="#231F20" points="140.489 110.29 148.76 110.29 148.76 102.94 140.489 102.94"></polygon>
                <polygon id="Fill-372" fill="#231F20" points="140.489 102.94 148.76 102.94 148.76 95.59 140.489 95.59"></polygon>
                <polygon id="Fill-373" fill="#231F20" points="140.489 95.59 148.76 95.59 148.76 88.23 140.489 88.23"></polygon>
                <polygon id="Fill-374" fill="#231F20" points="140.489 88.23 148.76 88.23 148.76 80.88 140.489 80.88"></polygon>
                <polygon id="Fill-375" fill="#231F20" points="132.23 323.53 140.49 323.53 140.49 316.18 132.23 316.18"></polygon>
                <polygon id="Fill-376" fill="#231F20" points="132.23 198.53 140.49 198.53 140.49 191.18 132.23 191.18"></polygon>
                <polygon id="Fill-377" fill="#231F20" points="132.23 191.18 140.49 191.18 140.49 183.82 132.23 183.82"></polygon>
                <polygon id="Fill-378" fill="#231F20" points="132.23 183.82 140.49 183.82 140.49 176.47 132.23 176.47"></polygon>
                <polygon id="Fill-379" fill="#231F20" points="132.23 176.47 140.49 176.47 140.49 169.119 132.23 169.119"></polygon>
                <polygon id="Fill-380" fill="#231F20" points="123.96 323.53 132.23 323.53 132.23 316.18 123.96 316.18"></polygon>
                <polygon id="Fill-381" fill="#231F20" points="123.96 316.18 132.23 316.18 132.23 308.82 123.96 308.82"></polygon>
                <polygon id="Fill-382" fill="#231F20" points="123.96 205.88 132.23 205.88 132.23 198.529 123.96 198.529"></polygon>
                <polygon id="Fill-383" fill="#231F20" points="123.96 176.47 132.23 176.47 132.23 169.119 123.96 169.119"></polygon>
                <polygon id="Fill-384" fill="#231F20" points="123.96 169.12 132.23 169.12 132.23 161.761 123.96 161.761"></polygon>
                <polygon id="Fill-385" fill="#231F20" points="115.7 367.65 123.96 367.65 123.96 360.29 115.7 360.29"></polygon>
                <polygon id="Fill-386" fill="#231F20" points="115.7 308.82 123.96 308.82 123.96 301.47 115.7 301.47"></polygon>
                <polygon id="Fill-387" fill="#231F20" points="115.7 205.88 123.96 205.88 123.96 198.529 115.7 198.529"></polygon>
                <polygon id="Fill-388" fill="#231F20" points="115.7 169.12 123.96 169.12 123.96 161.761 115.7 161.761"></polygon>
                <polygon id="Fill-389" fill="#231F20" points="107.44 367.65 115.699 367.65 115.699 360.29 107.44 360.29"></polygon>
                <polygon id="Fill-390" fill="#231F20" points="107.44 308.82 115.7 308.82 115.7 301.47 107.44 301.47"></polygon>
                <polygon id="Fill-391" fill="#231F20" points="107.44 301.47 115.7 301.47 115.7 294.119 107.44 294.119"></polygon>
                <polygon id="Fill-392" fill="#231F20" points="107.44 205.88 115.7 205.88 115.7 198.529 107.44 198.529"></polygon>
                <polygon id="Fill-393" fill="#231F20" points="107.44 169.12 115.7 169.12 115.7 161.761 107.44 161.761"></polygon>
                <polygon id="Fill-394" fill="#231F20" points="99.169 360.29 107.44 360.29 107.44 352.94 99.169 352.94"></polygon>
                <polygon id="Fill-395" fill="#231F20" points="99.169 294.12 107.44 294.12 107.44 286.761 99.169 286.761"></polygon>
                <polygon id="Fill-396" fill="#231F20" points="99.169 213.23 107.44 213.23 107.44 205.88 99.169 205.88"></polygon>
                <polygon id="Fill-397" fill="#231F20" points="99.169 169.12 107.44 169.12 107.44 161.761 99.169 161.761"></polygon>
                <polygon id="Fill-398" fill="#231F20" points="90.91 352.94 99.17 352.94 99.17 345.59 90.91 345.59"></polygon>
                <polygon id="Fill-399" fill="#231F20" points="90.91 294.12 99.17 294.12 99.17 286.761 90.91 286.761"></polygon>
                <polygon id="Fill-400" fill="#231F20" points="90.91 286.76 99.17 286.76 99.17 279.409 90.91 279.409"></polygon>
                <polygon id="Fill-401" fill="#231F20" points="90.91 279.41 99.17 279.41 99.17 272.06 90.91 272.06"></polygon>
                <polygon id="Fill-402" fill="#231F20" points="90.91 213.23 99.17 213.23 99.17 205.88 90.91 205.88"></polygon>
                <polygon id="Fill-403" fill="#231F20" points="90.91 169.12 99.17 169.12 99.17 161.761 90.91 161.761"></polygon>
                <polygon id="Fill-404" fill="#231F20" points="82.64 345.59 90.91 345.59 90.91 338.23 82.64 338.23"></polygon>
                <polygon id="Fill-405" fill="#231F20" points="82.64 338.23 90.91 338.23 90.91 330.88 82.64 330.88"></polygon>
                <polygon id="Fill-406" fill="#231F20" points="82.64 279.41 90.91 279.41 90.91 272.06 82.64 272.06"></polygon>
                <polygon id="Fill-407" fill="#231F20" points="82.64 272.06 90.91 272.06 90.91 264.71 82.64 264.71"></polygon>
                <polygon id="Fill-408" fill="#231F20" points="82.64 264.71 90.91 264.71 90.91 257.35 82.64 257.35"></polygon>
                <polygon id="Fill-409" fill="#231F20" points="82.64 257.35 90.91 257.35 90.91 250 82.64 250"></polygon>
                <polygon id="Fill-410" fill="#231F20" points="82.64 235.29 90.91 235.29 90.91 227.94 82.64 227.94"></polygon>
                <polygon id="Fill-411" fill="#231F20" points="82.64 227.94 90.91 227.94 90.91 220.59 82.64 220.59"></polygon>
                <polygon id="Fill-412" fill="#231F20" points="82.64 220.59 90.91 220.59 90.91 213.23 82.64 213.23"></polygon>
                <polygon id="Fill-413" fill="#231F20" points="82.64 169.12 90.91 169.12 90.91 161.761 82.64 161.761"></polygon>
                <polygon id="Fill-414" fill="#231F20" points="74.38 338.23 82.64 338.23 82.64 330.88 74.38 330.88"></polygon>
                <polygon id="Fill-415" fill="#231F20" points="74.38 257.35 82.64 257.35 82.64 250 74.38 250"></polygon>
                <polygon id="Fill-416" fill="#231F20" points="74.38 250 82.64 250 82.64 242.649 74.38 242.649"></polygon>
                <polygon id="Fill-417" fill="#231F20" points="74.38 242.65 82.64 242.65 82.64 235.29 74.38 235.29"></polygon>
                <polygon id="Fill-418" fill="#231F20" points="74.38 235.29 82.64 235.29 82.64 227.94 74.38 227.94"></polygon>
                <polygon id="Fill-419" fill="#231F20" points="74.38 176.47 82.64 176.47 82.64 169.119 74.38 169.119"></polygon>
                <polygon id="Fill-420" fill="#231F20" points="66.109 330.88 74.38 330.88 74.38 323.529 66.109 323.529"></polygon>
                <polygon id="Fill-421" fill="#231F20" points="66.109 323.53 74.38 323.53 74.38 316.18 66.109 316.18"></polygon>
                <polygon id="Fill-422" fill="#231F20" points="66.109 176.47 74.38 176.47 74.38 169.119 66.109 169.119"></polygon>
                <polygon id="Fill-423" fill="#231F20" points="57.85 323.53 66.11 323.53 66.11 316.18 57.85 316.18"></polygon>
                <polygon id="Fill-424" fill="#231F20" points="57.85 316.18 66.11 316.18 66.11 308.82 57.85 308.82"></polygon>
                <polygon id="Fill-425" fill="#231F20" points="57.85 308.82 66.11 308.82 66.11 301.47 57.85 301.47"></polygon>
                <polygon id="Fill-426" fill="#231F20" points="57.85 191.18 66.11 191.18 66.11 183.82 57.85 183.82"></polygon>
                <polygon id="Fill-427" fill="#231F20" points="57.85 183.82 66.11 183.82 66.11 176.47 57.85 176.47"></polygon>
                <polygon id="Fill-428" fill="#231F20" points="49.579 301.47 57.85 301.47 57.85 294.119 49.579 294.119"></polygon>
                <polygon id="Fill-429" fill="#231F20" points="49.579 294.12 57.85 294.12 57.85 286.761 49.579 286.761"></polygon>
                <polygon id="Fill-430" fill="#231F20" points="49.579 198.53 57.85 198.53 57.85 191.18 49.579 191.18"></polygon>
                <polygon id="Fill-431" fill="#231F20" points="49.579 191.18 57.85 191.18 57.85 183.82 49.579 183.82"></polygon>
                <polygon id="Fill-432" fill="#808285" points="49.579 147.06 57.85 147.06 57.85 139.71 49.579 139.71"></polygon>
                <polygon id="Fill-433" fill="#231F20" points="41.32 294.12 49.58 294.12 49.58 286.761 41.32 286.761"></polygon>
                <polygon id="Fill-434" fill="#231F20" points="41.32 286.76 49.58 286.76 49.58 279.409 41.32 279.409"></polygon>
                <polygon id="Fill-435" fill="#231F20" points="41.32 279.41 49.58 279.41 49.58 272.06 41.32 272.06"></polygon>
                <path d="M396.6903,7.3503 L388.4303,7.3503 L388.4303,14.7103 L380.1603,14.7103 L380.1603,22.0603 L371.8993,22.0603 L371.8993,29.4093 L363.6293,29.4093 L363.6293,36.7603 L355.3693,36.7603 L355.3693,44.1203 L347.1003,44.1203 L338.8403,44.1203 L330.5803,44.1203 L322.3093,44.1203 L314.0493,44.1203 L305.7793,44.1203 L297.5203,44.1203 L289.2513,44.1203 L280.9903,44.1203 L272.7203,44.1203 L272.7203,51.4703 L264.4593,51.4703 L256.1993,51.4703 L247.9303,51.4703 L239.6713,51.4703 L231.4003,51.4703 L231.4003,44.1203 L223.1403,44.1203 L223.1403,36.7603 L214.8693,36.7603 L214.8693,29.4093 L206.6103,29.4093 L198.3403,29.4093 L198.3403,22.0603 L190.0803,22.0603 L190.0803,14.7103 L190.0803,7.3503 L181.8193,7.3503 L173.5493,7.3503 L173.5493,14.7103 L173.5493,22.0603 L165.2893,22.0603 L165.2893,29.4093 L165.2893,36.7603 L165.2893,44.1203 L165.2893,51.4703 L157.0203,51.4703 L157.0203,58.8193 L157.0203,66.1803 L157.0203,73.5303 L157.0203,80.8803 L148.7603,80.8803 L148.7603,88.2293 L148.7603,95.5893 L148.7603,102.9403 L148.7603,110.2903 L148.7603,117.6493 L148.7603,124.9993 L148.7603,132.3503 L148.7603,139.7103 L148.7603,147.0603 L157.0203,147.0603 L157.0203,154.4093 L157.0203,161.7603 L157.0203,169.1203 L165.2893,169.1203 L165.2893,176.4703 L165.2893,183.8193 L173.5493,183.8193 L173.5493,191.1793 L181.8193,191.1793 L181.8193,198.5303 L181.8193,205.8803 L173.5493,205.8803 L173.5493,213.2293 L173.5493,220.5893 L173.5493,227.9403 L173.5493,235.2903 L165.2893,235.2903 L165.2893,242.6503 L165.2893,249.9993 L165.2893,257.3503 L157.0203,257.3503 L157.0203,264.7103 L157.0203,272.0603 L157.0203,279.4093 L157.0203,286.7603 L157.0203,294.1213 L148.7603,294.1213 L148.7603,301.4703 L148.7603,308.8193 L148.7603,316.1803 L148.7603,323.5303 L148.7603,330.8803 L148.7603,338.2303 L140.4903,338.2303 L140.4903,330.8803 L140.4903,323.5303 L132.2293,323.5303 L123.9593,323.5303 L123.9593,316.1803 L123.9593,308.8193 L115.6993,308.8193 L107.4403,308.8193 L107.4403,301.4703 L107.4403,294.1213 L99.1703,294.1213 L90.9103,294.1213 L90.9103,286.7603 L90.9103,279.4093 L82.6393,279.4093 L82.6393,272.0603 L82.6393,264.7103 L82.6393,257.3503 L74.3793,257.3503 L74.3793,249.9993 L74.3793,242.6503 L74.3793,235.2903 L74.3793,227.9403 L82.6393,227.9403 L82.6393,220.5893 L82.6393,213.2293 L90.9103,213.2293 L90.9103,205.8803 L99.1703,205.8803 L107.4403,205.8803 L107.4403,198.5303 L115.6993,198.5303 L123.9593,198.5303 L132.2293,198.5303 L132.2293,191.1793 L132.2293,183.8193 L132.2293,176.4703 L123.9593,176.4703 L123.9593,169.1203 L115.6993,169.1203 L107.4403,169.1203 L99.1703,169.1203 L90.9103,169.1203 L82.6393,169.1203 L82.6393,176.4703 L74.3793,176.4703 L66.1093,176.4703 L66.1093,183.8193 L66.1093,191.1793 L57.8503,191.1793 L57.8503,198.5303 L49.5803,198.5303 L49.5803,205.8803 L49.5803,213.2293 L49.5803,220.5893 L41.3203,220.5893 L41.3203,227.9403 L41.3203,235.2903 L41.3203,242.6503 L41.3203,249.9993 L41.3203,257.3503 L41.3203,264.7103 L41.3203,272.0603 L49.5803,272.0603 L49.5803,279.4093 L49.5803,286.7603 L57.8503,286.7603 L57.8503,294.1213 L57.8503,301.4703 L66.1093,301.4703 L66.1093,308.8193 L66.1093,316.1803 L74.3793,316.1803 L74.3793,323.5303 L74.3793,330.8803 L82.6393,330.8803 L90.9103,330.8803 L90.9103,338.2303 L90.9103,345.5893 L99.1703,345.5893 L99.1703,352.9393 L107.4403,352.9393 L107.4403,360.2903 L115.6993,360.2903 L123.9593,360.2903 L123.9593,367.6503 L132.2293,367.6503 L140.4903,367.6503 L140.4903,360.2903 L148.7603,360.2903 L148.7603,367.6503 L157.0203,367.6503 L165.2893,367.6503 L173.5493,367.6503 L181.8193,367.6503 L190.0803,367.6503 L198.3403,367.6503 L206.6103,367.6503 L214.8693,367.6503 L223.1403,367.6503 L231.4003,367.6503 L239.6713,367.6503 L247.9303,367.6503 L256.1993,367.6503 L264.4593,367.6503 L272.7203,367.6503 L280.9903,367.6503 L289.2513,367.6503 L297.5203,367.6503 L305.7793,367.6503 L314.0493,367.6503 L322.3093,367.6503 L330.5803,367.6503 L338.8403,367.6503 L347.1003,367.6503 L355.3693,367.6503 L363.6293,367.6503 L371.8993,367.6503 L380.1603,367.6503 L388.4303,367.6503 L396.6903,367.6503 L404.9593,367.6503 L413.2193,367.6503 L413.2193,360.2903 L413.2193,352.9393 L413.2193,345.5893 L413.2193,338.2303 L413.2193,330.8803 L421.4803,330.8803 L421.4803,323.5303 L421.4803,316.1803 L421.4803,308.8193 L421.4803,301.4703 L421.4803,294.1213 L421.4803,286.7603 L421.4803,279.4093 L413.2193,279.4093 L404.9593,279.4093 L404.9593,272.0603 L413.2193,272.0603 L413.2193,264.7103 L421.4803,264.7103 L429.7513,264.7103 L429.7513,257.3503 L429.7513,249.9993 L438.0103,249.9993 L446.2803,249.9993 L446.2803,242.6503 L454.5393,242.6503 L454.5393,235.2903 L462.8093,235.2903 L462.8093,227.9403 L462.8093,220.5893 L471.0703,220.5893 L471.0703,213.2293 L471.0703,205.8803 L471.0703,198.5303 L471.0703,191.1793 L462.8093,191.1793 L454.5393,191.1793 L446.2803,191.1793 L438.0103,191.1793 L438.0103,198.5303 L429.7513,198.5303 L421.4803,198.5303 L421.4803,205.8803 L413.2193,205.8803 L413.2193,213.2293 L404.9593,213.2293 L404.9593,220.5893 L396.6903,220.5893 L396.6903,213.2293 L396.6903,205.8803 L404.9593,205.8803 L404.9593,198.5303 L404.9593,191.1793 L404.9593,183.8193 L413.2193,183.8193 L413.2193,176.4703 L413.2193,169.1203 L421.4803,169.1203 L429.7513,169.1203 L429.7513,161.7603 L429.7513,154.4093 L438.0103,154.4093 L438.0103,147.0603 L438.0103,139.7103 L438.0103,132.3503 L438.0103,124.9993 L429.7513,124.9993 L429.7513,117.6493 L429.7513,110.2903 L429.7513,102.9403 L429.7513,95.5893 L429.7513,88.2293 L421.4803,88.2293 L421.4803,80.8803 L421.4803,73.5303 L413.2193,73.5303 L413.2193,66.1803 L413.2193,58.8193 L413.2193,51.4703 L413.2193,44.1203 L413.2193,36.7603 L413.2193,29.4093 L413.2193,22.0603 L404.9593,22.0603 L404.9593,14.7103 L404.9593,7.3503 L396.6903,7.3503 Z M338.8403,102.9403 L338.8403,95.5893 L338.8403,88.2293 L347.1003,88.2293 L355.3693,88.2293 L355.3693,95.5893 L363.6293,95.5893 L363.6293,102.9403 L371.8993,102.9403 L371.8993,110.2903 L371.8993,117.6493 L363.6293,117.6493 L363.6293,124.9993 L355.3693,124.9993 L355.3693,117.6493 L347.1003,117.6493 L347.1003,110.2903 L338.8403,110.2903 L338.8403,102.9403 Z M223.1403,124.9993 L223.1403,117.6493 L231.4003,117.6493 L231.4003,110.2903 L239.6713,110.2903 L239.6713,102.9403 L247.9303,102.9403 L256.1993,102.9403 L256.1993,110.2903 L256.1993,117.6493 L256.1993,124.9993 L247.9303,124.9993 L247.9303,132.3503 L239.6713,132.3503 L231.4003,132.3503 L223.1403,132.3503 L223.1403,124.9993 Z M272.7203,154.4093 L280.9903,154.4093 L289.2513,154.4093 L289.2513,147.0603 L297.5203,147.0603 L297.5203,139.7103 L297.5203,132.3503 L305.7793,132.3503 L305.7793,139.7103 L314.0493,139.7103 L314.0493,147.0603 L314.0493,154.4093 L322.3093,154.4093 L330.5803,154.4093 L330.5803,147.0603 L338.8403,147.0603 L338.8403,154.4093 L338.8403,161.7603 L330.5803,161.7603 L322.3093,161.7603 L322.3093,169.1203 L322.3093,176.4703 L314.0493,176.4703 L314.0493,183.8193 L305.7793,183.8193 L297.5203,183.8193 L297.5203,176.4703 L297.5203,169.1203 L289.2513,169.1203 L289.2513,161.7603 L280.9903,161.7603 L272.7203,161.7603 L264.4593,161.7603 L264.4593,154.4093 L256.1993,154.4093 L256.1993,147.0603 L264.4593,147.0603 L264.4593,154.4093 L272.7203,154.4093 Z M438.0103,205.8803 L446.2803,205.8803 L446.2803,198.5303 L454.5393,198.5303 L454.5393,205.8803 L462.8093,205.8803 L462.8093,213.2293 L454.5393,213.2293 L454.5393,220.5893 L446.2803,220.5893 L446.2803,213.2293 L438.0103,213.2293 L438.0103,205.8803 Z M239.6713,249.9993 L247.9303,249.9993 L256.1993,249.9993 L264.4593,249.9993 L264.4593,242.6503 L272.7203,242.6503 L272.7203,235.2903 L272.7203,227.9403 L280.9903,227.9403 L289.2513,227.9403 L297.5203,227.9403 L297.5203,235.2903 L305.7793,235.2903 L305.7793,242.6503 L314.0493,242.6503 L314.0493,249.9993 L314.0493,257.3503 L305.7793,257.3503 L305.7793,264.7103 L305.7793,272.0603 L297.5203,272.0603 L297.5203,279.4093 L289.2513,279.4093 L289.2513,272.0603 L280.9903,272.0603 L280.9903,264.7103 L272.7203,264.7103 L264.4593,264.7103 L256.1993,264.7103 L256.1993,257.3503 L247.9303,257.3503 L239.6713,257.3503 L231.4003,257.3503 L231.4003,249.9993 L223.1403,249.9993 L214.8693,249.9993 L214.8693,242.6503 L223.1403,242.6503 L231.4003,242.6503 L231.4003,249.9993 L239.6713,249.9993 Z M305.7793,279.4093 L305.7793,286.7603 L305.7793,294.1213 L305.7793,301.4703 L297.5203,301.4703 L297.5203,308.8193 L289.2513,308.8193 L280.9903,308.8193 L280.9903,316.1803 L280.9903,323.5303 L280.9903,330.8803 L280.9903,338.2303 L280.9903,345.5893 L280.9903,352.9393 L272.7203,352.9393 L264.4593,352.9393 L256.1993,352.9393 L247.9303,352.9393 L239.6713,352.9393 L231.4003,352.9393 L231.4003,345.5893 L223.1403,345.5893 L214.8693,345.5893 L214.8693,338.2303 L206.6103,338.2303 L206.6103,330.8803 L206.6103,323.5303 L198.3403,323.5303 L198.3403,316.1803 L198.3403,308.8193 L198.3403,301.4703 L206.6103,301.4703 L206.6103,294.1213 L198.3403,294.1213 L198.3403,286.7603 L206.6103,286.7603 L206.6103,294.1213 L214.8693,294.1213 L223.1403,294.1213 L231.4003,294.1213 L231.4003,301.4703 L239.6713,301.4703 L247.9303,301.4703 L256.1993,301.4703 L256.1993,308.8193 L264.4593,308.8193 L272.7203,308.8193 L280.9903,308.8193 L280.9903,301.4703 L289.2513,301.4703 L297.5203,301.4703 L297.5203,294.1213 L297.5203,286.7603 L297.5203,279.4093 L305.7793,279.4093 Z" id="Fill-436" fill="#FFFFFF"></path>
                <polygon id="Fill-437" fill="#FFFFFF" points="446.28 213.23 454.54 213.23 454.54 205.88 446.28 205.88"></polygon>
                <polygon id="Fill-438" fill="#FFFFFF" points="280.9898 235.2905 280.9898 242.6495 289.2508 242.6495 297.5198 242.6495 297.5198 235.2905 289.2508 235.2905"></polygon>
                <polygon id="Fill-439" fill="#231F20" points="41.32 220.59 49.58 220.59 49.58 213.23 41.32 213.23"></polygon>
                <polygon id="Fill-440" fill="#231F20" points="41.32 213.23 49.58 213.23 49.58 205.88 41.32 205.88"></polygon>
                <polygon id="Fill-441" fill="#231F20" points="41.32 205.88 49.58 205.88 49.58 198.529 41.32 198.529"></polygon>
                <polygon id="Fill-442" fill="#808285" points="41.32 154.41 49.58 154.41 49.58 147.06 41.32 147.06"></polygon>
                <polygon id="Fill-443" fill="#808285" points="41.32 147.06 49.58 147.06 49.58 139.71 41.32 139.71"></polygon>
                <polygon id="Fill-444" fill="#231F20" points="33.06 272.06 41.32 272.06 41.32 264.71 33.06 264.71"></polygon>
                <polygon id="Fill-445" fill="#231F20" points="33.06 264.71 41.32 264.71 41.32 257.35 33.06 257.35"></polygon>
                <polygon id="Fill-446" fill="#231F20" points="33.06 257.35 41.32 257.35 41.32 250 33.06 250"></polygon>
                <polygon id="Fill-447" fill="#231F20" points="33.06 250 41.32 250 41.32 242.649 33.06 242.649"></polygon>
                <polygon id="Fill-448" fill="#231F20" points="33.06 242.65 41.32 242.65 41.32 235.29 33.06 235.29"></polygon>
                <polygon id="Fill-449" fill="#231F20" points="33.06 235.29 41.32 235.29 41.32 227.94 33.06 227.94"></polygon>
                <polygon id="Fill-450" fill="#231F20" points="33.06 227.94 41.32 227.94 41.32 220.59 33.06 220.59"></polygon>
                <polygon id="Fill-451" fill="#808285" points="33.06 154.41 41.32 154.41 41.32 147.06 33.06 147.06"></polygon>
                <polygon id="Fill-452" fill="#808285" points="33.06 132.35 41.32 132.35 41.32 125 33.06 125"></polygon>
                <polygon id="Fill-453" fill="#808285" points="24.789 169.12 33.06 169.12 33.06 161.761 24.789 161.761"></polygon>
                <polygon id="Fill-454" fill="#808285" points="24.789 161.76 33.06 161.76 33.06 154.409 24.789 154.409"></polygon>
                <polygon id="Fill-455" fill="#808285" points="24.789 132.35 33.06 132.35 33.06 125 24.789 125"></polygon>
                <polygon id="Fill-456" fill="#808285" points="16.53 183.82 24.79 183.82 24.79 176.47 16.53 176.47"></polygon>
                <polygon id="Fill-457" fill="#808285" points="16.53 176.47 24.79 176.47 24.79 169.119 16.53 169.119"></polygon>
                <polygon id="Fill-458" fill="#808285" points="16.53 169.12 24.79 169.12 24.79 161.761 16.53 161.761"></polygon>
                <polygon id="Fill-459" fill="#808285" points="16.53 139.71 24.79 139.71 24.79 132.35 16.53 132.35"></polygon>
                <polygon id="Fill-460" fill="#808285" points="16.53 132.35 24.79 132.35 24.79 125 16.53 125"></polygon>
                <polygon id="Fill-461" fill="#808285" points="8.26 147.06 16.53 147.06 16.53 139.71 8.26 139.71"></polygon>
                <polygon id="Fill-462" fill="#808285" points="8.26 139.71 16.53 139.71 16.53 132.35 8.26 132.35"></polygon>
                <polygon id="Fill-463" fill="#808285" points="0 154.409 8.26 154.409 8.26 147.06 0 147.06"></polygon>
                <polygon id="Fill-464" fill="#808285" points="0 147.06 8.26 147.06 8.26 139.711 0 139.711"></polygon>
            </g>
        </g>
    </g>
</svg>