<?xml version="1.0" encoding="UTF-8"?>
<svg width="106px" height="96px" viewBox="0 0 106 96" version="1.1" xmlns="http://www.w3.org/2000/svg" xmlns:xlink="http://www.w3.org/1999/xlink">
    <!-- Generator: sketchtool 49.3 (51167) - http://www.bohemiancoding.com/sketch -->
    <title>B9D6323E-1398-4251-8BEF-780CCA0EF872</title>
    <desc>Created with sketchtool.</desc>
    <defs></defs>
    <g id="Page-1" stroke="none" stroke-width="1" fill="none" fill-rule="evenodd">
        <g id="Market" transform="translate(-1264.000000, -107.000000)">
            <g id="Cart" transform="translate(1199.000000, 61.000000)">
                <g id="title_cart" transform="translate(65.000000, 46.000000)">
                    <g id="img_cat">
                        <polygon id="Fill-1" fill="#FC8677" points="55.0665 40.0484 55.0665 37.5454 52.5645 37.5454 52.5645 35.0424 50.0615 35.0424 50.0615 37.5454 47.5575 37.5454 47.5575 40.0484 50.0615 40.0484 50.0615 42.5524 50.0615 45.0554 52.5645 45.0554 55.0665 45.0554 55.0665 42.5524 57.5695 42.5524 57.5695 40.0484"></polygon>
                        <path d="M32.5402,30.0357 L32.5402,27.5327 L35.0442,27.5327 L35.0442,25.0307 L37.5452,25.0307 L40.0492,25.0307 L40.0492,27.5327 L40.0492,30.0357 L37.5452,30.0357 L37.5452,32.5387 L35.0442,32.5387 L32.5402,32.5387 L32.5402,30.0357 Z M50.0612,42.5527 L50.0612,40.0487 L47.5582,40.0487 L45.0552,40.0487 L42.5522,40.0487 L42.5522,37.5457 L42.5522,35.0427 L45.0552,35.0427 L45.0552,37.5457 L47.5582,37.5457 L47.5582,35.0427 L50.0612,35.0427 L50.0612,32.5387 L52.5642,32.5387 L52.5642,35.0427 L55.0662,35.0427 L55.0662,37.5457 L57.5692,37.5457 L60.0732,37.5457 L60.0732,35.0427 L62.5762,35.0427 L62.5762,37.5457 L60.0732,37.5457 L60.0732,40.0487 L57.5692,40.0487 L57.5692,42.5527 L55.0662,42.5527 L55.0662,45.0557 L52.5642,45.0557 L50.0612,45.0557 L50.0612,42.5527 Z M67.5832,27.5327 L67.5832,30.0357 L65.0792,30.0357 L62.5762,30.0357 L62.5762,27.5327 L60.0732,27.5327 L60.0732,25.0307 L60.0732,22.5277 L62.5762,22.5277 L65.0792,22.5277 L65.0792,25.0307 L67.5832,25.0307 L67.5832,27.5327 Z M82.6012,22.5277 L82.6012,20.0237 L82.6012,17.5207 L80.0972,17.5207 L80.0972,15.0177 L80.0972,12.5147 L80.0972,10.0117 L80.0972,7.5097 L80.0972,5.0067 L77.5942,5.0067 L77.5942,2.5037 L75.0912,2.5037 L72.5872,2.5037 L72.5872,5.0067 L70.0862,5.0067 L70.0862,7.5097 L67.5832,7.5097 L67.5832,10.0117 L65.0792,10.0117 L62.5762,10.0117 L60.0732,10.0117 L57.5692,10.0117 L55.0662,10.0117 L52.5642,10.0117 L50.0612,10.0117 L47.5582,10.0117 L45.0552,10.0117 L45.0552,12.5147 L42.5522,12.5147 L40.0492,12.5147 L37.5452,12.5147 L35.0442,12.5147 L32.5402,12.5147 L32.5402,10.0117 L30.0372,10.0117 L30.0372,7.5097 L27.5342,7.5097 L27.5342,5.0067 L25.0302,5.0067 L22.5272,5.0067 L22.5272,7.5097 L22.5272,10.0117 L20.0242,10.0117 L20.0242,12.5147 L20.0242,15.0177 L20.0242,17.5207 L20.0242,20.0237 L22.5272,20.0237 L22.5272,22.5277 L22.5272,25.0307 L20.0242,25.0307 L20.0242,27.5327 L17.5202,27.5327 L17.5202,30.0357 L17.5202,32.5387 L20.0242,32.5387 L22.5272,32.5387 L25.0302,32.5387 L27.5342,32.5387 L27.5342,35.0427 L25.0302,35.0427 L22.5272,35.0427 L20.0242,35.0427 L17.5202,35.0427 L17.5202,37.5457 L20.0242,37.5457 L22.5272,37.5457 L25.0302,37.5457 L27.5342,37.5457 L27.5342,40.0487 L25.0302,40.0487 L22.5272,40.0487 L20.0242,40.0487 L20.0242,42.5527 L22.5272,42.5527 L22.5272,45.0557 L22.5272,47.5567 L25.0302,47.5567 L27.5342,47.5567 L27.5342,50.0597 L27.5342,52.5627 L30.0372,52.5627 L32.5402,52.5627 L35.0442,52.5627 L37.5452,52.5627 L40.0492,52.5627 L42.5522,52.5627 L45.0552,52.5627 L47.5582,52.5627 L50.0612,52.5627 L52.5642,52.5627 L55.0662,52.5627 L57.5692,52.5627 L60.0732,52.5627 L62.5762,52.5627 L65.0792,52.5627 L67.5832,52.5627 L70.0862,52.5627 L72.5872,52.5627 L75.0912,52.5627 L77.5942,52.5627 L80.0972,52.5627 L80.0972,50.0597 L80.0972,47.5567 L80.0972,45.0557 L82.6012,45.0557 L82.6012,42.5527 L82.6012,40.0487 L85.1032,40.0487 L85.1032,37.5457 L85.1032,35.0427 L82.6012,35.0427 L80.0972,35.0427 L80.0972,32.5387 L82.6012,32.5387 L85.1032,32.5387 L85.1032,30.0357 L82.6012,30.0357 L80.0972,30.0357 L77.5942,30.0357 L77.5942,27.5327 L80.0972,27.5327 L82.6012,27.5327 L85.1032,27.5327 L85.1032,25.0307 L85.1032,22.5277 L82.6012,22.5277 Z" id="Fill-2" fill="#FFFFFF"></path>
                        <polygon id="Fill-3" fill="#C69C6D" points="100.1212 55.0669 97.6182 55.0669 95.1152 55.0669 92.6122 55.0669 90.1102 55.0669 87.6062 55.0669 85.1032 55.0669 82.6002 55.0669 80.0972 55.0669 77.5942 55.0669 75.0912 55.0669 72.5872 55.0669 70.0862 55.0669 67.5832 55.0669 65.0792 55.0669 65.0792 57.5699 65.0792 60.0729 65.0792 62.5769 65.0792 65.0779 62.5762 65.0779 62.5762 67.5819 62.5762 70.0849 60.0732 70.0849 57.5692 70.0849 55.0662 70.0849 55.0662 67.5819 55.0662 65.0779 55.0662 62.5769 55.0662 60.0729 55.0662 57.5699 55.0662 55.0669 52.5642 55.0669 50.0612 55.0669 47.5582 55.0669 45.0552 55.0669 42.5522 55.0669 40.0492 55.0669 37.5452 55.0669 35.0442 55.0669 32.5402 55.0669 30.0372 55.0669 27.5342 55.0669 25.0302 55.0669 22.5272 55.0669 22.5272 57.5699 22.5272 60.0729 22.5272 62.5769 22.5272 65.0779 22.5272 67.5819 22.5272 70.0849 22.5272 72.5879 22.5272 75.0909 22.5272 77.5939 22.5272 80.0969 22.5272 82.5989 22.5272 85.1019 22.5272 87.6059 22.5272 90.1089 22.5272 92.6119 25.0302 92.6119 27.5342 92.6119 30.0372 92.6119 32.5402 92.6119 35.0442 92.6119 37.5452 92.6119 40.0492 92.6119 42.5522 92.6119 45.0552 92.6119 47.5582 92.6119 50.0612 92.6119 52.5642 92.6119 55.0662 92.6119 57.5692 92.6119 60.0732 92.6119 62.5762 92.6119 65.0792 92.6119 67.5832 92.6119 70.0862 92.6119 72.5872 92.6119 75.0912 92.6119 77.5942 92.6119 80.0972 92.6119 82.6002 92.6119 85.1032 92.6119 87.6062 92.6119 90.1102 92.6119 92.6122 92.6119 95.1152 92.6119 95.1152 90.1089 97.6182 90.1089 100.1212 90.1089 100.1212 87.6059 102.6252 87.6059 102.6252 85.1019 102.6252 82.5989 102.6252 80.0969 102.6252 77.5939 102.6252 75.0909 102.6252 72.5879 102.6252 70.0849 102.6252 67.5819 102.6252 65.0779 102.6252 62.5769 102.6252 60.0729 102.6252 57.5699 102.6252 55.0669"></polygon>
                        <polygon id="Fill-4" fill="#C69C6D" points="17.5206 50.0601 15.0196 50.0601 15.0196 47.5571 12.5156 47.5571 12.5156 45.0551 10.0126 45.0551 10.0126 42.5521 7.5096 42.5521 7.5096 40.0481 5.0066 40.0481 5.0066 37.5451 2.5026 37.5451 2.5026 40.0481 2.5026 42.5521 2.5026 45.0551 2.5026 47.5571 2.5026 50.0601 2.5026 52.5631 2.5026 55.0671 2.5026 57.5701 2.5026 60.0731 2.5026 62.5771 2.5026 65.0781 2.5026 67.5811 2.5026 70.0841 2.5026 72.5871 2.5026 75.0911 5.0066 75.0911 5.0066 77.5941 7.5096 77.5941 7.5096 80.0971 10.0126 80.0971 10.0126 82.5991 12.5156 82.5991 12.5156 85.1021 15.0196 85.1021 15.0196 87.6061 17.5206 87.6061 17.5206 90.1091 20.0246 90.1091 20.0246 87.6061 20.0246 85.1021 20.0246 82.5991 20.0246 80.0971 20.0246 77.5941 20.0246 75.0911 20.0246 72.5871 20.0246 70.0841 20.0246 67.5811 20.0246 65.0781 20.0246 62.5771 20.0246 60.0731 20.0246 57.5701 20.0246 55.0671 20.0246 52.5631 17.5206 52.5631"></polygon>
                        <polygon id="Fill-5" fill="#A67C52" points="100.1212 50.0601 100.1212 47.5571 97.6182 47.5571 97.6182 45.0551 95.1152 45.0551 95.1152 42.5521 92.6122 42.5521 92.6122 40.0481 90.1102 40.0481 90.1102 37.5451 87.6062 37.5451 87.6062 40.0481 87.6062 42.5521 85.1032 42.5521 85.1032 45.0551 85.1032 47.5571 82.6002 47.5571 82.6002 50.0601 82.6002 52.5631 85.1032 52.5631 87.6062 52.5631 90.1102 52.5631 92.6122 52.5631 95.1152 52.5631 97.6182 52.5631 100.1212 52.5631 102.6252 52.5631 102.6252 50.0601"></polygon>
                        <polygon id="Fill-6" fill="#A67C52" points="60.0734 55.0669 57.5694 55.0669 55.0664 55.0669 55.0664 57.5699 55.0664 60.0729 55.0664 62.5769 55.0664 65.0779 55.0664 67.5819 55.0664 70.0849 57.5694 70.0849 60.0734 70.0849 62.5764 70.0849 62.5764 67.5819 62.5764 65.0779 65.0794 65.0779 65.0794 62.5769 65.0794 60.0729 65.0794 57.5699 65.0794 55.0669 62.5764 55.0669"></polygon>
                        <polygon id="Fill-7" fill="#A67C52" points="22.5275 47.5572 20.0245 47.5572 20.0245 45.0552 20.0245 42.5522 17.5205 42.5522 15.0195 42.5522 15.0195 40.0482 12.5155 40.0482 12.5155 37.5452 15.0195 37.5452 15.0195 35.0422 12.5155 35.0422 10.0125 35.0422 10.0125 32.5382 7.5095 32.5382 5.0065 32.5382 2.5035 32.5382 2.5035 35.0422 5.0065 35.0422 5.0065 37.5452 7.5095 37.5452 7.5095 40.0482 10.0125 40.0482 10.0125 42.5522 12.5155 42.5522 12.5155 45.0552 15.0195 45.0552 15.0195 47.5572 17.5205 47.5572 17.5205 50.0602 20.0245 50.0602 20.0245 52.5632 22.5275 52.5632 25.0305 52.5632 25.0305 50.0602 22.5275 50.0602"></polygon>
                        <polygon id="Fill-8" fill="#000000" points="80.0968 10.0113 80.0968 12.5153 80.0968 15.0183 80.0968 17.5213 82.6008 17.5213 82.6008 15.0183 82.6008 12.5153 82.6008 10.0113 82.6008 7.5093 82.6008 5.0063 80.0968 5.0063 80.0968 7.5093"></polygon>
                        <polygon id="Fill-9" fill="#000000" points="77.594 5.0062 80.097 5.0062 80.097 2.5032 77.594 2.5032"></polygon>
                        <polygon id="Fill-10" fill="#000000" points="72.5868 -0.0004 72.5868 2.5036 75.0908 2.5036 77.5938 2.5036 77.5938 -0.0004"></polygon>
                        <polygon id="Fill-11" fill="#000000" points="70.086 5.0062 72.587 5.0062 72.587 2.5032 70.086 2.5032"></polygon>
                        <polygon id="Fill-12" fill="#000000" points="67.583 7.5092 70.086 7.5092 70.086 5.0062 67.583 5.0062"></polygon>
                        <polygon id="Fill-13" fill="#000000" points="35.0441 12.5152 37.5451 12.5152 40.0491 12.5152 42.5521 12.5152 45.0551 12.5152 45.0551 10.0112 42.5521 10.0112 40.0491 10.0112 37.5451 10.0112 35.0441 10.0112 32.5401 10.0112 32.5401 12.5152"></polygon>
                        <polygon id="Fill-14" fill="#000000" points="30.037 10.0112 32.54 10.0112 32.54 7.5092 30.037 7.5092"></polygon>
                        <polygon id="Fill-15" fill="#000000" points="27.534 7.5092 30.037 7.5092 30.037 5.0062 27.534 5.0062"></polygon>
                        <polygon id="Fill-16" fill="#000000" points="27.5343 5.0064 27.5343 2.5034 25.0303 2.5034 22.5273 2.5034 22.5273 5.0064 25.0303 5.0064"></polygon>
                        <polygon id="Fill-17" fill="#000000" points="22.5275 7.5093 22.5275 5.0063 20.0245 5.0063 20.0245 7.5093 20.0245 10.0113 22.5275 10.0113"></polygon>
                        <polygon id="Fill-18" fill="#000000" points="20.0245 15.0181 20.0245 12.5151 20.0245 10.0111 17.5205 10.0111 17.5205 12.5151 17.5205 15.0181 17.5205 17.5211 17.5205 20.0241 20.0245 20.0241 20.0245 17.5211"></polygon>
                        <polygon id="Fill-19" fill="#000000" points="82.6011 17.5208 82.6011 20.0238 82.6011 22.5278 85.1041 22.5278 85.1041 25.0308 85.1041 27.5328 82.6011 27.5328 80.0961 27.5328 77.5931 27.5328 77.5931 30.0358 80.0961 30.0358 82.6011 30.0358 85.1041 30.0358 85.1041 32.5378 82.6011 32.5378 80.0961 32.5378 80.0961 35.0428 82.6011 35.0428 85.1041 35.0428 85.1041 37.5458 85.1041 40.0488 82.6011 40.0488 82.6011 42.5528 82.6011 45.0558 80.0961 45.0558 80.0961 47.5578 80.0961 50.0608 80.0961 52.5628 77.5931 52.5628 75.0911 52.5628 72.5871 52.5628 70.0861 52.5628 67.5831 52.5628 65.0791 52.5628 62.5761 52.5628 60.0731 52.5628 57.5691 52.5628 55.0661 52.5628 52.5641 52.5628 50.0611 52.5628 47.5581 52.5628 45.0551 52.5628 42.5521 52.5628 40.0491 52.5628 37.5451 52.5628 35.0441 52.5628 32.5401 52.5628 30.0371 52.5628 27.5351 52.5628 27.5351 50.0608 27.5351 47.5578 25.0311 47.5578 22.5281 47.5578 22.5281 50.0608 25.0311 50.0608 25.0311 52.5628 22.5281 52.5628 20.0241 52.5628 20.0241 55.0668 20.0241 57.5698 20.0241 60.0728 20.0241 62.5768 20.0241 65.0778 20.0241 67.5818 20.0241 70.0848 20.0241 72.5878 20.0241 75.0908 20.0241 77.5938 20.0241 80.0968 20.0241 82.5988 20.0241 85.1018 20.0241 87.6058 20.0241 90.1088 17.5201 90.1088 17.5201 92.6118 20.0241 92.6118 22.5281 92.6118 22.5281 90.1088 22.5281 87.6058 22.5281 85.1018 22.5281 82.5988 22.5281 80.0968 22.5281 77.5938 22.5281 75.0908 22.5281 72.5878 22.5281 70.0848 22.5281 67.5818 22.5281 65.0778 22.5281 62.5768 22.5281 60.0728 22.5281 57.5698 22.5281 55.0668 25.0311 55.0668 27.5351 55.0668 30.0371 55.0668 32.5401 55.0668 35.0441 55.0668 37.5451 55.0668 40.0491 55.0668 42.5521 55.0668 45.0551 55.0668 47.5581 55.0668 50.0611 55.0668 52.5641 55.0668 55.0661 55.0668 57.5691 55.0668 60.0731 55.0668 62.5761 55.0668 65.0791 55.0668 67.5831 55.0668 70.0861 55.0668 72.5871 55.0668 75.0911 55.0668 77.5931 55.0668 80.0961 55.0668 82.6011 55.0668 85.1041 55.0668 87.6071 55.0668 90.1111 55.0668 92.6131 55.0668 95.1151 55.0668 97.6181 55.0668 100.1211 55.0668 102.6251 55.0668 102.6251 57.5698 102.6251 60.0728 102.6251 62.5768 102.6251 65.0778 102.6251 67.5818 102.6251 70.0848 102.6251 72.5878 102.6251 75.0908 102.6251 77.5938 102.6251 80.0968 102.6251 82.5988 102.6251 85.1018 102.6251 87.6058 100.1211 87.6058 100.1211 90.1088 102.6251 90.1088 105.1281 90.1088 105.1281 50.0608 102.6251 50.0608 102.6251 52.5628 100.1211 52.5628 97.6181 52.5628 95.1151 52.5628 92.6131 52.5628 90.1111 52.5628 87.6071 52.5628 85.1041 52.5628 82.6011 52.5628 82.6011 50.0608 82.6011 47.5578 85.1041 47.5578 85.1041 45.0558 85.1041 42.5528 87.6071 42.5528 87.6071 40.0488 87.6071 37.5458 90.1111 37.5458 90.1111 35.0428 92.6131 35.0428 92.6131 32.5378 90.1111 32.5378 87.6071 32.5378 87.6071 30.0358 90.1111 30.0358 92.6131 30.0358 92.6131 27.5328 90.1111 27.5328 87.6071 27.5328 87.6071 25.0308 87.6071 22.5278 87.6071 20.0238 85.1041 20.0238 85.1041 17.5208"></polygon>
                        <polygon id="Fill-20" fill="#000000" points="100.121 50.0602 102.625 50.0602 102.625 47.5572 100.121 47.5572"></polygon>
                        <polygon id="Fill-21" fill="#000000" points="97.618 47.5572 100.121 47.5572 100.121 45.0552 97.618 45.0552"></polygon>
                        <polygon id="Fill-22" fill="#000000" points="97.6185 90.1085 95.1155 90.1085 95.1155 92.6115 92.6125 92.6115 90.1105 92.6115 87.6065 92.6115 85.1045 92.6115 82.6015 92.6115 80.0965 92.6115 77.5935 92.6115 75.0905 92.6115 72.5865 92.6115 70.0855 92.6115 67.5825 92.6115 65.0785 92.6115 62.5765 92.6115 60.0735 92.6115 57.5695 92.6115 55.0665 92.6115 52.5645 92.6115 50.0615 92.6115 47.5575 92.6115 45.0545 92.6115 42.5525 92.6115 40.0495 92.6115 37.5455 92.6115 35.0445 92.6115 32.5405 92.6115 30.0375 92.6115 27.5345 92.6115 25.0305 92.6115 22.5275 92.6115 22.5275 95.1155 25.0305 95.1155 27.5345 95.1155 30.0375 95.1155 32.5405 95.1155 35.0445 95.1155 37.5455 95.1155 40.0495 95.1155 42.5525 95.1155 45.0545 95.1155 47.5575 95.1155 50.0615 95.1155 52.5645 95.1155 55.0665 95.1155 57.5695 95.1155 60.0735 95.1155 62.5765 95.1155 65.0785 95.1155 67.5825 95.1155 70.0855 95.1155 72.5865 95.1155 75.0905 95.1155 77.5935 95.1155 80.0965 95.1155 82.6015 95.1155 85.1045 95.1155 87.6065 95.1155 90.1105 95.1155 92.6125 95.1155 95.1155 95.1155 97.6185 95.1155 97.6185 92.6115 100.1215 92.6115 100.1215 90.1085"></polygon>
                        <polygon id="Fill-23" fill="#000000" points="95.115 45.0552 97.618 45.0552 97.618 42.5522 95.115 42.5522"></polygon>
                        <polygon id="Fill-24" fill="#000000" points="92.612 42.5522 95.115 42.5522 95.115 40.0482 92.612 40.0482"></polygon>
                        <polygon id="Fill-25" fill="#000000" points="90.11 40.0482 92.612 40.0482 92.612 37.5452 90.11 37.5452"></polygon>
                        <polygon id="Fill-26" fill="#000000" points="62.5763 30.0357 65.0793 30.0357 67.5833 30.0357 67.5833 27.5327 67.5833 25.0307 65.0793 25.0307 65.0793 22.5277 62.5763 22.5277 60.0733 22.5277 60.0733 25.0307 60.0733 27.5327 62.5763 27.5327"></polygon>
                        <polygon id="Fill-27" fill="#000000" points="60.073 37.5452 62.576 37.5452 62.576 35.0422 60.073 35.0422"></polygon>
                        <polygon id="Fill-28" fill="#000000" points="57.5695 40.0484 60.0735 40.0484 60.0735 37.5454 57.5695 37.5454 55.0665 37.5454 55.0665 40.0484"></polygon>
                        <polygon id="Fill-29" fill="#000000" points="52.565 37.5452 55.067 37.5452 55.067 35.0422 52.565 35.0422"></polygon>
                        <polygon id="Fill-30" fill="#000000" points="50.062 35.0422 52.565 35.0422 52.565 32.5382 50.062 32.5382"></polygon>
                        <polygon id="Fill-31" fill="#000000" points="47.558 37.5452 50.062 37.5452 50.062 35.0422 47.558 35.0422"></polygon>
                        <polygon id="Fill-32" fill="#000000" points="50.0616 10.0113 52.5646 10.0113 55.0666 10.0113 57.5696 10.0113 60.0736 10.0113 62.5766 10.0113 65.0796 10.0113 67.5826 10.0113 67.5826 7.5093 65.0796 7.5093 62.5766 7.5093 60.0736 7.5093 57.5696 7.5093 55.0666 7.5093 52.5646 7.5093 50.0616 7.5093 47.5576 7.5093 45.0546 7.5093 45.0546 10.0113 47.5576 10.0113"></polygon>
                        <polygon id="Fill-33" fill="#000000" points="47.5577 40.0484 47.5577 37.5454 45.0547 37.5454 45.0547 35.0424 42.5517 35.0424 42.5517 37.5454 42.5517 40.0484 45.0547 40.0484"></polygon>
                        <polygon id="Fill-34" fill="#000000" points="37.545 32.5386 37.545 30.0356 40.049 30.0356 40.049 27.5326 40.049 25.0306 37.545 25.0306 35.044 25.0306 35.044 27.5326 32.54 27.5326 32.54 30.0356 32.54 32.5386 35.044 32.5386"></polygon>
                        <polygon id="Fill-35" fill="#000000" points="22.5275 42.5523 20.0245 42.5523 20.0245 45.0553 20.0245 47.5573 22.5275 47.5573 22.5275 45.0553"></polygon>
                        <polygon id="Fill-36" fill="#000000" points="17.521 52.5632 20.025 52.5632 20.025 50.0602 17.521 50.0602"></polygon>
                        <polygon id="Fill-37" fill="#000000" points="15.02 90.1092 17.521 90.1092 17.521 87.6062 15.02 87.6062"></polygon>
                        <polygon id="Fill-38" fill="#000000" points="15.02 50.0602 17.521 50.0602 17.521 47.5572 15.02 47.5572"></polygon>
                        <polygon id="Fill-39" fill="#000000" points="12.516 87.6062 15.02 87.6062 15.02 85.1022 12.516 85.1022"></polygon>
                        <polygon id="Fill-40" fill="#000000" points="12.516 47.5572 15.02 47.5572 15.02 45.0552 12.516 45.0552"></polygon>
                        <polygon id="Fill-41" fill="#000000" points="10.013 85.1022 12.516 85.1022 12.516 82.5992 10.013 82.5992"></polygon>
                        <polygon id="Fill-42" fill="#000000" points="10.013 45.0552 12.516 45.0552 12.516 42.5522 10.013 42.5522"></polygon>
                        <polygon id="Fill-43" fill="#000000" points="7.51 82.5992 10.013 82.5992 10.013 80.0972 7.51 80.0972"></polygon>
                        <polygon id="Fill-44" fill="#000000" points="7.51 42.5522 10.013 42.5522 10.013 40.0482 7.51 40.0482"></polygon>
                        <polygon id="Fill-45" fill="#000000" points="5.007 80.0972 7.51 80.0972 7.51 77.5942 5.007 77.5942"></polygon>
                        <polygon id="Fill-46" fill="#000000" points="5.007 40.0482 7.51 40.0482 7.51 37.5452 5.007 37.5452"></polygon>
                        <polygon id="Fill-47" fill="#000000" points="7.5099 32.5386 10.0129 32.5386 10.0129 35.0426 12.5159 35.0426 15.0199 35.0426 15.0199 37.5456 12.5159 37.5456 12.5159 40.0486 15.0199 40.0486 15.0199 42.5526 17.5209 42.5526 20.0249 42.5526 20.0249 40.0486 22.5279 40.0486 25.0309 40.0486 27.5339 40.0486 27.5339 37.5456 25.0309 37.5456 22.5279 37.5456 20.0249 37.5456 17.5209 37.5456 17.5209 35.0426 20.0249 35.0426 22.5279 35.0426 25.0309 35.0426 27.5339 35.0426 27.5339 32.5386 25.0309 32.5386 22.5279 32.5386 20.0249 32.5386 17.5209 32.5386 17.5209 30.0356 17.5209 27.5326 20.0249 27.5326 20.0249 25.0306 22.5279 25.0306 22.5279 22.5276 22.5279 20.0236 20.0249 20.0236 20.0249 22.5276 17.5209 22.5276 17.5209 25.0306 15.0199 25.0306 15.0199 27.5326 15.0199 30.0356 12.5159 30.0356 10.0129 30.0356 7.5099 30.0356 5.0069 30.0356 2.5029 30.0356 2.5029 32.5386 5.0069 32.5386"></polygon>
                        <polygon id="Fill-48" fill="#000000" points="2.503 77.5942 5.007 77.5942 5.007 75.0912 2.503 75.0912"></polygon>
                        <polygon id="Fill-49" fill="#000000" points="0 32.5382 0 35.0432 0 37.5462 0 40.0482 0 42.5522 0 45.0552 0 47.5572 0 50.0602 0 52.5632 0 55.0672 0 57.5702 0 60.0732 0 62.5762 0 65.0772 0 67.5812 0 70.0842 0 72.5872 0 75.0912 2.503 75.0912 2.503 72.5872 2.503 70.0842 2.503 67.5812 2.503 65.0772 2.503 62.5762 2.503 60.0732 2.503 57.5702 2.503 55.0672 2.503 52.5632 2.503 50.0602 2.503 47.5572 2.503 45.0552 2.503 42.5522 2.503 40.0482 2.503 37.5462 5.007 37.5462 5.007 35.0432 2.503 35.0432 2.503 32.5382"></polygon>
                    </g>
                    <text id="Cart" font-family="KlavikaBold-Bold, Klavika Bold" font-size="22" font-weight="bold" fill="#4B4B4B">
                        <tspan x="42" y="85">Cart</tspan>
                    </text>
                </g>
            </g>
        </g>
    </g>
</svg>