<?xml version="1.0" encoding="UTF-8"?>
<svg width="1440px" height="813px" viewBox="0 0 1440 813" version="1.1" xmlns="http://www.w3.org/2000/svg" xmlns:xlink="http://www.w3.org/1999/xlink">
    <!-- Generator: sketchtool 49.3 (51167) - http://www.bohemiancoding.com/sketch -->
    <title>59F91589-9A1D-4D69-ACEB-BC077B8C01E9</title>
    <desc>Created with sketchtool.</desc>
    <defs></defs>
    <g id="Page-1" stroke="none" stroke-width="1" fill="none" fill-rule="evenodd">
        <g id="Making_2">
            <g id="Page-1" transform="translate(94.000000, 336.000000)">
                <polygon id="Fill-1" fill="#D000BF" points="586.78 308.82 595.039 308.82 595.039 301.471 586.78 301.471"></polygon>
                <polygon id="Fill-2" fill="#D000BF" points="586.78 279.409 595.039 279.409 595.039 272.06 586.78 272.06"></polygon>
                <polygon id="Fill-3" fill="#D000BF" points="520.6599 176.4702 512.3999 176.4702 512.3999 183.8192 504.1309 183.8192 504.1309 191.1802 495.8689 191.1802 495.8689 198.5302 495.8689 205.8802 487.5999 205.8802 487.5999 213.2302 479.3389 213.2302 479.3389 220.5902 487.5999 220.5902 487.5999 227.9402 487.5999 235.2902 495.8689 235.2902 495.8689 242.6502 504.1309 242.6502 504.1309 249.9992 512.3999 249.9992 512.3999 257.3502 520.6599 257.3502 528.9299 257.3502 528.9299 249.9992 537.1899 249.9992 537.1899 242.6502 545.4499 242.6502 553.7209 242.6502 553.7209 235.2902 561.9799 235.2902 561.9799 227.9402 570.2499 227.9402 578.5099 227.9402 586.7799 227.9402 586.7799 235.2902 586.7799 242.6502 586.7799 249.9992 586.7799 257.3502 586.7799 264.7102 595.0399 264.7102 595.0399 257.3502 595.0399 249.9992 595.0399 242.6502 595.0399 235.2902 595.0399 227.9402 595.0399 220.5902 586.7799 220.5902 578.5099 220.5902 570.2499 220.5902 561.9799 220.5902 561.9799 213.2302 553.7209 213.2302 545.4499 213.2302 545.4499 205.8802 545.4499 198.5302 545.4499 191.1802 537.1899 191.1802 537.1899 183.8192 528.9299 183.8192 528.9299 176.4702"></polygon>
                <polygon id="Fill-4" fill="#FB9497" points="347.11 161.7604 347.11 154.4094 338.839 154.4094 338.839 147.0604 330.58 147.0604 330.58 154.4094 322.31 154.4094 322.31 161.7604 322.31 169.1194 330.58 169.1194 338.839 169.1194 347.11 169.1194 355.37 169.1194 355.37 161.7604"></polygon>
                <polygon id="Fill-5" fill="#50E3C2" points="289.2604 316.1803 289.2604 308.8203 280.9894 308.8203 272.7304 308.8203 264.4604 308.8203 264.4604 301.4703 256.1994 301.4703 247.9304 301.4703 247.9304 308.8203 239.6694 308.8203 239.6694 316.1803 247.9304 316.1803 247.9304 323.5303 247.9304 330.8803 256.1994 330.8803 256.1994 338.2303 264.4604 338.2303 272.7304 338.2303 272.7304 345.5903 280.9894 345.5903 289.2604 345.5903 297.5204 345.5903 305.7804 345.5903 305.7804 338.2303 305.7804 330.8803 305.7804 323.5303 305.7804 316.1803 297.5204 316.1803"></polygon>
                <path d="M429.75,7.3503 L421.49,7.3503 L421.49,14.7103 L413.221,14.7103 L413.221,22.0603 L404.96,22.0603 L404.96,29.4103 L396.69,29.4103 L396.69,36.7603 L388.43,36.7603 L388.43,44.1203 L380.16,44.1203 L371.9,44.1203 L363.641,44.1203 L355.37,44.1203 L347.11,44.1203 L338.839,44.1203 L330.58,44.1203 L322.31,44.1203 L314.051,44.1203 L305.779,44.1203 L305.779,51.4703 L297.52,51.4703 L289.26,51.4703 L280.99,51.4703 L272.73,51.4703 L264.46,51.4703 L264.46,44.1203 L256.199,44.1203 L256.199,36.7603 L247.93,36.7603 L247.93,29.4103 L239.669,29.4103 L231.4,29.4103 L231.4,22.0603 L223.141,22.0603 L223.141,14.7103 L223.141,7.3503 L214.88,7.3503 L206.61,7.3503 L206.61,14.7103 L206.61,22.0603 L198.35,22.0603 L198.35,29.4103 L198.35,36.7603 L198.35,44.1203 L198.35,51.4703 L190.08,51.4703 L190.08,58.8193 L190.08,66.1803 L190.08,73.5303 L190.08,80.8803 L181.82,80.8803 L181.82,88.2293 L181.82,95.5903 L181.82,102.9403 L181.82,110.2903 L181.82,117.6493 L181.82,124.9993 L181.82,132.3503 L181.82,139.7103 L181.82,147.0603 L190.08,147.0603 L190.08,154.4093 L190.08,161.7603 L190.08,169.1203 L198.35,169.1203 L198.35,176.4703 L198.35,183.8193 L206.61,183.8193 L206.61,191.1803 L214.88,191.1803 L214.88,198.5303 L214.88,205.8803 L206.61,205.8803 L206.61,213.2293 L206.61,220.5903 L206.61,227.9403 L206.61,235.2903 L198.35,235.2903 L198.35,242.6503 L198.35,249.9993 L198.35,257.3503 L190.08,257.3503 L190.08,264.7103 L190.08,272.0603 L190.08,279.4093 L190.08,286.7603 L190.08,294.1213 L181.82,294.1213 L181.82,301.4703 L181.82,308.8193 L181.82,316.1803 L181.82,323.5303 L181.82,330.8803 L181.82,338.2303 L173.551,338.2303 L173.551,330.8803 L173.551,323.5303 L165.289,323.5303 L157.02,323.5303 L157.02,316.1803 L148.76,316.1803 L140.5,316.1803 L132.23,316.1803 L132.23,308.8193 L123.971,308.8193 L123.971,301.4703 L115.7,301.4703 L115.7,294.1213 L107.44,294.1213 L107.44,286.7603 L107.44,279.4093 L99.169,279.4093 L99.169,272.0603 L99.169,264.7103 L90.91,264.7103 L90.91,257.3503 L90.91,249.9993 L90.91,242.6503 L82.641,242.6503 L82.641,235.2903 L82.641,227.9403 L82.641,220.5903 L82.641,213.2293 L90.91,213.2293 L90.91,205.8803 L90.91,198.5303 L90.91,191.1803 L90.91,183.8193 L99.169,183.8193 L99.169,176.4703 L99.169,169.1203 L99.169,161.7603 L99.169,154.4093 L99.169,147.0603 L90.91,147.0603 L90.91,139.7103 L90.91,132.3503 L82.641,132.3503 L74.38,132.3503 L66.119,132.3503 L66.119,139.7103 L57.85,139.7103 L57.85,147.0603 L57.85,154.4093 L57.85,161.7603 L57.85,169.1203 L49.589,169.1203 L49.589,176.4703 L49.589,183.8193 L49.589,191.1803 L49.589,198.5303 L49.589,205.8803 L41.32,205.8803 L41.32,213.2293 L41.32,220.5903 L41.32,227.9403 L41.32,235.2903 L41.32,242.6503 L41.32,249.9993 L41.32,257.3503 L41.32,264.7103 L49.589,264.7103 L49.589,272.0603 L49.589,279.4093 L57.85,279.4093 L57.85,286.7603 L57.85,294.1213 L66.119,294.1213 L66.119,301.4703 L66.119,308.8193 L66.119,316.1803 L74.38,316.1803 L74.38,323.5303 L74.38,330.8803 L82.641,330.8803 L82.641,338.2303 L90.91,338.2303 L99.169,338.2303 L99.169,345.5903 L107.44,345.5903 L115.7,345.5903 L115.7,352.9403 L123.971,352.9403 L132.23,352.9403 L132.23,360.2903 L140.5,360.2903 L148.76,360.2903 L157.02,360.2903 L157.02,367.6503 L165.289,367.6503 L173.551,367.6503 L173.551,360.2903 L181.82,360.2903 L181.82,367.6503 L190.08,367.6503 L198.35,367.6503 L206.61,367.6503 L214.88,367.6503 L223.141,367.6503 L231.4,367.6503 L239.669,367.6503 L247.93,367.6503 L256.199,367.6503 L264.46,367.6503 L272.73,367.6503 L280.99,367.6503 L289.26,367.6503 L297.52,367.6503 L305.779,367.6503 L314.051,367.6503 L322.31,367.6503 L330.58,367.6503 L338.839,367.6503 L347.11,367.6503 L355.37,367.6503 L363.641,367.6503 L371.9,367.6503 L380.16,367.6503 L388.43,367.6503 L396.69,367.6503 L404.96,367.6503 L413.221,367.6503 L421.49,367.6503 L429.75,367.6503 L438.02,367.6503 L446.28,367.6503 L446.28,360.2903 L446.28,352.9403 L446.28,345.5903 L446.28,338.2303 L446.28,330.8803 L454.54,330.8803 L454.54,323.5303 L454.54,316.1803 L454.54,308.8193 L454.54,301.4703 L454.54,294.1213 L454.54,286.7603 L454.54,279.4093 L446.28,279.4093 L438.02,279.4093 L438.02,272.0603 L446.28,272.0603 L446.28,264.7103 L454.54,264.7103 L462.811,264.7103 L471.07,264.7103 L479.339,264.7103 L479.339,257.3503 L487.6,257.3503 L495.869,257.3503 L504.13,257.3503 L504.13,249.9993 L495.869,249.9993 L495.869,242.6503 L487.6,242.6503 L487.6,235.2903 L479.339,235.2903 L479.339,227.9403 L471.07,227.9403 L471.07,220.5903 L471.07,213.2293 L462.811,213.2293 L454.54,213.2293 L454.54,220.5903 L446.28,220.5903 L438.02,220.5903 L429.75,220.5903 L429.75,213.2293 L429.75,205.8803 L438.02,205.8803 L438.02,198.5303 L438.02,191.1803 L438.02,183.8193 L446.28,183.8193 L446.28,176.4703 L446.28,169.1203 L454.54,169.1203 L462.811,169.1203 L462.811,161.7603 L462.811,154.4093 L471.07,154.4093 L471.07,147.0603 L471.07,139.7103 L471.07,132.3503 L471.07,124.9993 L462.811,124.9993 L462.811,117.6493 L462.811,110.2903 L462.811,102.9403 L462.811,95.5903 L462.811,88.2293 L454.54,88.2293 L454.54,80.8803 L454.54,73.5303 L446.28,73.5303 L446.28,66.1803 L446.28,58.8193 L446.28,51.4703 L446.28,44.1203 L446.28,36.7603 L446.28,29.4103 L446.28,22.0603 L438.02,22.0603 L438.02,14.7103 L438.02,7.3503 L429.75,7.3503 Z M371.9,102.9403 L371.9,95.5903 L371.9,88.2293 L380.16,88.2293 L388.43,88.2293 L388.43,95.5903 L396.69,95.5903 L396.69,102.9403 L404.96,102.9403 L404.96,110.2903 L404.96,117.6493 L396.69,117.6493 L396.69,124.9993 L388.43,124.9993 L388.43,117.6493 L380.16,117.6493 L380.16,110.2903 L371.9,110.2903 L371.9,102.9403 Z M256.199,124.9993 L256.199,117.6493 L264.46,117.6493 L264.46,110.2903 L272.73,110.2903 L272.73,102.9403 L280.99,102.9403 L289.26,102.9403 L289.26,110.2903 L289.26,117.6493 L289.26,124.9993 L280.99,124.9993 L280.99,132.3503 L272.73,132.3503 L264.46,132.3503 L256.199,132.3503 L256.199,124.9993 Z M305.779,154.4093 L314.051,154.4093 L322.31,154.4093 L322.31,147.0603 L330.58,147.0603 L330.58,139.7103 L330.58,132.3503 L338.839,132.3503 L338.839,139.7103 L347.11,139.7103 L347.11,147.0603 L347.11,154.4093 L355.37,154.4093 L363.641,154.4093 L363.641,147.0603 L371.9,147.0603 L371.9,154.4093 L371.9,161.7603 L363.641,161.7603 L355.37,161.7603 L355.37,169.1203 L347.11,169.1203 L338.839,169.1203 L330.58,169.1203 L322.31,169.1203 L322.31,161.7603 L314.051,161.7603 L305.779,161.7603 L297.52,161.7603 L297.52,154.4093 L289.26,154.4093 L289.26,147.0603 L297.52,147.0603 L297.52,154.4093 L305.779,154.4093 Z M264.46,249.9993 L272.73,249.9993 L280.99,249.9993 L289.26,249.9993 L297.52,249.9993 L297.52,242.6503 L305.779,242.6503 L305.779,235.2903 L305.779,227.9403 L314.051,227.9403 L322.31,227.9403 L330.58,227.9403 L330.58,235.2903 L338.839,235.2903 L338.839,242.6503 L347.11,242.6503 L347.11,249.9993 L347.11,257.3503 L338.839,257.3503 L338.839,264.7103 L338.839,272.0603 L330.58,272.0603 L330.58,279.4093 L338.839,279.4093 L338.839,286.7603 L338.839,294.1213 L338.839,301.4703 L330.58,301.4703 L330.58,308.8193 L322.31,308.8193 L314.051,308.8193 L314.051,316.1803 L314.051,323.5303 L314.051,330.8803 L314.051,338.2303 L314.051,345.5903 L314.051,352.9403 L305.779,352.9403 L297.52,352.9403 L289.26,352.9403 L280.99,352.9403 L272.73,352.9403 L264.46,352.9403 L264.46,345.5903 L256.199,345.5903 L247.93,345.5903 L247.93,338.2303 L239.669,338.2303 L239.669,330.8803 L239.669,323.5303 L231.4,323.5303 L231.4,316.1803 L231.4,308.8193 L231.4,301.4703 L239.669,301.4703 L239.669,294.1213 L231.4,294.1213 L231.4,286.7603 L239.669,286.7603 L239.669,294.1213 L247.93,294.1213 L256.199,294.1213 L264.46,294.1213 L264.46,301.4703 L272.73,301.4703 L280.99,301.4703 L289.26,301.4703 L289.26,308.8193 L297.52,308.8193 L305.779,308.8193 L314.051,308.8193 L314.051,301.4703 L322.31,301.4703 L330.58,301.4703 L330.58,294.1213 L330.58,286.7603 L330.58,279.4093 L322.31,279.4093 L322.31,272.0603 L314.051,272.0603 L314.051,264.7103 L305.779,264.7103 L297.52,264.7103 L289.26,264.7103 L289.26,257.3503 L280.99,257.3503 L272.73,257.3503 L264.46,257.3503 L256.199,257.3503 L256.199,249.9993 L247.93,249.9993 L247.93,242.6503 L256.199,242.6503 L256.199,249.9993 L264.46,249.9993 Z" id="Fill-6" fill="#FFFFFF"></path>
                <polygon id="Fill-7" fill="#FFFFFF" points="479.339 205.881 487.6 205.881 487.6 198.53 479.339 198.53"></polygon>
                <polygon id="Fill-8" fill="#FFFFFF" points="471.069 213.23 479.339 213.23 479.339 205.88 471.069 205.88"></polygon>
                <polygon id="Fill-9" fill="#FFFFFF" points="314.0504 235.2906 314.0504 242.6496 322.3104 242.6496 330.5794 242.6496 330.5794 235.2906 322.3104 235.2906"></polygon>
                <polygon id="Fill-10" fill="#231F20" points="578.5104 235.2906 586.7804 235.2906 586.7804 227.9396 578.5104 227.9396 570.2494 227.9396 561.9804 227.9396 561.9804 235.2906 570.2494 235.2906"></polygon>
                <polygon id="Fill-11" fill="#231F20" points="570.2496 220.5904 578.5106 220.5904 586.7796 220.5904 586.7796 213.2304 578.5106 213.2304 578.5106 205.8804 578.5106 198.5294 570.2496 198.5294 570.2496 191.1804 570.2496 183.8194 561.9796 183.8194 561.9796 176.4704 553.7206 176.4704 553.7206 183.8194 553.7206 191.1804 561.9796 191.1804 561.9796 198.5294 561.9796 205.8804 570.2496 205.8804 570.2496 213.2304"></polygon>
                <polygon id="Fill-12" fill="#231F20" points="545.4498 169.1197 545.4498 161.7607 537.1898 161.7607 537.1898 154.4097 528.9298 154.4097 528.9298 161.7607 520.6598 161.7607 520.6598 169.1197 528.9298 169.1197 537.1898 169.1197 537.1898 176.4707 545.4498 176.4707 553.7208 176.4707 553.7208 169.1197"></polygon>
                <polygon id="Fill-13" fill="#231F20" points="545.4498 257.3502 545.4498 249.9992 553.7208 249.9992 561.9798 249.9992 561.9798 242.6502 561.9798 235.2902 553.7208 235.2902 553.7208 242.6502 545.4498 242.6502 537.1898 242.6502 537.1898 249.9992 528.9298 249.9992 528.9298 257.3502 537.1898 257.3502"></polygon>
                <polygon id="Fill-14" fill="#231F20" points="520.6598 264.7105 528.9308 264.7105 528.9308 257.3505 520.6598 257.3505 512.3998 257.3505 512.3998 264.7105"></polygon>
                <polygon id="Fill-15" fill="#231F20" points="512.4 176.47 520.66 176.47 520.66 169.119 512.4 169.119"></polygon>
                <polygon id="Fill-16" fill="#231F20" points="504.13 257.351 512.4 257.351 512.4 250 504.13 250"></polygon>
                <polygon id="Fill-17" fill="#231F20" points="504.13 183.82 512.4 183.82 512.4 176.47 504.13 176.47"></polygon>
                <polygon id="Fill-18" fill="#231F20" points="495.869 250 504.13 250 504.13 242.65 495.869 242.65"></polygon>
                <polygon id="Fill-19" fill="#231F20" points="495.87 191.18 504.131 191.18 504.131 183.82 495.87 183.82"></polygon>
                <polygon id="Fill-20" fill="#231F20" points="487.6002 257.3502 479.3392 257.3502 479.3392 264.7102 471.0702 264.7102 462.8102 264.7102 454.5392 264.7102 446.2802 264.7102 446.2802 272.0602 438.0202 272.0602 438.0202 279.4102 446.2802 279.4102 454.5392 279.4102 454.5392 272.0602 462.8102 272.0602 471.0702 272.0602 479.3392 272.0602 487.6002 272.0602 487.6002 264.7102 495.8702 264.7102 504.1302 264.7102 504.1302 257.3502 495.8702 257.3502"></polygon>
                <polygon id="Fill-21" fill="#231F20" points="487.6 242.65 495.87 242.65 495.87 235.291 487.6 235.291"></polygon>
                <polygon id="Fill-22" fill="#231F20" points="479.339 213.23 487.6 213.23 487.6 205.88 479.339 205.88"></polygon>
                <polygon id="Fill-23" fill="#231F20" points="479.3395 191.1803 479.3395 198.5303 487.6005 198.5303 487.6005 205.8803 495.8695 205.8803 495.8695 198.5303 495.8695 191.1803 487.6005 191.1803"></polygon>
                <polygon id="Fill-24" fill="#231F20" points="471.0699 220.5904 471.0699 227.9404 479.3399 227.9404 479.3399 235.2904 487.5999 235.2904 487.5999 227.9404 487.5999 220.5904 479.3399 220.5904 479.3399 213.2304 471.0699 213.2304"></polygon>
                <polygon id="Fill-25" fill="#231F20" points="471.069 205.881 479.339 205.881 479.339 198.53 471.069 198.53"></polygon>
                <polygon id="Fill-26" fill="#231F20" points="479.3395 147.0602 479.3395 139.7102 479.3395 132.3502 479.3395 124.9992 479.3395 117.6502 471.0695 117.6502 471.0695 110.2902 471.0695 102.9402 471.0695 95.5902 471.0695 88.2302 462.8105 88.2302 462.8105 95.5902 462.8105 102.9402 462.8105 110.2902 462.8105 117.6502 462.8105 124.9992 471.0695 124.9992 471.0695 132.3502 471.0695 139.7102 471.0695 147.0602 471.0695 154.4102 479.3395 154.4102"></polygon>
                <polygon id="Fill-27" fill="#231F20" points="462.8102 205.8805 454.5392 205.8805 454.5392 213.2305 462.8102 213.2305 471.0702 213.2305 471.0702 205.8805"></polygon>
                <polygon id="Fill-28" fill="#231F20" points="471.0699 161.7604 471.0699 154.4094 462.8099 154.4094 462.8099 161.7604 462.8099 169.1194 471.0699 169.1194"></polygon>
                <polygon id="Fill-29" fill="#231F20" points="454.5396 279.4095 454.5396 286.7605 454.5396 294.1205 454.5396 301.4705 454.5396 308.8195 454.5396 316.1795 454.5396 323.5305 454.5396 330.8805 446.2806 330.8805 446.2806 338.2295 446.2806 345.5905 446.2806 352.9405 446.2806 360.2905 446.2806 367.6505 454.5396 367.6505 454.5396 360.2905 454.5396 352.9405 454.5396 345.5905 454.5396 338.2295 462.8106 338.2295 462.8106 330.8805 462.8106 323.5305 462.8106 316.1795 462.8106 308.8195 462.8106 301.4705 462.8106 294.1205 462.8106 286.7605 462.8106 279.4095"></polygon>
                <polygon id="Fill-30" fill="#231F20" points="462.8102 73.5299 454.5392 73.5299 454.5392 80.8809 454.5392 88.2299 462.8102 88.2299 462.8102 80.8809"></polygon>
                <polygon id="Fill-31" fill="#231F20" points="454.5397 176.4703 462.8107 176.4703 462.8107 169.1193 454.5397 169.1193 446.2797 169.1193 446.2797 176.4703 446.2797 183.8203 454.5397 183.8203"></polygon>
                <polygon id="Fill-32" fill="#231F20" points="454.5397 58.8199 454.5397 51.4699 454.5397 44.1199 454.5397 36.7599 454.5397 29.4099 454.5397 22.0599 446.2797 22.0599 446.2797 29.4099 446.2797 36.7599 446.2797 44.1199 446.2797 51.4699 446.2797 58.8199 446.2797 66.1799 446.2797 73.5299 454.5397 73.5299 454.5397 66.1799"></polygon>
                <polygon id="Fill-33" fill="#231F20" points="446.2799 205.8805 446.2799 198.5295 446.2799 191.1805 446.2799 183.8195 438.0199 183.8195 438.0199 191.1805 438.0199 198.5295 438.0199 205.8805 429.7499 205.8805 429.7499 213.2305 429.7499 220.5905 438.0199 220.5905 446.2799 220.5905 454.5399 220.5905 454.5399 213.2305 446.2799 213.2305"></polygon>
                <polygon id="Fill-34" fill="#231F20" points="446.2799 7.3502 438.0199 7.3502 438.0199 14.7102 438.0199 22.0602 446.2799 22.0602 446.2799 14.7102"></polygon>
                <polygon id="Fill-35" fill="#231F20" points="421.4898 -5.68434189e-14 421.4898 7.35 429.7498 7.35 438.0198 7.35 438.0198 -5.68434189e-14"></polygon>
                <polygon id="Fill-36" fill="#231F20" points="413.22 14.711 421.49 14.711 421.49 7.351 413.22 7.351"></polygon>
                <polygon id="Fill-37" fill="#231F20" points="404.961 22.06 413.221 22.06 413.221 14.71 404.961 14.71"></polygon>
                <polygon id="Fill-38" fill="#231F20" points="396.69 29.41 404.961 29.41 404.961 22.06 396.69 22.06"></polygon>
                <polygon id="Fill-39" fill="#231F20" points="396.6901 95.5904 388.4301 95.5904 388.4301 88.2304 380.1601 88.2304 371.9001 88.2304 371.9001 95.5904 371.9001 102.9404 371.9001 110.2904 380.1601 110.2904 380.1601 117.6504 388.4301 117.6504 388.4301 124.9994 396.6901 124.9994 396.6901 117.6504 404.9611 117.6504 404.9611 110.2904 404.9611 102.9404 396.6901 102.9404"></polygon>
                <polygon id="Fill-40" fill="#231F20" points="388.43 36.76 396.69 36.76 396.69 29.409 388.43 29.409"></polygon>
                <polygon id="Fill-41" fill="#231F20" points="371.9 36.7604 363.64 36.7604 355.37 36.7604 347.11 36.7604 338.839 36.7604 330.58 36.7604 322.31 36.7604 314.05 36.7604 305.78 36.7604 305.78 44.1194 314.05 44.1194 322.31 44.1194 330.58 44.1194 338.839 44.1194 347.11 44.1194 355.37 44.1194 363.64 44.1194 371.9 44.1194 380.16 44.1194 388.43 44.1194 388.43 36.7604 380.16 36.7604"></polygon>
                <polygon id="Fill-42" fill="#231F20" points="363.6403 154.4098 355.3693 154.4098 347.1103 154.4098 347.1103 161.7608 355.3693 161.7608 363.6403 161.7608 371.9003 161.7608 371.9003 154.4098 371.9003 147.0598 363.6403 147.0598"></polygon>
                <polygon id="Fill-43" fill="#231F20" points="338.8395 249.9996 338.8395 257.3506 347.1105 257.3506 347.1105 249.9996 347.1105 242.6496 338.8395 242.6496"></polygon>
                <polygon id="Fill-44" fill="#231F20" points="347.11 139.7105 338.839 139.7105 338.839 132.3505 330.58 132.3505 330.58 139.7105 330.58 147.0605 338.839 147.0605 338.839 154.4095 347.11 154.4095 347.11 147.0605"></polygon>
                <polygon id="Fill-45" fill="#231F20" points="330.5797 294.1207 330.5797 301.4707 338.8397 301.4707 338.8397 294.1207 338.8397 286.7607 338.8397 279.4097 330.5797 279.4097 330.5797 286.7607"></polygon>
                <polygon id="Fill-46" fill="#231F20" points="330.5797 264.7105 322.3097 264.7105 314.0507 264.7105 314.0507 272.0605 322.3097 272.0605 322.3097 279.4095 330.5797 279.4095 330.5797 272.0605 338.8397 272.0605 338.8397 264.7105 338.8397 257.3505 330.5797 257.3505"></polygon>
                <polygon id="Fill-47" fill="#231F20" points="330.579 242.65 338.839 242.65 338.839 235.291 330.579 235.291"></polygon>
                <polygon id="Fill-48" fill="#231F20" points="322.31 257.351 330.58 257.351 330.58 250 322.31 250"></polygon>
                <polygon id="Fill-49" fill="#231F20" points="322.31 154.41 330.58 154.41 330.58 147.06 322.31 147.06"></polygon>
                <polygon id="Fill-50" fill="#231F20" points="314.0504 301.4703 314.0504 308.8203 322.3104 308.8203 330.5794 308.8203 330.5794 301.4703 322.3104 301.4703"></polygon>
                <polygon id="Fill-51" fill="#231F20" points="314.05 250 322.31 250 322.31 242.65 314.05 242.65"></polygon>
                <polygon id="Fill-52" fill="#231F20" points="305.7799 257.3502 297.5199 257.3502 297.5199 249.9992 289.2599 249.9992 280.9899 249.9992 272.7299 249.9992 264.4609 249.9992 256.1999 249.9992 256.1999 257.3502 264.4609 257.3502 272.7299 257.3502 280.9899 257.3502 289.2599 257.3502 289.2599 264.7102 297.5199 264.7102 305.7799 264.7102 314.0509 264.7102 314.0509 257.3502"></polygon>
                <polygon id="Fill-53" fill="#231F20" points="314.0504 235.2906 322.3104 235.2906 330.5794 235.2906 330.5794 227.9396 322.3104 227.9396 314.0504 227.9396 305.7794 227.9396 305.7794 235.2906 305.7794 242.6496 314.0504 242.6496"></polygon>
                <polygon id="Fill-54" fill="#231F20" points="305.7799 154.4098 297.5199 154.4098 297.5199 161.7608 305.7799 161.7608 314.0509 161.7608 322.3099 161.7608 322.3099 154.4098 314.0509 154.4098"></polygon>
                <polygon id="Fill-55" fill="#231F20" points="297.5201 308.8199 289.2601 308.8199 289.2601 316.1799 297.5201 316.1799 305.7801 316.1799 305.7801 323.5299 305.7801 330.8809 305.7801 338.2299 305.7801 345.5909 297.5201 345.5909 289.2601 345.5909 280.9901 345.5909 272.7301 345.5909 272.7301 338.2299 264.4601 338.2299 256.2001 338.2299 256.2001 330.8809 247.9301 330.8809 247.9301 323.5299 247.9301 316.1799 239.6691 316.1799 239.6691 308.8199 247.9301 308.8199 247.9301 301.4699 256.2001 301.4699 264.4601 301.4699 264.4601 294.1209 256.2001 294.1209 247.9301 294.1209 239.6691 294.1209 239.6691 301.4699 231.4001 301.4699 231.4001 308.8199 231.4001 316.1799 231.4001 323.5299 239.6691 323.5299 239.6691 330.8809 239.6691 338.2299 247.9301 338.2299 247.9301 345.5909 256.2001 345.5909 264.4601 345.5909 264.4601 352.9399 272.7301 352.9399 280.9901 352.9399 289.2601 352.9399 297.5201 352.9399 305.7801 352.9399 314.0501 352.9399 314.0501 345.5909 314.0501 338.2299 314.0501 330.8809 314.0501 323.5299 314.0501 316.1799 314.0501 308.8199 305.7801 308.8199"></polygon>
                <polygon id="Fill-56" fill="#231F20" points="297.52 250 305.78 250 305.78 242.65 297.52 242.65"></polygon>
                <polygon id="Fill-57" fill="#231F20" points="289.26 154.41 297.52 154.41 297.52 147.06 289.26 147.06"></polygon>
                <polygon id="Fill-58" fill="#231F20" points="289.2604 44.1197 280.9894 44.1197 272.7304 44.1197 264.4604 44.1197 264.4604 51.4707 272.7304 51.4707 280.9894 51.4707 289.2604 51.4707 297.5204 51.4707 305.7804 51.4707 305.7804 44.1197 297.5204 44.1197"></polygon>
                <polygon id="Fill-59" fill="#231F20" points="272.7301 308.8199 280.9901 308.8199 289.2601 308.8199 289.2601 301.4699 280.9901 301.4699 272.7301 301.4699 264.4601 301.4699 264.4601 308.8199"></polygon>
                <polygon id="Fill-60" fill="#231F20" points="272.7301 132.3502 280.9901 132.3502 280.9901 124.9992 289.2601 124.9992 289.2601 117.6502 289.2601 110.2902 289.2601 102.9402 280.9901 102.9402 272.7301 102.9402 272.7301 110.2902 264.4601 110.2902 264.4601 117.6502 256.2001 117.6502 256.2001 124.9992 256.2001 132.3502 264.4601 132.3502"></polygon>
                <polygon id="Fill-61" fill="#231F20" points="256.2 44.12 264.461 44.12 264.461 36.761 256.2 36.761"></polygon>
                <polygon id="Fill-62" fill="#231F20" points="247.93 250 256.2 250 256.2 242.65 247.93 242.65"></polygon>
                <polygon id="Fill-63" fill="#231F20" points="247.93 36.76 256.2 36.76 256.2 29.409 247.93 29.409"></polygon>
                <polygon id="Fill-64" fill="#231F20" points="239.6696 22.0602 231.3996 22.0602 231.3996 29.4102 239.6696 29.4102 247.9306 29.4102 247.9306 22.0602"></polygon>
                <polygon id="Fill-65" fill="#231F20" points="231.4 294.121 239.67 294.121 239.67 286.761 231.4 286.761"></polygon>
                <polygon id="Fill-66" fill="#231F20" points="231.4 7.3502 223.14 7.3502 223.14 14.7102 223.14 22.0602 231.4 22.0602 231.4 14.7102"></polygon>
                <polygon id="Fill-67" fill="#231F20" points="206.6103 -5.68434189e-14 206.6103 7.35 214.8803 7.35 223.1403 7.35 223.1403 -5.68434189e-14"></polygon>
                <polygon id="Fill-68" fill="#231F20" points="198.3502 213.2301 198.3502 220.5901 198.3502 227.9401 190.0792 227.9401 190.0792 235.2911 190.0792 242.6501 190.0792 250.0001 181.8202 250.0001 181.8202 257.3501 181.8202 264.7101 181.8202 272.0601 181.8202 279.4101 181.8202 286.7601 173.5502 286.7601 173.5502 294.1211 173.5502 301.4701 173.5502 308.8201 173.5502 316.1801 165.2892 316.1801 157.0202 316.1801 157.0202 323.5301 165.2892 323.5301 173.5502 323.5301 173.5502 330.8801 173.5502 338.2301 181.8202 338.2301 181.8202 330.8801 181.8202 323.5301 181.8202 316.1801 181.8202 308.8201 181.8202 301.4701 181.8202 294.1211 190.0792 294.1211 190.0792 286.7601 190.0792 279.4101 190.0792 272.0601 190.0792 264.7101 190.0792 257.3501 198.3502 257.3501 198.3502 250.0001 198.3502 242.6501 198.3502 235.2911 206.6102 235.2911 206.6102 227.9401 206.6102 220.5901 206.6102 213.2301 206.6102 205.8801 198.3502 205.8801"></polygon>
                <polygon id="Fill-69" fill="#231F20" points="198.3502 198.5299 206.6102 198.5299 206.6102 205.8809 214.8802 205.8809 214.8802 198.5299 214.8802 191.1799 206.6102 191.1799 206.6102 183.8199 198.3502 183.8199 198.3502 191.1799"></polygon>
                <polygon id="Fill-70" fill="#231F20" points="198.3502 14.7105 198.3502 22.0605 206.6102 22.0605 206.6102 14.7105 206.6102 7.3505 198.3502 7.3505"></polygon>
                <polygon id="Fill-71" fill="#231F20" points="190.0797 183.8199 198.3507 183.8199 198.3507 176.4699 198.3507 169.1199 190.0797 169.1199 190.0797 176.4699"></polygon>
                <polygon id="Fill-72" fill="#231F20" points="190.0797 29.4098 190.0797 36.7608 190.0797 44.1198 190.0797 51.4708 198.3507 51.4708 198.3507 44.1198 198.3507 36.7608 198.3507 29.4098 198.3507 22.0598 190.0797 22.0598"></polygon>
                <polygon id="Fill-73" fill="#231F20" points="181.8199 58.8199 181.8199 66.1799 181.8199 73.5299 181.8199 80.8809 190.0799 80.8809 190.0799 73.5299 190.0799 66.1799 190.0799 58.8199 190.0799 51.4699 181.8199 51.4699"></polygon>
                <polygon id="Fill-74" fill="#231F20" points="173.551 367.65 181.82 367.65 181.82 360.291 173.551 360.291"></polygon>
                <polygon id="Fill-75" fill="#231F20" points="173.5504 88.2301 173.5504 95.5901 173.5504 102.9401 173.5504 110.2911 173.5504 117.6501 173.5504 125.0001 173.5504 132.3501 173.5504 139.7101 173.5504 147.0601 173.5504 154.4101 181.8204 154.4101 181.8204 161.7601 181.8204 169.1201 190.0794 169.1201 190.0794 161.7601 190.0794 154.4101 190.0794 147.0601 181.8204 147.0601 181.8204 139.7101 181.8204 132.3501 181.8204 125.0001 181.8204 117.6501 181.8204 110.2911 181.8204 102.9401 181.8204 95.5901 181.8204 88.2301 181.8204 80.8801 173.5504 80.8801"></polygon>
                <polygon id="Fill-76" fill="#231F20" points="148.7604 308.8199 140.4994 308.8199 132.2304 308.8199 132.2304 316.1799 140.4994 316.1799 148.7604 316.1799 157.0204 316.1799 157.0204 308.8199"></polygon>
                <polygon id="Fill-77" fill="#231F20" points="148.7601 360.2907 140.5001 360.2907 132.2301 360.2907 132.2301 367.6497 140.5001 367.6497 148.7601 367.6497 157.0201 367.6497 157.0201 360.2907"></polygon>
                <polygon id="Fill-78" fill="#231F20" points="123.97 308.82 132.23 308.82 132.23 301.47 123.97 301.47"></polygon>
                <polygon id="Fill-79" fill="#231F20" points="123.9703 360.2906 132.2303 360.2906 132.2303 352.9396 123.9703 352.9396 115.6993 352.9396 115.6993 360.2906"></polygon>
                <polygon id="Fill-80" fill="#231F20" points="115.7 301.47 123.971 301.47 123.971 294.12 115.7 294.12"></polygon>
                <polygon id="Fill-81" fill="#231F20" points="115.6998 279.4098 107.4398 279.4098 107.4398 286.7608 107.4398 294.1208 115.6998 294.1208 115.6998 286.7608"></polygon>
                <polygon id="Fill-82" fill="#231F20" points="107.4401 352.94 115.7001 352.94 115.7001 345.59 107.4401 345.59 99.1691 345.59 99.1691 352.94"></polygon>
                <polygon id="Fill-83" fill="#231F20" points="107.4401 264.7105 107.4401 257.3505 99.1691 257.3505 99.1691 249.9995 99.1691 242.6495 90.9101 242.6495 90.9101 249.9995 90.9101 257.3505 90.9101 264.7105 99.1691 264.7105 99.1691 272.0605 99.1691 279.4095 107.4401 279.4095 107.4401 272.0605"></polygon>
                <polygon id="Fill-84" fill="#231F20" points="107.4401 176.4703 107.4401 169.1193 107.4401 161.7603 107.4401 154.4093 107.4401 147.0603 107.4401 139.7103 99.1691 139.7103 99.1691 132.3503 99.1691 124.9993 90.9101 124.9993 82.6401 124.9993 74.3801 124.9993 66.1201 124.9993 66.1201 132.3503 74.3801 132.3503 82.6401 132.3503 90.9101 132.3503 90.9101 139.7103 90.9101 147.0603 99.1691 147.0603 99.1691 154.4093 99.1691 161.7603 99.1691 169.1193 99.1691 176.4703 99.1691 183.8203 107.4401 183.8203"></polygon>
                <polygon id="Fill-85" fill="#231F20" points="99.1696 205.8805 99.1696 198.5295 99.1696 191.1805 99.1696 183.8195 90.9096 183.8195 90.9096 191.1805 90.9096 198.5295 90.9096 205.8805 90.9096 213.2305 99.1696 213.2305"></polygon>
                <polygon id="Fill-86" fill="#231F20" points="90.9098 345.5904 99.1698 345.5904 99.1698 338.2304 90.9098 338.2304 82.6398 338.2304 82.6398 345.5904"></polygon>
                <polygon id="Fill-87" fill="#231F20" points="90.9098 227.94 90.9098 220.59 90.9098 213.23 82.6398 213.23 82.6398 220.59 82.6398 227.94 82.6398 235.291 82.6398 242.65 90.9098 242.65 90.9098 235.291"></polygon>
                <polygon id="Fill-88" fill="#231F20" points="74.38 338.23 82.64 338.23 82.64 330.88 74.38 330.88"></polygon>
                <polygon id="Fill-89" fill="#231F20" points="66.1198 330.8805 74.3808 330.8805 74.3808 323.5295 74.3808 316.1805 66.1198 316.1805 66.1198 323.5295"></polygon>
                <polygon id="Fill-90" fill="#231F20" points="57.8502 308.8199 57.8502 316.1799 66.1202 316.1799 66.1202 308.8199 66.1202 301.4699 66.1202 294.1209 57.8502 294.1209 57.8502 301.4699"></polygon>
                <polygon id="Fill-91" fill="#231F20" points="57.85 139.711 66.12 139.711 66.12 132.351 57.85 132.351"></polygon>
                <polygon id="Fill-92" fill="#231F20" points="49.5895 147.0602 49.5895 154.4102 49.5895 161.7602 49.5895 169.1202 57.8505 169.1202 57.8505 161.7602 57.8505 154.4102 57.8505 147.0602 57.8505 139.7102 49.5895 139.7102"></polygon>
                <polygon id="Fill-93" fill="#231F20" points="41.3199 279.4098 41.3199 286.7608 49.5899 286.7608 49.5899 294.1208 57.8499 294.1208 57.8499 286.7608 57.8499 279.4098 49.5899 279.4098 49.5899 272.0598 49.5899 264.7108 41.3199 264.7108 41.3199 272.0598"></polygon>
                <polygon id="Fill-94" fill="#231F20" points="41.3199 176.4703 41.3199 183.8203 41.3199 191.1803 41.3199 198.5303 41.3199 205.8803 49.5899 205.8803 49.5899 198.5303 49.5899 191.1803 49.5899 183.8203 49.5899 176.4703 49.5899 169.1193 41.3199 169.1193"></polygon>
                <polygon id="Fill-95" fill="#231F20" points="33.0602 213.2301 33.0602 220.5901 33.0602 227.9401 33.0602 235.2911 33.0602 242.6501 33.0602 250.0001 33.0602 257.3501 33.0602 264.7101 41.3202 264.7101 41.3202 257.3501 41.3202 250.0001 41.3202 242.6501 41.3202 235.2911 41.3202 227.9401 41.3202 220.5901 41.3202 213.2301 41.3202 205.8801 33.0602 205.8801"></polygon>
                <polygon id="Fill-96" fill="#808285" points="41.3199 102.9402 33.0609 102.9402 33.0609 110.2902 24.7899 110.2902 16.5299 110.2902 16.5299 117.6502 8.2599 117.6502 8.2599 124.9992 8.2599 132.3502 -0.0001 132.3502 -0.0001 139.7102 -0.0001 147.0602 8.2599 147.0602 8.2599 139.7102 16.5299 139.7102 16.5299 132.3502 16.5299 124.9992 24.7899 124.9992 24.7899 117.6502 33.0609 117.6502 41.3199 117.6502 41.3199 110.2902 49.5889 110.2902 49.5889 102.9402"></polygon>
                <polygon id="Fill-97" fill="#808285" points="33.0602 124.9996 33.0602 132.3506 24.7892 132.3506 24.7892 139.7106 24.7892 147.0606 33.0602 147.0606 33.0602 139.7106 41.3202 139.7106 41.3202 132.3506 49.5892 132.3506 49.5892 124.9996 41.3202 124.9996"></polygon>
            </g>
            <rect id="table" fill="#4B4B4B" x="94" y="705" width="1252" height="8"></rect>
            <g id="Loading" transform="translate(361.000000, 278.000000)" fill="#333333" font-family="KlavikaBold-Bold, Klavika Bold" font-size="32" font-weight="bold">
                <text id="MAKING..">
                    <tspan x="0" y="30">MAKING..</tspan>
                </text>
            </g>
            <g id="img_talkbox" transform="translate(633.000000, 83.000000)" fill="#231F20">
                <polygon id="Fill-1" points="595.0404 44.1102 595.0404 51.4702 595.0404 58.8202 595.0404 66.1692 603.3094 66.1692 603.3094 73.5302 603.3094 80.8802 603.3094 88.2302 603.3094 95.5792 603.3094 102.9402 603.3094 110.2902 603.3094 117.6402 603.3094 124.9992 595.0404 124.9992 595.0404 132.3502 595.0404 139.7002 586.7804 139.7002 586.7804 147.0602 578.5204 147.0602 578.5204 154.4092 570.2494 154.4092 561.9894 154.4092 561.9894 161.7602 553.7204 161.7602 545.4604 161.7602 545.4604 169.1102 537.1904 169.1102 528.9304 169.1102 528.9304 176.4702 520.6604 176.4702 512.3994 176.4702 504.1404 176.4702 495.8704 176.4702 495.8704 183.8202 487.6104 183.8202 479.3394 183.8202 471.0794 183.8202 462.8094 183.8202 454.5504 183.8202 446.2794 183.8202 446.2794 191.1692 438.0204 191.1692 429.7594 191.1692 421.4894 191.1692 413.2294 191.1692 404.9604 191.1692 396.6994 191.1692 388.4304 191.1692 380.1694 191.1692 371.8994 191.1692 363.6404 191.1692 355.3804 191.1692 347.1104 191.1692 338.8504 191.1692 330.5794 191.1692 322.3194 191.1692 314.0504 191.1692 305.7904 191.1692 297.5204 191.1692 289.2594 191.1692 280.9994 191.1692 272.7294 191.1692 272.7294 183.8202 264.4704 183.8202 256.1994 183.8202 247.9404 183.8202 239.6694 183.8202 231.4094 183.8202 223.1394 183.8202 214.8804 183.8202 206.6204 183.8202 198.3504 183.8202 190.0894 183.8202 181.8194 183.8202 173.5604 183.8202 165.2904 183.8202 157.0304 183.8202 148.7594 183.8202 140.4994 183.8202 132.2294 183.8202 132.2294 176.4702 123.9704 176.4702 115.7104 176.4702 115.7104 169.1102 107.4404 169.1102 107.4404 161.7602 99.1804 161.7602 90.9104 161.7602 82.6494 161.7602 74.3804 161.7602 66.1194 161.7602 66.1194 169.1102 57.8504 169.1102 49.5894 169.1102 49.5894 176.4702 41.3294 176.4702 41.3294 183.8202 41.3294 191.1692 41.3294 198.5302 49.5894 198.5302 49.5894 191.1692 49.5894 183.8202 57.8504 183.8202 57.8504 176.4702 66.1194 176.4702 74.3804 176.4702 74.3804 169.1102 82.6494 169.1102 90.9104 169.1102 99.1804 169.1102 99.1804 176.4702 107.4404 176.4702 107.4404 183.8202 115.7104 183.8202 123.9704 183.8202 123.9704 191.1692 132.2294 191.1692 140.4994 191.1692 148.7594 191.1692 157.0304 191.1692 165.2904 191.1692 173.5604 191.1692 181.8194 191.1692 190.0894 191.1692 198.3504 191.1692 206.6204 191.1692 214.8804 191.1692 223.1394 191.1692 231.4094 191.1692 239.6694 191.1692 247.9404 191.1692 256.1994 191.1692 264.4704 191.1692 264.4704 198.5302 272.7294 198.5302 280.9994 198.5302 289.2594 198.5302 297.5204 198.5302 305.7904 198.5302 314.0504 198.5302 322.3194 198.5302 330.5794 198.5302 338.8504 198.5302 347.1104 198.5302 355.3804 198.5302 363.6404 198.5302 371.8994 198.5302 380.1694 198.5302 388.4304 198.5302 396.6994 198.5302 404.9604 198.5302 413.2294 198.5302 421.4894 198.5302 429.7594 198.5302 438.0204 198.5302 446.2794 198.5302 454.5504 198.5302 454.5504 191.1692 462.8094 191.1692 471.0794 191.1692 479.3394 191.1692 487.6104 191.1692 495.8704 191.1692 504.1404 191.1692 512.3994 191.1692 512.3994 183.8202 520.6604 183.8202 528.9304 183.8202 537.1904 183.8202 537.1904 176.4702 545.4604 176.4702 553.7204 176.4702 553.7204 169.1102 561.9894 169.1102 570.2494 169.1102 570.2494 161.7602 578.5204 161.7602 586.7804 161.7602 586.7804 154.4092 595.0404 154.4092 595.0404 147.0602 603.3094 147.0602 603.3094 139.7002 603.3094 132.3502 611.5694 132.3502 611.5694 58.8202 603.3094 58.8202 603.3094 51.4702 603.3094 44.1102"></polygon>
                <polygon id="Fill-2" points="570.2495 36.7604 578.5205 36.7604 586.7795 36.7604 586.7795 44.1104 595.0405 44.1104 595.0405 36.7604 595.0405 29.4094 586.7795 29.4094 578.5205 29.4094 578.5205 22.0604 570.2495 22.0604 570.2495 29.4094"></polygon>
                <polygon id="Fill-3" points="537.1899 14.6999 545.4609 14.6999 553.7199 14.6999 553.7199 22.0599 561.9899 22.0599 570.2499 22.0599 570.2499 14.6999 561.9899 14.6999 561.9899 7.3499 553.7199 7.3499 545.4609 7.3499 537.1899 7.3499 528.9299 7.3499 528.9299 14.6999"></polygon>
                <polygon id="Fill-4" points="0 176.4705 0 235.2905 8.27 235.2905 8.27 242.6405 8.27 249.9995 16.529 249.9995 16.529 257.3495 16.529 264.7005 16.529 272.0605 16.529 279.4095 16.529 286.7605 8.27 286.7605 8.27 294.1105 0 294.1105 0 308.8205 8.27 308.8205 8.27 301.4705 16.529 301.4705 16.529 294.1105 24.8 294.1105 24.8 286.7605 33.06 286.7605 41.33 286.7605 41.33 279.4095 41.33 272.0605 49.589 272.0605 49.589 264.7005 49.589 257.3495 49.589 249.9995 49.589 242.6405 49.589 235.2905 49.589 227.9395 49.589 220.5795 49.589 213.2305 41.33 213.2305 41.33 205.8805 41.33 198.5305 33.06 198.5305 33.06 205.8805 33.06 213.2305 33.06 220.5795 41.33 220.5795 41.33 227.9395 41.33 235.2905 41.33 242.6405 41.33 249.9995 41.33 257.3495 41.33 264.7005 33.06 264.7005 33.06 272.0605 33.06 279.4095 24.8 279.4095 24.8 272.0605 24.8 264.7005 24.8 257.3495 24.8 249.9995 24.8 242.6405 16.529 242.6405 16.529 235.2905 16.529 227.9395 8.27 227.9395 8.27 220.5795 8.27 213.2305 8.27 205.8805 8.27 198.5305 8.27 191.1695 8.27 183.8195 8.27 176.4705"></polygon>
                <polygon id="Fill-5" points="214.8804 0.0003 214.8804 7.3503 206.6204 7.3503 198.3504 7.3503 190.0894 7.3503 181.8194 7.3503 173.5604 7.3503 165.2904 7.3503 157.0304 7.3503 157.0304 14.7003 148.7594 14.7003 140.4994 14.7003 132.2294 14.7003 123.9704 14.7003 115.7104 14.7003 115.7104 22.0603 107.4404 22.0603 99.1804 22.0603 99.1804 29.4093 90.9094 29.4093 90.9094 36.7603 82.6494 36.7603 82.6494 44.1103 74.3804 44.1103 66.1194 44.1103 66.1194 51.4703 57.8504 51.4703 57.8504 58.8203 57.8504 66.1693 57.8504 73.5303 57.8504 80.8803 49.5894 80.8803 49.5894 88.2303 49.5894 95.5793 49.5894 102.9403 49.5894 110.2903 49.5894 117.6403 41.3294 117.6403 41.3294 124.9993 33.0594 124.9993 33.0594 132.3503 33.0594 139.7003 41.3294 139.7003 41.3294 132.3503 49.5894 132.3503 49.5894 124.9993 57.8504 124.9993 57.8504 117.6403 57.8504 110.2903 57.8504 102.9403 57.8504 95.5793 57.8504 88.2303 66.1194 88.2303 66.1194 80.8803 66.1194 73.5303 66.1194 66.1693 66.1194 58.8203 74.3804 58.8203 74.3804 51.4703 82.6494 51.4703 90.9094 51.4703 90.9094 44.1103 99.1804 44.1103 99.1804 36.7603 107.4404 36.7603 107.4404 29.4093 115.7104 29.4093 123.9704 29.4093 123.9704 22.0603 132.2294 22.0603 140.4994 22.0603 148.7594 22.0603 157.0304 22.0603 165.2904 22.0603 165.2904 14.7003 173.5604 14.7003 181.8194 14.7003 190.0894 14.7003 198.3504 14.7003 206.6204 14.7003 214.8804 14.7003 223.1394 14.7003 223.1394 7.3503 231.4094 7.3503 239.6694 7.3503 247.9404 7.3503 256.1994 7.3503 264.4704 7.3503 272.7294 7.3503 280.9994 7.3503 289.2594 7.3503 297.5204 7.3503 305.7904 7.3503 314.0504 7.3503 322.3194 7.3503 330.5794 7.3503 338.8504 7.3503 347.1104 7.3503 355.3804 7.3503 363.6404 7.3503 371.8994 7.3503 380.1694 7.3503 388.4304 7.3503 396.6994 7.3503 404.9604 7.3503 413.2294 7.3503 421.4894 7.3503 429.7594 7.3503 438.0204 7.3503 446.2794 7.3503 454.5504 7.3503 462.8094 7.3503 471.0794 7.3503 479.3394 7.3503 487.6104 7.3503 495.8704 7.3503 504.1404 7.3503 512.3994 7.3503 520.6604 7.3503 528.9304 7.3503 528.9304 0.0003"></polygon>
                <polygon id="Fill-6" points="24.8003 147.0602 33.0603 147.0602 33.0603 139.7002 24.8003 139.7002 16.5293 139.7002 16.5293 147.0602 16.5293 154.4102 24.8003 154.4102"></polygon>
                <polygon id="Fill-7" points="16.5298 169.11 16.5298 161.76 16.5298 154.41 8.2698 154.41 8.2698 161.76 8.2698 169.11 8.2698 176.47 16.5298 176.47"></polygon>
            </g>
            <text id="이건…!!!-완벽한-비율이다냥-내-냥" font-family="SpoqaHanSans-Bold, SpoqaHanSans" font-size="24" font-weight="bold" fill="#333333">
                <tspan x="824.332" y="172">이건…!!! 완벽한 비율이다냥</tspan>
                <tspan x="800.044" y="208">내 냥생 최고의 술이 만들어지겠군</tspan>
            </text>
            <g id="Group" transform="translate(872.000000, 436.000000)" fill="#231F20">
                <g id="cup">
                    <polygon id="Fill-2" points="0 0.0001 0 6.1191 0 12.2401 0 18.3701 0 24.4101 0 30.5301 0 36.6601 0 42.7801 0 48.9001 0 55.0201 0 61.0701 0 67.1901 0 73.3101 0 79.4391 0 85.5601 0 91.6801 0 97.8101 0 103.8501 0 109.9701 0 116.0901 0 122.2201 0 128.3401 6.12 128.3401 6.12 122.2201 6.12 116.0901 6.12 109.9701 6.12 103.8501 6.12 97.8101 6.12 91.6801 6.12 85.5601 6.12 79.4391 6.12 73.3101 6.12 67.1901 6.12 61.0701 6.12 55.0201 6.12 48.9001 6.12 42.7801 6.12 36.6601 6.12 30.5301 6.12 24.4101 6.12 18.3701 6.12 12.2401 6.12 6.1191 12.24 6.1191 18.37 6.1191 24.49 6.1191 30.53 6.1191 36.66 6.1191 42.78 6.1191 48.9 6.1191 55.03 6.1191 61.15 6.1191 67.19 6.1191 73.31 6.1191 79.44 6.1191 85.56 6.1191 91.68 6.1191 97.81 6.1191 103.93 6.1191 109.97 6.1191 116.1 6.1191 122.221 6.1191 128.34 6.1191 134.46 6.1191 140.59 6.1191 146.71 6.1191 152.75 6.1191 158.881 6.1191 165 6.1191 171.12 6.1191 177.24 6.1191 183.37 6.1191 189.49 6.1191 195.53 6.1191 201.66 6.1191 207.78 6.1191 213.9 6.1191 220.03 6.1191 226.15 6.1191 232.19 6.1191 238.31 6.1191 244.44 6.1191 250.56 6.1191 250.56 12.2401 250.56 18.3701 250.56 24.4101 250.56 30.5301 250.56 36.6601 250.56 42.7801 250.56 48.9001 250.56 55.0201 250.56 61.0701 250.56 67.1901 250.56 73.3101 250.56 79.4391 250.56 85.5601 250.56 91.6801 250.56 97.8101 250.56 103.8501 250.56 109.9701 250.56 116.0901 250.56 122.2201 250.56 128.3401 256.679 128.3401 256.679 122.2201 256.679 116.0901 256.679 109.9701 256.679 103.8501 256.679 97.8101 256.679 91.6801 256.679 85.5601 256.679 79.4391 256.679 73.3101 256.679 67.1901 256.679 61.0701 256.679 55.0201 256.679 48.9001 256.679 42.7801 256.679 36.6601 256.679 30.5301 256.679 24.4101 256.679 18.3701 256.679 12.2401 256.679 6.1191 256.679 0.0001"></polygon>
                    <polygon id="Fill-3" points="244.4402 134.4594 244.4402 140.5904 244.4402 146.6304 244.4402 152.7504 244.4402 158.8804 244.4402 165.0004 244.4402 171.1194 244.4402 177.2394 244.4402 183.3694 244.4402 189.4094 244.4402 195.5294 250.5602 195.5294 250.5602 189.4094 250.5602 183.3694 250.5602 177.2394 250.5602 171.1194 250.5602 165.0004 250.5602 158.8804 250.5602 152.7504 250.5602 146.6304 250.5602 140.5904 250.5602 134.4594 250.5602 128.3404 244.4402 128.3404"></polygon>
                    <polygon id="Fill-4" points="238.3103 201.6596 238.3103 207.7796 238.3103 213.8996 244.4403 213.8996 244.4403 207.7796 244.4403 201.6596 244.4403 195.5296 238.3103 195.5296"></polygon>
                    <polygon id="Fill-5" points="232.1902 220.02 232.1902 226.07 238.3102 226.07 238.3102 220.02 238.3102 213.9 232.1902 213.9"></polygon>
                    <polygon id="Fill-6" points="226.15 232.19 232.19 232.19 232.19 226.07 226.15 226.07"></polygon>
                    <polygon id="Fill-7" points="220.03 238.31 226.15 238.31 226.15 232.19 220.03 232.19"></polygon>
                    <polygon id="Fill-8" points="213.9 244.44 220.03 244.44 220.03 238.31 213.9 238.31"></polygon>
                    <polygon id="Fill-9" points="207.78 250.56 213.9 250.56 213.9 244.44 207.78 244.44"></polygon>
                    <polygon id="Fill-10" points="201.6603 250.5601 195.5303 250.5601 189.4893 250.5601 183.3693 250.5601 177.2393 250.5601 171.1193 250.5601 164.9993 250.5601 158.8803 250.5601 152.7503 250.5601 146.7103 250.5601 140.5903 250.5601 134.4603 250.5601 128.3403 250.5601 122.2213 250.5601 116.1003 250.5601 109.9703 250.5601 103.9303 250.5601 97.8103 250.5601 91.6803 250.5601 85.5603 250.5601 79.4403 250.5601 73.3103 250.5601 67.1903 250.5601 61.1503 250.5601 55.0293 250.5601 48.8993 250.5601 48.8993 256.6801 55.0293 256.6801 55.0293 262.8101 61.1503 262.8101 67.1903 262.8101 73.3103 262.8101 79.4403 262.8101 85.5603 262.8101 91.6803 262.8101 97.8103 262.8101 103.9303 262.8101 109.9703 262.8101 116.1003 262.8101 122.2213 262.8101 128.3403 262.8101 134.4603 262.8101 140.5903 262.8101 146.7103 262.8101 152.7503 262.8101 158.8803 262.8101 164.9993 262.8101 171.1193 262.8101 177.2393 262.8101 183.3693 262.8101 189.4893 262.8101 195.5303 262.8101 201.6603 262.8101 201.6603 256.6801 207.7803 256.6801 207.7803 250.5601"></polygon>
                    <polygon id="Fill-11" points="42.78 250.56 48.9 250.56 48.9 244.44 42.78 244.44"></polygon>
                    <polygon id="Fill-12" points="36.66 244.44 42.78 244.44 42.78 238.31 36.66 238.31"></polygon>
                    <polygon id="Fill-13" points="30.53 238.31 36.66 238.31 36.66 232.19 30.53 232.19"></polygon>
                    <polygon id="Fill-14" points="24.49 232.19 30.53 232.19 30.53 226.07 24.49 226.07"></polygon>
                    <polygon id="Fill-15" points="24.49 213.8998 18.37 213.8998 18.37 220.0198 18.37 226.0698 24.49 226.0698 24.49 220.0198"></polygon>
                    <polygon id="Fill-16" points="18.3699 201.6596 18.3699 195.5296 12.2399 195.5296 12.2399 201.6596 12.2399 207.7796 12.2399 213.8996 18.3699 213.8996 18.3699 207.7796"></polygon>
                    <polygon id="Fill-17" points="12.24 183.3696 12.24 177.2396 12.24 171.1196 12.24 165.0006 12.24 158.8806 12.24 152.7506 12.24 146.6306 12.24 140.5906 12.24 134.4596 12.24 128.3406 6.12 128.3406 6.12 134.4596 6.12 140.5906 6.12 146.6306 6.12 152.7506 6.12 158.8806 6.12 165.0006 6.12 171.1196 6.12 177.2396 6.12 183.3696 6.12 189.4096 6.12 195.5296 12.24 195.5296 12.24 189.4096"></polygon>
                </g>
            </g>
        </g>
    </g>
</svg>