<?xml version="1.0" encoding="UTF-8"?>
<svg width="128px" height="110px" viewBox="0 0 128 110" version="1.1" xmlns="http://www.w3.org/2000/svg" xmlns:xlink="http://www.w3.org/1999/xlink">
    <!-- Generator: sketchtool 49.3 (51167) - http://www.bohemiancoding.com/sketch -->
    <title>E31AFEFD-8DB5-41CD-A2A4-41FD4F1AFBA9</title>
    <desc>Created with sketchtool.</desc>
    <defs></defs>
    <g id="Page-1" stroke="none" stroke-width="1" fill="none" fill-rule="evenodd">
        <g id="Market_Resize" transform="translate(-1246.000000, -93.000000)">
            <g id="Cart" transform="translate(1199.000000, 61.000000)">
                <g id="top_cart" transform="translate(47.000000, 32.000000)">
                    <g id="img_cat">
                        <polygon id="Fill-1" fill="#FFBAAE" points="67 15 67 17.9998828 67 21.0001172 67 24 70 24 70 21.0001172 70 17.9998828 70 15"></polygon>
                        <polygon id="Fill-2" fill="#FFBAAE" points="61 17.9998828 61 20.9999414 61 24 64 24 64 20.9999414 64 17.9998828 64 15 61 15"></polygon>
                        <path d="M43.1436479,30.4991944 L43.1436479,27.4433305 L46.189745,27.4433305 L49.2376276,27.4433305 L52.2853317,27.4433305 L52.2853317,30.4991944 L52.2853317,33.5548793 L49.2376276,33.5548793 L46.189745,33.5548793 L46.189745,30.4991944 L43.1436479,30.4991944 Z M64.4768622,48.8343776 L64.4768622,51.8882723 L61.4291581,51.8882723 L58.3812755,51.8882723 L58.3812755,48.8343776 L61.4291581,48.8343776 L61.4291581,45.7785137 L64.4768622,45.7785137 L64.4768622,42.7224709 L64.4768622,39.666786 L61.4291581,39.666786 L61.4291581,36.6109221 L64.4768622,36.6109221 L67.5231378,36.6109221 L70.5708419,36.6109221 L70.5708419,39.666786 L67.5231378,39.666786 L67.5231378,42.7224709 L67.5231378,45.7785137 L70.5708419,45.7785137 L70.5708419,48.8343776 L73.6189031,48.8343776 L73.6189031,51.8882723 L70.5708419,51.8882723 L67.5231378,51.8882723 L67.5231378,48.8343776 L64.4768622,48.8343776 Z M85.8104336,33.5548793 L82.762551,33.5548793 L79.7146683,33.5548793 L79.7146683,30.4991944 L79.7146683,27.4433305 L82.762551,27.4433305 L85.8104336,27.4433305 L88.8565307,27.4433305 L88.8565307,30.4991944 L85.8104336,30.4991944 L85.8104336,33.5548793 Z M94.9522959,3 L94.9522959,6.05389465 L91.9044133,6.05389465 L91.9044133,9.10993754 L88.8565307,9.10993754 L88.8565307,12.1658014 L88.8565307,15.2216653 L85.8104336,15.2216653 L82.762551,15.2216653 L79.7146683,15.2216653 L76.6667857,15.2216653 L73.6189031,15.2216653 L70.5708419,15.2216653 L70.5708419,18.2773501 L70.5708419,21.333393 L70.5708419,24.3890779 L67.5231378,24.3890779 L67.5231378,21.333393 L67.5231378,18.2773501 L67.5231378,15.2216653 L64.4768622,15.2216653 L64.4768622,18.2773501 L64.4768622,21.333393 L64.4768622,24.3890779 L61.4291581,24.3890779 L61.4291581,21.333393 L61.4291581,18.2773501 L61.4291581,15.2216653 L58.3812755,15.2216653 L55.3333929,15.2216653 L52.2853317,15.2216653 L49.2376276,15.2216653 L46.189745,15.2216653 L43.1436479,15.2216653 L43.1436479,12.1658014 L43.1436479,9.10993754 L40.0957652,9.10993754 L40.0957652,6.05389465 L37.0477041,6.05389465 L37.0477041,3 L34,3 L34,6.05389465 L34,9.10993754 L34,12.1658014 L34,15.2216653 L34,18.2773501 L34,21.333393 L34,24.3890779 L34,27.4433305 L34,30.4991944 L34,33.5548793 L34,36.6109221 L37.0477041,36.6109221 L40.0957652,36.6109221 L43.1436479,36.6109221 L43.1436479,39.666786 L40.0957652,39.666786 L37.0477041,39.666786 L34,39.666786 L34,42.7224709 L37.0477041,42.7224709 L40.0957652,42.7224709 L43.1436479,42.7224709 L43.1436479,45.7785137 L40.0957652,45.7785137 L37.0477041,45.7785137 L34,45.7785137 L34,48.8343776 L34,51.8882723 L34,54.9443152 L34,58 L37.0477041,58 L40.0957652,58 L43.1436479,58 L46.189745,58 L49.2376276,58 L52.2853317,58 L55.3333929,58 L58.3812755,58 L61.4291581,58 L64.4768622,58 L67.5231378,58 L70.5708419,58 L73.6189031,58 L76.6667857,58 L79.7146683,58 L82.762551,58 L85.8104336,58 L88.8565307,58 L91.9044133,58 L94.9522959,58 L98,58 L98,54.9443152 L98,51.8882723 L98,48.8343776 L98,45.7785137 L94.9522959,45.7785137 L91.9044133,45.7785137 L88.8565307,45.7785137 L88.8565307,42.7224709 L91.9044133,42.7224709 L94.9522959,42.7224709 L98,42.7224709 L98,39.666786 L94.9522959,39.666786 L91.9044133,39.666786 L88.8565307,39.666786 L88.8565307,36.6109221 L91.9044133,36.6109221 L94.9522959,36.6109221 L98,36.6109221 L98,33.5548793 L98,30.4991944 L98,27.4433305 L98,24.3890779 L98,21.333393 L98,18.2773501 L98,15.2216653 L98,12.1658014 L98,9.10993754 L98,6.05389465 L98,3 L94.9522959,3 Z" id="Fill-3" fill="#FFFFFF"></path>
                        <polygon id="Fill-4" fill="#C69C6D" points="121.937276 61 118.874731 61 115.811827 61 112.749282 61 109.688173 61 106.625449 61 103.562904 61 100.500179 61 97.4372757 61 94.3747309 61 91.3120066 61 88.2491029 61 85.1883523 61 82.1254486 61 79.0629037 61 79.0629037 64.0669062 79.0629037 67.1339921 79.0629037 70.2007187 79.0629037 73.2660079 76.0001794 73.2660079 76.0001794 76.3327344 76.0001794 79.3996407 72.9372757 79.3996407 69.8745514 79.3996407 66.8120066 79.3996407 66.8120066 76.3327344 66.8120066 73.2660079 66.8120066 70.2007187 66.8120066 67.1339921 66.8120066 64.0669062 66.8120066 61 63.7508971 61 60.6883523 61 57.625628 61 54.5627243 61 51.5 61 48.4374551 61 45.3745514 61 42.3138008 61 39.2508971 61 36.1881728 61 33.125628 61 30.0627243 61 27 61 27 64.0669062 27 67.1339921 27 70.2007187 27 73.2660079 27 76.3327344 27 79.3996407 27 82.4665469 27 85.5336328 27 88.6003593 27 91.6672656 27 94.7323751 27 97.7992813 27 100.866367 27 103.933094 27 107 30.0627243 107 33.125628 107 36.1881728 107 39.2508971 107 42.3138008 107 45.3745514 107 48.4374551 107 51.5 107 54.5627243 107 57.625628 107 60.6883523 107 63.7508971 107 66.8120066 107 69.8745514 107 72.9372757 107 76.0001794 107 79.0629037 107 82.1254486 107 85.1883523 107 88.2491029 107 91.3120066 107 94.3747309 107 97.4372757 107 100.500179 107 103.562904 107 106.625449 107 109.688173 107 112.749282 107 115.811827 107 115.811827 103.933094 118.874731 103.933094 121.937276 103.933094 121.937276 100.866367 125 100.866367 125 97.7992813 125 94.7323751 125 91.6672656 125 88.6003593 125 85.5336328 125 82.4665469 125 79.3996407 125 76.3327344 125 73.2660079 125 70.2007187 125 67.1339921 125 64.0669062 125 61"></polygon>
                        <polygon id="Fill-5" fill="#C69C6D" points="20.9997489 55.2375851 18.0012554 55.2375851 18.0012554 52.189711 15.0010044 52.189711 15.0010044 49.1436224 12.0007533 49.1436224 12.0007533 46.0957482 9.00050218 46.0957482 9.00050218 43.0476956 6.00025109 43.0476956 6.00025109 40 3 40 3 43.0476956 3 46.0957482 3 49.1436224 3 52.189711 3 55.2375851 3 58.2852807 3 61.3333333 3 64.3812075 3 67.4290816 3 70.4769557 3 73.5230443 3 76.5707399 3 79.6187925 3 82.6666667 3 85.7145408 6.00025109 85.7145408 6.00025109 88.7624149 9.00050218 88.7624149 9.00050218 91.810289 12.0007533 91.810289 12.0007533 94.8563776 15.0010044 94.8563776 15.0010044 97.9042518 18.0012554 97.9042518 18.0012554 100.952126 20.9997489 100.952126 20.9997489 104 24 104 24 100.952126 24 97.9042518 24 94.8563776 24 91.810289 24 88.7624149 24 85.7145408 24 82.6666667 24 79.6187925 24 76.5707399 24 73.5230443 24 70.4769557 24 67.4290816 24 64.3812075 24 61.3333333 24 58.2852807 20.9997489 58.2852807"></polygon>
                        <polygon id="Fill-6" fill="#A67C52" points="122.874748 54.9998996 122.874748 51.9996234 119.74968 51.9996234 119.74968 49.0011048 116.624245 49.0011048 116.624245 46.0008286 113.499176 46.0008286 113.499176 43.0003766 110.375572 43.0003766 110.375572 40.0002762 107.25032 40.0002762 107.25032 37 104.125252 37 104.125252 40.0002762 101 40.0002762 101 43.0003766 104.125252 43.0003766 104.125252 46.0008286 101 46.0008286 101 49.0011048 101 51.9996234 101 54.9998996 101 58 104.125252 58 107.25032 58 110.375572 58 113.499176 58 116.624245 58 119.74968 58 122.874748 58 126 58 126 54.9998996"></polygon>
                        <polygon id="Fill-7" fill="#A67C52" points="101 37 104 37 104 34 101 34"></polygon>
                        <polygon id="Fill-8" fill="#A67C52" points="72.9999121 61 69.9999561 61 67 61 67 64.0002929 67 67.0007616 67 70.0008788 67 72.9995899 67 75.9997071 67 79 69.9999561 79 72.9999121 79 75.9998682 79 75.9998682 75.9997071 75.9998682 72.9995899 79 72.9995899 79 70.0008788 79 67.0007616 79 64.0002929 79 61 75.9998682 61"></polygon>
                        <polygon id="Fill-9" fill="#A67C52" points="23.9996094 34 20.9994141 34 18.0009764 34 15.0007811 34 12.0004101 34 9.00039057 34 6.00019529 34 3 34 3 37.1252289 6.00019529 37.1252289 6.00019529 40.2506408 9.00039057 40.2506408 9.00039057 43.3756866 12.0004101 43.3756866 12.0004101 46.5009154 15.0007811 46.5009154 15.0007811 49.6263274 18.0009764 49.6263274 18.0009764 52.7495423 20.9994141 52.7495423 20.9994141 55.8747711 23.9996094 55.8747711 23.9996094 59 26.999629 59 30 59 30 55.8747711 30 52.7495423 30 49.6263274 30 46.5009154 26.999629 46.5009154 26.999629 43.3756866 30 43.3756866 30 40.2506408 26.999629 40.2506408 26.999629 37.1252289 30 37.1252289 30 34 26.999629 34"></polygon>
                        <polygon id="Fill-10" fill="#000000" points="45.9988281 33 48.9994141 33 52 33 52 30.0001757 52 27 48.9994141 27 45.9988281 27 43 27 43 30.0001757 45.9988281 30.0001757"></polygon>
                        <polygon id="Fill-11" fill="#000000" points="91.413985 0 91.413985 3.05722474 91.413985 6.11283748 94.4629833 6.11283748 94.4629833 3.05722474 97.5119817 3.05722474 97.5119817 6.11283748 97.5119817 9.17024133 97.5119817 12.2278243 97.5119817 15.2852281 97.5119817 18.3424529 97.5119817 21.4000358 97.5119817 24.4572606 97.5119817 27.5128733 97.5119817 30.5704563 97.5119817 33.627681 97.5119817 36.6850848 94.4629833 36.6850848 91.413985 36.6850848 88.3649867 36.6850848 88.3649867 39.7426678 91.413985 39.7426678 94.4629833 39.7426678 97.5119817 39.7426678 97.5119817 42.7998925 94.4629833 42.7998925 91.413985 42.7998925 88.3649867 42.7998925 88.3649867 45.8572964 91.413985 45.8572964 94.4629833 45.8572964 97.5119817 45.8572964 97.5119817 48.9148793 97.5119817 51.970313 97.5119817 55.0277168 97.5119817 58.0851207 94.4629833 58.0851207 91.413985 58.0851207 88.3649867 58.0851207 85.3177746 58.0851207 82.2687763 58.0851207 79.2199566 58.0851207 76.1707796 58.0851207 73.1217813 58.0851207 70.072783 58.0851207 67.0237847 58.0851207 63.9763939 58.0851207 60.9275742 58.0851207 57.8785759 58.0851207 54.829399 58.0851207 51.7804007 58.0851207 48.731581 58.0851207 45.6825827 58.0851207 42.6351919 58.0851207 39.5861936 58.0851207 36.5371953 58.0851207 33.488197 58.0851207 33.488197 55.0277168 33.488197 51.970313 33.488197 48.9148793 33.488197 45.8572964 36.5371953 45.8572964 39.5861936 45.8572964 42.6351919 45.8572964 42.6351919 42.7998925 39.5861936 42.7998925 36.5371953 42.7998925 33.488197 42.7998925 33.488197 39.7426678 36.5371953 39.7426678 39.5861936 39.7426678 42.6351919 39.7426678 42.6351919 36.6850848 39.5861936 36.6850848 36.5371953 36.6850848 33.488197 36.6850848 33.488197 33.627681 33.488197 30.5704563 33.488197 27.5128733 33.488197 24.4572606 33.488197 21.4000358 33.488197 18.3424529 33.488197 15.2852281 33.488197 12.2278243 33.488197 9.17024133 33.488197 6.11283748 33.488197 3.05722474 36.5371953 3.05722474 36.5371953 6.11283748 39.5861936 6.11283748 39.5861936 3.05722474 39.5861936 0 30.4391987 0 30.4391987 3.05722474 30.4391987 6.11283748 30.4391987 9.17024133 30.4391987 12.2278243 30.4391987 15.2852281 30.4391987 18.3424529 30.4391987 21.4000358 30.4391987 24.4572606 30.4391987 27.5128733 30.4391987 30.5704563 27.3902003 30.5704563 24.3413806 30.5704563 21.2923823 30.5704563 18.2451702 30.5704563 15.1959933 30.5704563 12.1469949 30.5704563 9.09817525 30.5704563 6.04899831 30.5704563 3 30.5704563 3 33.627681 6.04899831 33.627681 9.09817525 33.627681 12.1469949 33.627681 15.1959933 33.627681 18.2451702 33.627681 21.2923823 33.627681 24.3413806 33.627681 27.3902003 33.627681 30.4391987 33.627681 30.4391987 36.6850848 27.3902003 36.6850848 27.3902003 39.7426678 30.4391987 39.7426678 30.4391987 42.7998925 27.3902003 42.7998925 27.3902003 45.8572964 30.4391987 45.8572964 30.4391987 48.9148793 30.4391987 51.970313 30.4391987 55.0277168 30.4391987 58.0851207 27.3902003 58.0851207 24.3413806 58.0851207 24.3413806 61.1425245 24.3413806 64.1999284 24.3413806 67.2575113 24.3413806 70.314736 24.3413806 73.3705279 24.3413806 76.4277526 24.3413806 79.4851565 24.3413806 82.5425603 24.3413806 85.6001433 24.3413806 88.657368 24.3413806 91.714951 24.3413806 94.7703846 24.3413806 97.8277885 24.3413806 100.885371 24.3413806 103.942596 21.2923823 103.942596 21.2923823 107 24.3413806 107 27.3902003 107 27.3902003 103.942596 27.3902003 100.885371 27.3902003 97.8277885 27.3902003 94.7703846 27.3902003 91.714951 27.3902003 88.657368 27.3902003 85.6001433 27.3902003 82.5425603 27.3902003 79.4851565 27.3902003 76.4277526 27.3902003 73.3705279 27.3902003 70.314736 27.3902003 67.2575113 27.3902003 64.1999284 27.3902003 61.1425245 30.4391987 61.1425245 33.488197 61.1425245 36.5371953 61.1425245 39.5861936 61.1425245 42.6351919 61.1425245 45.6825827 61.1425245 48.731581 61.1425245 51.7804007 61.1425245 54.829399 61.1425245 57.8785759 61.1425245 60.9275742 61.1425245 63.9763939 61.1425245 67.0237847 61.1425245 70.072783 61.1425245 73.1217813 61.1425245 76.1707796 61.1425245 79.2199566 61.1425245 82.2687763 61.1425245 85.3177746 61.1425245 88.3649867 61.1425245 91.413985 61.1425245 94.4629833 61.1425245 97.5119817 61.1425245 100.56098 61.1425245 103.609978 61.1425245 106.658977 61.1425245 109.707975 61.1425245 112.755187 61.1425245 115.804185 61.1425245 118.853184 61.1425245 121.902182 61.1425245 124.95118 61.1425245 124.95118 64.1999284 124.95118 67.2575113 124.95118 70.314736 124.95118 73.3705279 124.95118 76.4277526 124.95118 79.4851565 124.95118 82.5425603 124.95118 85.6001433 124.95118 88.657368 124.95118 91.714951 124.95118 94.7703846 124.95118 97.8277885 124.95118 100.885371 121.902182 100.885371 121.902182 103.942596 124.95118 103.942596 128 103.942596 128 55.0277168 124.95118 55.0277168 124.95118 58.0851207 121.902182 58.0851207 118.853184 58.0851207 115.804185 58.0851207 112.755187 58.0851207 109.707975 58.0851207 106.658977 58.0851207 103.609978 58.0851207 100.56098 58.0851207 100.56098 55.0277168 100.56098 51.970313 100.56098 48.9148793 100.56098 45.8572964 103.609978 45.8572964 103.609978 42.7998925 100.56098 42.7998925 100.56098 39.7426678 103.609978 39.7426678 103.609978 36.6850848 100.56098 36.6850848 100.56098 33.627681 103.609978 33.627681 103.609978 30.5704563 100.56098 30.5704563 100.56098 27.5128733 100.56098 24.4572606 100.56098 21.4000358 100.56098 18.3424529 100.56098 15.2852281 100.56098 12.2278243 100.56098 9.17024133 100.56098 6.11283748 100.56098 3.05722474 100.56098 0"></polygon>
                        <polygon id="Fill-12" fill="#000000" points="122 55 125 55 125 52 122 52"></polygon>
                        <polygon id="Fill-13" fill="#000000" points="119 52 122 52 122 49 119 49"></polygon>
                        <polygon id="Fill-14" fill="#000000" points="117.96769 104 114.935203 104 114.935203 106.999912 111.902716 106.999912 108.872005 106.999912 105.839518 106.999912 102.80703 106.999912 99.7745431 106.999912 96.7420558 106.999912 93.7095685 106.999912 90.6770812 106.999912 87.644594 106.999912 84.6138832 106.999912 81.5813959 106.999912 78.5489086 106.999912 75.5164213 106.999912 72.483934 106.999912 69.4514467 106.999912 66.4189594 106.999912 63.388071 106.999912 60.3557613 106.999912 57.3232741 106.999912 54.2906091 106.999912 51.2581218 106.999912 48.2258122 106.999912 45.1933249 106.999912 42.1624365 106.999912 39.1299492 106.999912 36.0974619 106.999912 33.0649746 106.999912 30.0324873 106.999912 27 106.999912 27 110 30.0324873 110 33.0649746 110 36.0974619 110 39.1299492 110 42.1624365 110 45.1933249 110 48.2258122 110 51.2581218 110 54.2906091 110 57.3232741 110 60.3557613 110 63.388071 110 66.4189594 110 69.4514467 110 72.483934 110 75.5164213 110 78.5489086 110 81.5813959 110 84.6138832 110 87.644594 110 90.6770812 110 93.7095685 110 96.7420558 110 99.7745431 110 102.80703 110 105.839518 110 108.872005 110 111.902716 110 114.935203 110 117.96769 110 117.96769 106.999912 121 106.999912 121 104"></polygon>
                        <polygon id="Fill-15" fill="#000000" points="116 49 119 49 119 46 116 46"></polygon>
                        <polygon id="Fill-16" fill="#000000" points="113 46 116 46 116 43 113 43"></polygon>
                        <polygon id="Fill-17" fill="#000000" points="110 43 113 43 113 40 110 40"></polygon>
                        <polygon id="Fill-18" fill="#000000" points="107 40 110 40 110 37 107 37"></polygon>
                        <polygon id="Fill-19" fill="#000000" points="103 37 106 37 106 34 103 34"></polygon>
                        <polygon id="Fill-20" fill="#000000" points="89 9 92 9 92 6 89 6"></polygon>
                        <polygon id="Fill-21" fill="#000000" points="85.0011719 33 85.0011719 30.0001757 88 30.0001757 88 27 85.0011719 27 82.0005859 27 79 27 79 30.0001757 79 33 82.0005859 33"></polygon>
                        <polygon id="Fill-22" fill="#000000" points="64.0007031 52 64.0007031 49.0014061 66.9994727 49.0014061 66.9994727 52 69.9996485 52 73 52 73 49.0014061 69.9996485 49.0014061 69.9996485 46.0010546 66.9994727 46.0010546 66.9994727 43.0007031 66.9994727 40.0003515 69.9996485 40.0003515 69.9996485 37 66.9994727 37 64.0007031 37 61.0005273 37 61.0005273 40.0003515 64.0007031 40.0003515 64.0007031 43.0007031 64.0007031 46.0010546 61.0005273 46.0010546 61.0005273 49.0014061 58 49.0014061 58 52 61.0005273 52"></polygon>
                        <polygon id="Fill-23" fill="#000000" points="43 15 46.0652293 15 49.1322553 15 52.1991016 15 55.2663073 15 58.3333333 15 61.4003593 15 64.4672057 15 67.5326146 15 70.599461 15 73.6666667 15 76.7336927 15 79.8007187 15 82.8677447 15 85.9347707 15 89 15 89 12.0000879 89 9 85.9347707 9 85.9347707 12.0000879 82.8677447 12.0000879 79.8007187 12.0000879 76.7336927 12.0000879 73.6666667 12.0000879 70.599461 12.0000879 67.5326146 12.0000879 64.4672057 12.0000879 61.4003593 12.0000879 58.3333333 12.0000879 55.2663073 12.0000879 52.1991016 12.0000879 49.1322553 12.0000879 46.0652293 12.0000879 46.0652293 9 43 9 43 12.0000879"></polygon>
                        <polygon id="Fill-24" fill="#000000" points="39 9 42 9 42 6 39 6"></polygon>
                        <polygon id="Fill-25" fill="#000000" points="21 58 24 58 24 55 21 55"></polygon>
                        <polygon id="Fill-26" fill="#000000" points="18 104 21 104 21 101 18 101"></polygon>
                        <polygon id="Fill-27" fill="#000000" points="18 55 21 55 21 52 18 52"></polygon>
                        <polygon id="Fill-28" fill="#000000" points="15 100 18 100 18 97 15 97"></polygon>
                        <polygon id="Fill-29" fill="#000000" points="15 52 18 52 18 49 15 49"></polygon>
                        <polygon id="Fill-30" fill="#000000" points="12 98 15 98 15 95 12 95"></polygon>
                        <polygon id="Fill-31" fill="#000000" points="12 49 15 49 15 46 12 46"></polygon>
                        <polygon id="Fill-32" fill="#000000" points="9 95 12 95 12 92 9 92"></polygon>
                        <polygon id="Fill-33" fill="#000000" points="9 46 12 46 12 43 9 43"></polygon>
                        <polygon id="Fill-34" fill="#000000" points="6 92 9 92 9 89 6 89"></polygon>
                        <polygon id="Fill-35" fill="#000000" points="6 43 9 43 9 40 6 40"></polygon>
                        <polygon id="Fill-36" fill="#000000" points="3 88 6 88 6 85 3 85"></polygon>
                        <polygon id="Fill-37" fill="#000000" points="0 34 0 86 2.99982425 86 2.99982425 82.940797 2.99982425 79.8817732 2.99982425 76.8227493 2.99982425 73.7637255 2.99982425 70.7064938 2.99982425 67.6476491 2.99982425 64.5884461 2.99982425 61.5294223 2.99982425 58.4703985 2.99982425 55.4113747 2.99982425 52.3523509 2.99982425 49.2952983 2.99982425 46.2360953 2.99982425 43.1770715 2.99982425 40.1182268 6 40.1182268 6 37.0590238 2.99982425 37.0590238 2.99982425 34"></polygon>
                    </g>
                    <text id="Cart" font-family="KlavikaBold-Bold, Klavika Bold" font-size="18" font-weight="bold" line-spacing="18" fill="#4B4B4B">
                        <tspan x="58.025" y="98.142">Cart</tspan>
                    </text>
                </g>
            </g>
        </g>
    </g>
</svg>