<svg xmlns="http://www.w3.org/2000/svg" width="257" height="263" viewBox="0 0 257 263">
    <g fill="none" fill-rule="evenodd">
        <path fill="#FFF" d="M250.56 128.34v67.189h-6.12V213.9h-6.13v12.17h-6.12v6.12h-6.04v6.12h-6.121v6.13h-6.13v6.12h-6.12v6.12h-6.119v6.13H256.68V128.34z"/>
        <path fill="#FFF" d="M213.9 244.44v-6.13h6.13v-6.12h6.12v-6.12h6.04V213.9h6.12v-18.37h6.13v-67.19h6.12V36.66h-6.12v85.56h-6.13v67.19h-6.12v18.37h-6.04v12.24h-6.12v6.05h-6.13v6.12h-6.12v6.12h-6.12v6.13H55.03v-6.13H48.9v-6.12h-6.12v-6.12h-6.12v-6.05h-6.13v-12.24h-6.04v-18.37h-6.12v-67.19h-6.13V36.66H6.12v91.68h6.12v67.19h6.13v18.37h6.12v12.17h6.04v6.12h6.13v6.12h6.12v6.13h6.12v6.12h158.88v-6.12z"/>
        <path fill="#FFF" d="M0 128.34v134.47h55.03v-6.13H48.9v-6.12h-6.12v-6.12h-6.12v-6.13h-6.13v-6.12h-6.04v-6.12h-6.12V213.9h-6.13v-18.37H6.12V128.34z"/>
        <path fill="#231F20" d="M0 0v128.34h6.12V6.12h244.44V128.34h6.12V0zM244.44 134.46V195.53h6.12v-67.19h-6.12zM238.31 201.66v12.24h6.13v-18.37h-6.13zM232.19 220.02v6.05h6.12V213.9h-6.12zM226.15 232.19h6.04v-6.12h-6.04zM220.03 238.31h6.12v-6.12h-6.12zM213.9 244.44h6.13v-6.13h-6.13zM207.78 250.56h6.12v-6.12h-6.12zM201.66 250.56H48.9v6.12h6.13v6.13H201.66v-6.13h6.12v-6.12zM42.78 250.56h6.12v-6.12h-6.12zM36.66 244.44h6.12v-6.13h-6.12zM30.53 238.31h6.13v-6.12h-6.13zM24.49 232.19h6.04v-6.12h-6.04zM24.49 213.9h-6.12v12.17h6.12v-6.05zM18.37 201.66v-6.13h-6.13v18.37h6.13v-6.12zM12.24 183.37v-55.03H6.12v67.19h6.12v-6.12z"/>
    </g>
</svg>
