<svg xmlns="http://www.w3.org/2000/svg" width="227" height="282" viewBox="0 0 227 282">
    <g fill="none" fill-rule="evenodd">
        <path fill="#FFF" d="M12.16 85.56v-6.12h6.13V61.07h6.12v-6.05H6.12v42.79h6.04v-6.13zM213.82 55.02h-12.16v6.05h6.12v18.37h6.04v18.37h6.12V55.02zM213.82 140.59v6.04h-6.04v12.25h-6.12V165h-6.13v6.12h-6.12v6.12h-6.12v6.13h-6.13v6.04H165v6.12h-12.25v6.13h-18.37v6.12H219.94v-79.44h-6.12v6.12zM79.44 201.66h-6.13v-6.13H61.07v-6.12H48.82v-6.04h-6.04v-6.13h-6.12v-6.12h-6.13V165h-6.12v-6.12h-6.12v-12.25h-6.13v-18.29H6.12v79.44H91.6v-6.12h-6.04z"/>
        <path fill="#FFF" d="M207.78 91.68V79.44h-6.12V61.07h-6.13v-6.05h-6.12v12.17h6.12v18.37h6.13v18.29h6.12v18.37h-6.12v18.37h-6.13v12.16h-6.12v6.13h-6.12V165h-6.13v6.12h-6.04v6.12h-12.25v6.13h-12.24v6.04h-18.29v6.12H97.73v-6.12H79.44v-6.04H67.19v-6.13H54.94v-6.12h-6.12V165h-6.04v-6.12h-6.12v-6.13h-6.13v-12.16h-6.12v-18.37h-6.12v-18.37h6.12V85.56h6.12V67.19h6.13V55.02h-6.13v6.05h-6.12v18.37h-6.12v18.37h-6.13v30.53h6.13v18.29h6.12v12.25h6.12V165h6.13v6.12h6.12v6.12h6.04v6.13h12.25v6.04h12.24v6.12H91.6v6.13h42.78v-6.13h18.37v-6.12H165v-6.04h12.16v-6.13h6.13v-6.12h6.12V165h6.12v-6.12h6.13v-12.25h6.12v-18.29h6.04V97.81h-6.04z"/>
        <path fill="#231F20" d="M219.939 12.24h6.131V6.12h-6.131zM213.82 109.97v18.37h6.12V97.81h-6.12v6.04zM213.82 18.37v6.04h6.12V12.24h-6.12zM207.78 134.46v12.17h6.04v-18.29h-6.04zM207.78 91.68v6.13h6.04V79.44h-6.04v6.12zM207.779 30.53h6.041v-6.12h-6.041zM201.66 152.75v6.13h6.12v-12.25h-6.12zM201.66 73.31v6.13h6.12V61.07h-6.12v6.12zM201.66 36.66v6.12h6.12V30.53h-6.12zM195.529 165h6.131v-6.12h-6.131zM195.53 48.9v12.17h6.13V42.78h-6.13zM189.41 171.12h6.119V165h-6.119zM183.29 177.24h6.12v-6.12h-6.12zM177.16 183.37h6.13v-6.13h-6.13zM165 183.37v6.04h12.16v-6.04h-6.04zM152.75 189.41v6.12H165v-6.12h-6.13zM140.51 195.53h-6.13v6.13h18.37v-6.13h-6.12zM128.34 201.66H91.6v6.12h18.37v67.19H67.19v6.12h91.681v-6.12H116.09v-67.19h18.29v-6.12zM85.56 195.53H73.31v6.13H91.6v-6.13zM67.19 189.41h-6.12v6.12h12.24v-6.12zM54.94 183.37h-6.12v6.04h12.25v-6.04zM42.78 183.37h6.04v-6.13h-6.04zM36.66 177.24h6.12v-6.12h-6.12zM30.53 171.12h6.13V165h-6.13zM24.41 165h6.12v-6.12h-6.12zM30.53 55.02V42.78h-6.12v18.29h6.12zM24.41 146.63h-6.12v12.25h6.12v-6.13zM24.41 73.31V61.07h-6.12v18.37h6.12zM24.41 30.53h-6.12v12.25h6.12v-6.12zM18.29 134.46v-6.12h-6.13v18.29h6.13v-6.04zM18.29 91.68V79.44h-6.13v18.37h6.13zM12.16 30.53h6.13v-6.12h-6.13zM6.12 0v6.12H219.939V0zM12.16 116.09V97.81H6.12v30.53h6.04v-6.12zM12.16 12.24H6.12v12.17h6.04v-6.04zM0 12.24h6.12V6.12H0z"/>
    </g>
</svg>
