<svg xmlns="http://www.w3.org/2000/svg" width="263" height="263" viewBox="0 0 263 263">
    <g fill="none" fill-rule="evenodd">
        <path fill="#FFF" d="M213.9 55.02v6.12h-6.12v6.05h-6.12v6.12h-6.13v6.12h-6.04v6.13h-6.12v6.12h-6.13v6.12h-6.12v6.13H165v6.04h-6.12v6.12h-6.13v6.12h-6.04v6.13h-6.12v6.12h85.56V48.9h-6.12v6.12zM116.1 122.21h-6.13v-6.12h-6.04v-6.12h-6.12v-6.04h-6.13V97.8h-6.12v-6.12h-6.12v-6.12h-6.13v-6.13h-6.12v-6.12h-6.04v-6.12h-6.12v-6.05H48.9v-6.12h-6.12V48.9h-6.12v85.56h85.56v-6.12h-6.12z"/>
        <path fill="#FFF" d="M226.15 42.78v-6.13H213.9v6.13h-6.12v6.12h-6.12v6.12h-6.13v6.119h-6.04v6.051h-6.12v6.12h-6.13v6.12h-6.12v6.13H165v6.12h-6.12v6.12h-6.13v6.13h-6.04v6.039h-6.12v6.122h-6.13v6.119h-6.12v-6.119h-6.12v-6.122h-6.12v-6.039h-6.13V97.8h-6.04v-6.12h-6.12v-6.12h-6.13v-6.13h-6.12v-6.12h-6.12v-6.12h-6.13v-6.051h-6.12V55.02h-6.04V48.9h-6.12v-6.12H48.9v-6.13H36.66v6.13h6.12v6.12h6.12v6.12h6.13v6.119h6.12v6.051h6.04v6.12h6.12v6.12h6.13v6.13h6.12v6.12h6.12v6.12h6.13v6.13h6.12v6.039h6.04v6.122h6.13v6.119h6.12v6.131h18.37v-6.131h6.12v-6.119h6.04v-6.122h6.13v-6.039H165V97.8h6.12v-6.12h6.12v-6.12h6.13v-6.13h6.12v-6.12h6.04v-6.12h6.13v-6.051h6.12V55.02h6.12V48.9h6.13v-6.12z"/>
        <path fill="#231F20" d="M0 0v12.24h6.12V6.12h250.56v6.12h6.13V0z"/>
        <path fill="#231F20" d="M250.561 18.36h6.119v-6.12h-6.119zM244.44 24.49h6.12v-6.13h-6.12zM238.311 30.53h6.13v-6.04h-6.13zM232.19 36.65h6.12v-6.12h-6.12zM226.15 42.78h6.04v-6.13h-6.04zM220.03 48.9h6.12v-6.12h-6.12zM213.9 55.02h6.13V48.9h-6.13zM207.78 61.139h6.12V55.02h-6.12zM201.66 67.19h6.12v-6.051h-6.12zM195.53 73.31h6.13v-6.12h-6.13zM189.49 79.43h6.04v-6.12h-6.04zM183.37 85.56h6.12v-6.13h-6.12zM177.24 91.68h6.13v-6.12h-6.13zM171.12 97.8h6.12v-6.119h-6.12zM165 103.93h6.12v-6.131H165zM158.88 109.969H165v-6.039h-6.12zM152.75 116.091h6.13v-6.121h-6.13zM146.71 122.21h6.04v-6.119h-6.04zM140.59 128.341h6.12v-6.131h-6.12zM134.46 128.34h-12.24v6.12h6.12V256.679H91.679v6.12h79.441v-6.12H134.46V134.46h6.13v-6.118z"/>
        <path fill="#231F20" d="M116.1 128.341h6.12v-6.131h-6.12zM109.97 122.21h6.13v-6.119h-6.13zM103.93 116.091h6.04v-6.121h-6.04zM97.811 109.969h6.119v-6.039h-6.119zM91.68 103.93h6.131v-6.131H91.68zM85.561 97.8h6.119v-6.119h-6.119zM79.44 91.68h6.12v-6.12h-6.12zM73.311 85.56h6.13v-6.13h-6.13zM67.19 79.43h6.12v-6.12h-6.12zM61.15 73.31h6.04v-6.12h-6.04zM55.03 67.19h6.12v-6.051h-6.12zM48.9 61.139h6.13V55.02H48.9zM42.78 55.02h6.12V48.9h-6.12zM36.66 48.9h6.12v-6.12h-6.12zM30.53 42.78h6.13v-6.13h-6.13zM24.49 36.65h6.04v-6.12h-6.04z"/>
        <path fill="#231F20" d="M18.37 30.53h6.12v-6.04h-6.12zM12.24 24.49h6.13v-6.13h-6.13zM6.12 18.36h6.12v-6.12H6.12z"/>
    </g>
</svg>
